<ttFont>
    <TTGlyph name=".notdef" xMin="4" yMin="0" xMax="514" yMax="701">
      <contour>
        <pt x="259" y="302" on="1"/>
        <pt x="255" y="302" on="1"/>
        <pt x="155" y="93" on="1"/>
        <pt x="95" y="93" on="1"/>
        <pt x="229" y="353" on="1"/>
        <pt x="95" y="608" on="1"/>
        <pt x="155" y="608" on="1"/>
        <pt x="260" y="402" on="1"/>
        <pt x="264" y="402" on="1"/>
        <pt x="364" y="608" on="1"/>
        <pt x="424" y="608" on="1"/>
        <pt x="289" y="347" on="1"/>
        <pt x="424" y="93" on="1"/>
        <pt x="364" y="93" on="1"/>
      </contour>
      <contour>
        <pt x="59" y="649" on="1"/>
        <pt x="59" y="52" on="1"/>
        <pt x="459" y="52" on="1"/>
        <pt x="459" y="649" on="1"/>
      </contour>
      <contour>
        <pt x="4" y="0" on="1"/>
        <pt x="4" y="701" on="1"/>
        <pt x="514" y="701" on="1"/>
        <pt x="514" y="0" on="1"/>
      </contour>
    </TTGlyph>
    <TTGlyph name="A" xMin="11" yMin="0" xMax="598" yMax="678">
      <contour>
        <pt x="571" y="0" on="1"/>
        <pt x="379" y="0" on="1"/>
        <pt x="379" y="8" on="1"/>
        <pt x="379" y="34" on="0"/>
        <pt x="393" y="42" on="1"/>
        <pt x="400" y="45" on="0"/>
        <pt x="410" y="46" on="1"/>
        <pt x="456" y="48" on="1"/>
        <pt x="403" y="231" on="1"/>
        <pt x="191" y="231" on="1"/>
        <pt x="138" y="50" on="1"/>
        <pt x="213" y="44" on="1"/>
        <pt x="217" y="0" on="0"/>
        <pt x="186" y="0" on="1"/>
        <pt x="11" y="0" on="1"/>
        <pt x="11" y="8" on="1"/>
        <pt x="11" y="34" on="0"/>
        <pt x="25" y="42" on="1"/>
        <pt x="32" y="45" on="0"/>
        <pt x="42" y="46" on="1"/>
        <pt x="82" y="48" on="1"/>
        <pt x="275" y="678" on="1"/>
        <pt x="307" y="682" on="0"/>
        <pt x="340" y="678" on="1"/>
        <pt x="533" y="50" on="1"/>
        <pt x="598" y="44" on="1"/>
        <pt x="602" y="0" on="0"/>
      </contour>
      <contour>
        <pt x="206" y="281" on="1"/>
        <pt x="388" y="281" on="1"/>
        <pt x="298" y="594" on="1"/>
      </contour>
    </TTGlyph>
    <TTGlyph name="AE" xMin="11" yMin="0" xMax="822" yMax="679">
      <contour>
        <pt x="822" y="136" on="1"/>
        <pt x="822" y="0" on="1"/>
        <pt x="347" y="0" on="1"/>
        <pt x="347" y="8" on="1"/>
        <pt x="347" y="34" on="0"/>
        <pt x="361" y="42" on="1"/>
        <pt x="368" y="45" on="0"/>
        <pt x="378" y="46" on="1"/>
        <pt x="424" y="48" on="1"/>
        <pt x="424" y="312" on="1"/>
        <pt x="264" y="312" on="1"/>
        <pt x="138" y="50" on="1"/>
        <pt x="213" y="44" on="1"/>
        <pt x="217" y="0" on="0"/>
        <pt x="186" y="0" on="1"/>
        <pt x="11" y="0" on="1"/>
        <pt x="11" y="8" on="1"/>
        <pt x="11" y="34" on="0"/>
        <pt x="25" y="42" on="1"/>
        <pt x="33" y="46" on="0"/>
        <pt x="81" y="48" on="1"/>
        <pt x="389" y="678" on="1"/>
        <pt x="802" y="679" on="1"/>
        <pt x="802" y="537" on="1"/>
        <pt x="802" y="506" on="0"/>
        <pt x="757" y="511" on="1"/>
        <pt x="748" y="624" on="1"/>
        <pt x="496" y="629" on="1"/>
        <pt x="496" y="362" on="1"/>
        <pt x="688" y="375" on="1"/>
        <pt x="696" y="343" on="0"/>
        <pt x="689" y="303" on="1"/>
        <pt x="496" y="313" on="1"/>
        <pt x="496" y="50" on="1"/>
        <pt x="768" y="57" on="1"/>
        <pt x="777" y="163" on="1"/>
        <pt x="822" y="168" on="0"/>
      </contour>
      <contour>
        <pt x="424" y="361" on="1"/>
        <pt x="424" y="628" on="1"/>
        <pt x="416" y="628" on="1"/>
        <pt x="288" y="361" on="1"/>
      </contour>
    </TTGlyph>
    <TTGlyph name="Aacute" xMin="11" yMin="0" xMax="598" yMax="886">
      <contour>
        <pt x="571" y="0" on="1"/>
        <pt x="379" y="0" on="1"/>
        <pt x="379" y="8" on="1"/>
        <pt x="379" y="34" on="0"/>
        <pt x="393" y="42" on="1"/>
        <pt x="400" y="45" on="0"/>
        <pt x="410" y="46" on="1"/>
        <pt x="456" y="48" on="1"/>
        <pt x="403" y="231" on="1"/>
        <pt x="191" y="231" on="1"/>
        <pt x="138" y="50" on="1"/>
        <pt x="213" y="44" on="1"/>
        <pt x="217" y="0" on="0"/>
        <pt x="186" y="0" on="1"/>
        <pt x="11" y="0" on="1"/>
        <pt x="11" y="8" on="1"/>
        <pt x="11" y="34" on="0"/>
        <pt x="25" y="42" on="1"/>
        <pt x="32" y="45" on="0"/>
        <pt x="42" y="46" on="1"/>
        <pt x="82" y="48" on="1"/>
        <pt x="275" y="678" on="1"/>
        <pt x="307" y="682" on="0"/>
        <pt x="340" y="678" on="1"/>
        <pt x="533" y="50" on="1"/>
        <pt x="598" y="44" on="1"/>
        <pt x="602" y="0" on="0"/>
      </contour>
      <contour>
        <pt x="206" y="281" on="1"/>
        <pt x="388" y="281" on="1"/>
        <pt x="298" y="594" on="1"/>
      </contour>
      <contour>
        <pt x="455" y="836" on="1"/>
        <pt x="257" y="730" on="1"/>
        <pt x="238" y="739" on="0"/>
        <pt x="227" y="759" on="1"/>
        <pt x="392" y="886" on="1"/>
        <pt x="410" y="884" on="0"/>
        <pt x="446" y="854" on="0"/>
      </contour>
    </TTGlyph>
    <TTGlyph name="Abreve" xMin="11" yMin="0" xMax="598" yMax="879">
      <contour>
        <pt x="571" y="0" on="1"/>
        <pt x="379" y="0" on="1"/>
        <pt x="379" y="8" on="1"/>
        <pt x="379" y="34" on="0"/>
        <pt x="393" y="42" on="1"/>
        <pt x="400" y="45" on="0"/>
        <pt x="410" y="46" on="1"/>
        <pt x="456" y="48" on="1"/>
        <pt x="403" y="231" on="1"/>
        <pt x="191" y="231" on="1"/>
        <pt x="138" y="50" on="1"/>
        <pt x="213" y="44" on="1"/>
        <pt x="217" y="0" on="0"/>
        <pt x="186" y="0" on="1"/>
        <pt x="11" y="0" on="1"/>
        <pt x="11" y="8" on="1"/>
        <pt x="11" y="34" on="0"/>
        <pt x="25" y="42" on="1"/>
        <pt x="32" y="45" on="0"/>
        <pt x="42" y="46" on="1"/>
        <pt x="82" y="48" on="1"/>
        <pt x="275" y="678" on="1"/>
        <pt x="307" y="682" on="0"/>
        <pt x="340" y="678" on="1"/>
        <pt x="533" y="50" on="1"/>
        <pt x="598" y="44" on="1"/>
        <pt x="602" y="0" on="0"/>
      </contour>
      <contour>
        <pt x="206" y="281" on="1"/>
        <pt x="388" y="281" on="1"/>
        <pt x="298" y="594" on="1"/>
      </contour>
      <contour>
        <pt x="375" y="735" on="0"/>
        <pt x="239" y="735" on="0"/>
        <pt x="159" y="813" on="0"/>
        <pt x="152" y="863" on="1"/>
        <pt x="186" y="879" on="1"/>
        <pt x="197" y="850" on="0"/>
        <pt x="258" y="800" on="0"/>
        <pt x="308" y="800" on="1"/>
        <pt x="398" y="800" on="0"/>
        <pt x="428" y="878" on="1"/>
        <pt x="462" y="863" on="1"/>
        <pt x="455" y="813" on="0"/>
      </contour>
    </TTGlyph>
    <TTGlyph name="Acircumflex" xMin="11" yMin="0" xMax="598" yMax="869">
      <contour>
        <pt x="571" y="0" on="1"/>
        <pt x="379" y="0" on="1"/>
        <pt x="379" y="8" on="1"/>
        <pt x="379" y="34" on="0"/>
        <pt x="393" y="42" on="1"/>
        <pt x="400" y="45" on="0"/>
        <pt x="410" y="46" on="1"/>
        <pt x="456" y="48" on="1"/>
        <pt x="403" y="231" on="1"/>
        <pt x="191" y="231" on="1"/>
        <pt x="138" y="50" on="1"/>
        <pt x="213" y="44" on="1"/>
        <pt x="217" y="0" on="0"/>
        <pt x="186" y="0" on="1"/>
        <pt x="11" y="0" on="1"/>
        <pt x="11" y="8" on="1"/>
        <pt x="11" y="34" on="0"/>
        <pt x="25" y="42" on="1"/>
        <pt x="32" y="45" on="0"/>
        <pt x="42" y="46" on="1"/>
        <pt x="82" y="48" on="1"/>
        <pt x="275" y="678" on="1"/>
        <pt x="307" y="682" on="0"/>
        <pt x="340" y="678" on="1"/>
        <pt x="533" y="50" on="1"/>
        <pt x="598" y="44" on="1"/>
        <pt x="602" y="0" on="0"/>
      </contour>
      <contour>
        <pt x="206" y="281" on="1"/>
        <pt x="388" y="281" on="1"/>
        <pt x="298" y="594" on="1"/>
      </contour>
      <contour>
        <pt x="307" y="808" on="1"/>
        <pt x="172" y="720" on="1"/>
        <pt x="155" y="729" on="0"/>
        <pt x="144" y="748" on="1"/>
        <pt x="276" y="869" on="1"/>
        <pt x="310" y="877" on="0"/>
        <pt x="338" y="869" on="1"/>
        <pt x="469" y="748" on="1"/>
        <pt x="456" y="727" on="0"/>
        <pt x="441" y="720" on="1"/>
      </contour>
    </TTGlyph>
    <TTGlyph name="Adieresis" xMin="11" yMin="0" xMax="598" yMax="855">
      <contour>
        <pt x="571" y="0" on="1"/>
        <pt x="379" y="0" on="1"/>
        <pt x="379" y="8" on="1"/>
        <pt x="379" y="34" on="0"/>
        <pt x="393" y="42" on="1"/>
        <pt x="400" y="45" on="0"/>
        <pt x="410" y="46" on="1"/>
        <pt x="456" y="48" on="1"/>
        <pt x="403" y="231" on="1"/>
        <pt x="191" y="231" on="1"/>
        <pt x="138" y="50" on="1"/>
        <pt x="213" y="44" on="1"/>
        <pt x="217" y="0" on="0"/>
        <pt x="186" y="0" on="1"/>
        <pt x="11" y="0" on="1"/>
        <pt x="11" y="8" on="1"/>
        <pt x="11" y="34" on="0"/>
        <pt x="25" y="42" on="1"/>
        <pt x="32" y="45" on="0"/>
        <pt x="42" y="46" on="1"/>
        <pt x="82" y="48" on="1"/>
        <pt x="275" y="678" on="1"/>
        <pt x="307" y="682" on="0"/>
        <pt x="340" y="678" on="1"/>
        <pt x="533" y="50" on="1"/>
        <pt x="598" y="44" on="1"/>
        <pt x="602" y="0" on="0"/>
      </contour>
      <contour>
        <pt x="206" y="281" on="1"/>
        <pt x="388" y="281" on="1"/>
        <pt x="298" y="594" on="1"/>
      </contour>
      <contour>
        <pt x="246" y="751" on="0"/>
        <pt x="202" y="751" on="0"/>
        <pt x="171" y="781" on="0"/>
        <pt x="171" y="824" on="0"/>
        <pt x="202" y="855" on="0"/>
        <pt x="245" y="855" on="0"/>
        <pt x="275" y="824" on="0"/>
        <pt x="275" y="781" on="0"/>
      </contour>
      <contour>
        <pt x="440" y="781" on="0"/>
        <pt x="410" y="751" on="0"/>
        <pt x="366" y="751" on="0"/>
        <pt x="336" y="782" on="0"/>
        <pt x="336" y="823" on="0"/>
        <pt x="367" y="855" on="0"/>
        <pt x="410" y="855" on="0"/>
        <pt x="440" y="824" on="0"/>
      </contour>
    </TTGlyph>
    <TTGlyph name="Agrave" xMin="11" yMin="0" xMax="598" yMax="878">
      <contour>
        <pt x="571" y="0" on="1"/>
        <pt x="379" y="0" on="1"/>
        <pt x="379" y="8" on="1"/>
        <pt x="379" y="34" on="0"/>
        <pt x="393" y="42" on="1"/>
        <pt x="400" y="45" on="0"/>
        <pt x="410" y="46" on="1"/>
        <pt x="456" y="48" on="1"/>
        <pt x="403" y="231" on="1"/>
        <pt x="191" y="231" on="1"/>
        <pt x="138" y="50" on="1"/>
        <pt x="213" y="44" on="1"/>
        <pt x="217" y="0" on="0"/>
        <pt x="186" y="0" on="1"/>
        <pt x="11" y="0" on="1"/>
        <pt x="11" y="8" on="1"/>
        <pt x="11" y="34" on="0"/>
        <pt x="25" y="42" on="1"/>
        <pt x="32" y="45" on="0"/>
        <pt x="42" y="46" on="1"/>
        <pt x="82" y="48" on="1"/>
        <pt x="275" y="678" on="1"/>
        <pt x="307" y="682" on="0"/>
        <pt x="340" y="678" on="1"/>
        <pt x="533" y="50" on="1"/>
        <pt x="598" y="44" on="1"/>
        <pt x="602" y="0" on="0"/>
      </contour>
      <contour>
        <pt x="206" y="281" on="1"/>
        <pt x="388" y="281" on="1"/>
        <pt x="298" y="594" on="1"/>
      </contour>
      <contour>
        <pt x="238" y="878" on="1"/>
        <pt x="403" y="751" on="1"/>
        <pt x="392" y="731" on="0"/>
        <pt x="374" y="722" on="1"/>
        <pt x="175" y="829" on="1"/>
        <pt x="184" y="846" on="0"/>
        <pt x="220" y="876" on="0"/>
      </contour>
    </TTGlyph>
    <TTGlyph name="Amacron" xMin="11" yMin="0" xMax="598" yMax="822">
      <contour>
        <pt x="571" y="0" on="1"/>
        <pt x="379" y="0" on="1"/>
        <pt x="379" y="8" on="1"/>
        <pt x="379" y="34" on="0"/>
        <pt x="393" y="42" on="1"/>
        <pt x="400" y="45" on="0"/>
        <pt x="410" y="46" on="1"/>
        <pt x="456" y="48" on="1"/>
        <pt x="403" y="231" on="1"/>
        <pt x="191" y="231" on="1"/>
        <pt x="138" y="50" on="1"/>
        <pt x="213" y="44" on="1"/>
        <pt x="217" y="0" on="0"/>
        <pt x="186" y="0" on="1"/>
        <pt x="11" y="0" on="1"/>
        <pt x="11" y="8" on="1"/>
        <pt x="11" y="34" on="0"/>
        <pt x="25" y="42" on="1"/>
        <pt x="32" y="45" on="0"/>
        <pt x="42" y="46" on="1"/>
        <pt x="82" y="48" on="1"/>
        <pt x="275" y="678" on="1"/>
        <pt x="307" y="682" on="0"/>
        <pt x="340" y="678" on="1"/>
        <pt x="533" y="50" on="1"/>
        <pt x="598" y="44" on="1"/>
        <pt x="602" y="0" on="0"/>
      </contour>
      <contour>
        <pt x="206" y="281" on="1"/>
        <pt x="388" y="281" on="1"/>
        <pt x="298" y="594" on="1"/>
      </contour>
      <contour>
        <pt x="438" y="822" on="1"/>
        <pt x="438" y="766" on="1"/>
        <pt x="175" y="766" on="1"/>
        <pt x="175" y="822" on="1"/>
      </contour>
    </TTGlyph>
    <TTGlyph name="Aogonek" xMin="11" yMin="-168" xMax="612" yMax="678">
      <contour>
        <pt x="571" y="0" on="1"/>
        <pt x="560" y="0" on="1"/>
        <pt x="498" y="-28" on="0"/>
        <pt x="498" y="-125" on="0"/>
        <pt x="548" y="-125" on="1"/>
        <pt x="574" y="-125" on="0"/>
        <pt x="605" y="-102" on="1"/>
        <pt x="609" y="-105" on="0"/>
        <pt x="614" y="-127" on="0"/>
        <pt x="612" y="-134" on="1"/>
        <pt x="588" y="-168" on="0"/>
        <pt x="529" y="-168" on="1"/>
        <pt x="490" y="-168" on="0"/>
        <pt x="439" y="-127" on="0"/>
        <pt x="439" y="-91" on="1"/>
        <pt x="439" y="-38" on="0"/>
        <pt x="492" y="0" on="1"/>
        <pt x="379" y="0" on="1"/>
        <pt x="379" y="8" on="1"/>
        <pt x="379" y="34" on="0"/>
        <pt x="393" y="42" on="1"/>
        <pt x="400" y="45" on="0"/>
        <pt x="410" y="46" on="1"/>
        <pt x="456" y="48" on="1"/>
        <pt x="403" y="231" on="1"/>
        <pt x="191" y="231" on="1"/>
        <pt x="138" y="50" on="1"/>
        <pt x="213" y="44" on="1"/>
        <pt x="217" y="0" on="0"/>
        <pt x="186" y="0" on="1"/>
        <pt x="11" y="0" on="1"/>
        <pt x="11" y="8" on="1"/>
        <pt x="11" y="34" on="0"/>
        <pt x="25" y="42" on="1"/>
        <pt x="32" y="45" on="0"/>
        <pt x="42" y="46" on="1"/>
        <pt x="82" y="48" on="1"/>
        <pt x="275" y="678" on="1"/>
        <pt x="307" y="682" on="0"/>
        <pt x="340" y="678" on="1"/>
        <pt x="533" y="50" on="1"/>
        <pt x="598" y="44" on="1"/>
        <pt x="602" y="0" on="0"/>
      </contour>
      <contour>
        <pt x="206" y="281" on="1"/>
        <pt x="388" y="281" on="1"/>
        <pt x="298" y="594" on="1"/>
      </contour>
    </TTGlyph>
    <TTGlyph name="Aring" xMin="11" yMin="0" xMax="598" yMax="905">
      <contour>
        <pt x="571" y="0" on="1"/>
        <pt x="379" y="0" on="1"/>
        <pt x="379" y="8" on="1"/>
        <pt x="379" y="34" on="0"/>
        <pt x="393" y="42" on="1"/>
        <pt x="400" y="45" on="0"/>
        <pt x="410" y="46" on="1"/>
        <pt x="456" y="48" on="1"/>
        <pt x="403" y="231" on="1"/>
        <pt x="191" y="231" on="1"/>
        <pt x="138" y="50" on="1"/>
        <pt x="213" y="44" on="1"/>
        <pt x="217" y="0" on="0"/>
        <pt x="186" y="0" on="1"/>
        <pt x="11" y="0" on="1"/>
        <pt x="11" y="8" on="1"/>
        <pt x="11" y="34" on="0"/>
        <pt x="25" y="42" on="1"/>
        <pt x="32" y="45" on="0"/>
        <pt x="42" y="46" on="1"/>
        <pt x="82" y="48" on="1"/>
        <pt x="275" y="678" on="1"/>
        <pt x="307" y="682" on="0"/>
        <pt x="340" y="678" on="1"/>
        <pt x="533" y="50" on="1"/>
        <pt x="598" y="44" on="1"/>
        <pt x="602" y="0" on="0"/>
      </contour>
      <contour>
        <pt x="206" y="281" on="1"/>
        <pt x="388" y="281" on="1"/>
        <pt x="298" y="594" on="1"/>
      </contour>
      <contour>
        <pt x="399" y="780" on="0"/>
        <pt x="348" y="731" on="0"/>
        <pt x="267" y="731" on="0"/>
        <pt x="218" y="778" on="0"/>
        <pt x="218" y="856" on="0"/>
        <pt x="269" y="905" on="0"/>
        <pt x="352" y="905" on="0"/>
        <pt x="400" y="859" on="0"/>
      </contour>
      <contour>
        <pt x="330" y="863" on="0"/>
        <pt x="288" y="863" on="0"/>
        <pt x="264" y="839" on="0"/>
        <pt x="264" y="797" on="0"/>
        <pt x="288" y="773" on="0"/>
        <pt x="330" y="773" on="0"/>
        <pt x="354" y="797" on="0"/>
        <pt x="354" y="839" on="0"/>
      </contour>
    </TTGlyph>
    <TTGlyph name="Atilde" xMin="11" yMin="0" xMax="598" yMax="866">
      <contour>
        <pt x="571" y="0" on="1"/>
        <pt x="379" y="0" on="1"/>
        <pt x="379" y="8" on="1"/>
        <pt x="379" y="34" on="0"/>
        <pt x="393" y="42" on="1"/>
        <pt x="400" y="45" on="0"/>
        <pt x="410" y="46" on="1"/>
        <pt x="456" y="48" on="1"/>
        <pt x="403" y="231" on="1"/>
        <pt x="191" y="231" on="1"/>
        <pt x="138" y="50" on="1"/>
        <pt x="213" y="44" on="1"/>
        <pt x="217" y="0" on="0"/>
        <pt x="186" y="0" on="1"/>
        <pt x="11" y="0" on="1"/>
        <pt x="11" y="8" on="1"/>
        <pt x="11" y="34" on="0"/>
        <pt x="25" y="42" on="1"/>
        <pt x="32" y="45" on="0"/>
        <pt x="42" y="46" on="1"/>
        <pt x="82" y="48" on="1"/>
        <pt x="275" y="678" on="1"/>
        <pt x="307" y="682" on="0"/>
        <pt x="340" y="678" on="1"/>
        <pt x="533" y="50" on="1"/>
        <pt x="598" y="44" on="1"/>
        <pt x="602" y="0" on="0"/>
      </contour>
      <contour>
        <pt x="206" y="281" on="1"/>
        <pt x="388" y="281" on="1"/>
        <pt x="298" y="594" on="1"/>
      </contour>
      <contour>
        <pt x="465" y="809" on="0"/>
        <pt x="412" y="753" on="0"/>
        <pt x="333" y="753" on="0"/>
        <pt x="249" y="803" on="0"/>
        <pt x="207" y="803" on="0"/>
        <pt x="179" y="775" on="0"/>
        <pt x="172" y="756" on="1"/>
        <pt x="141" y="767" on="1"/>
        <pt x="151" y="814" on="0"/>
        <pt x="208" y="866" on="0"/>
        <pt x="274" y="866" on="0"/>
        <pt x="354" y="813" on="0"/>
        <pt x="404" y="813" on="0"/>
        <pt x="438" y="842" on="0"/>
        <pt x="443" y="865" on="1"/>
        <pt x="473" y="856" on="1"/>
      </contour>
    </TTGlyph>
    <TTGlyph name="B" xMin="42" yMin="0" xMax="515" yMax="679">
      <contour>
        <pt x="42" y="6" on="1"/>
        <pt x="42" y="45" on="0"/>
        <pt x="73" y="45" on="1"/>
        <pt x="119" y="49" on="1"/>
        <pt x="119" y="628" on="1"/>
        <pt x="46" y="634" on="1"/>
        <pt x="42" y="679" on="0"/>
        <pt x="72" y="679" on="1"/>
        <pt x="281" y="679" on="1"/>
        <pt x="381" y="679" on="0"/>
        <pt x="482" y="585" on="0"/>
        <pt x="482" y="514" on="1"/>
        <pt x="482" y="406" on="0"/>
        <pt x="371" y="360" on="1"/>
        <pt x="431" y="349" on="0"/>
        <pt x="515" y="265" on="0"/>
        <pt x="515" y="199" on="1"/>
        <pt x="516" y="106" on="0"/>
        <pt x="392" y="0" on="0"/>
        <pt x="286" y="0" on="1"/>
        <pt x="42" y="0" on="1"/>
      </contour>
      <contour>
        <pt x="191" y="631" on="1"/>
        <pt x="191" y="374" on="1"/>
        <pt x="234" y="374" on="1"/>
        <pt x="325" y="374" on="0"/>
        <pt x="406" y="443" on="0"/>
        <pt x="406" y="577" on="0"/>
        <pt x="319" y="639" on="0"/>
        <pt x="240" y="634" on="1"/>
        <pt x="192" y="631" on="1"/>
      </contour>
      <contour>
        <pt x="440" y="189" on="1"/>
        <pt x="440" y="268" on="0"/>
        <pt x="348" y="332" on="0"/>
        <pt x="246" y="330" on="1"/>
        <pt x="191" y="329" on="1"/>
        <pt x="191" y="49" on="1"/>
        <pt x="261" y="48" on="1"/>
        <pt x="440" y="45" on="0"/>
      </contour>
    </TTGlyph>
    <TTGlyph name="C" xMin="38" yMin="-15" xMax="532" yMax="692">
      <contour>
        <pt x="335" y="692" on="1"/>
        <pt x="416" y="692" on="0"/>
        <pt x="525" y="619" on="0"/>
        <pt x="525" y="507" on="0"/>
        <pt x="462" y="506" on="1"/>
        <pt x="462" y="569" on="0"/>
        <pt x="390" y="638" on="0"/>
        <pt x="327" y="638" on="1"/>
        <pt x="224" y="638" on="0"/>
        <pt x="116" y="472" on="0"/>
        <pt x="116" y="335" on="1"/>
        <pt x="116" y="46" on="0"/>
        <pt x="339" y="46" on="1"/>
        <pt x="443" y="46" on="0"/>
        <pt x="519" y="107" on="1"/>
        <pt x="532" y="100" on="0"/>
        <pt x="532" y="85" on="1"/>
        <pt x="532" y="54" on="0"/>
        <pt x="410" y="-15" on="0"/>
        <pt x="322" y="-15" on="1"/>
        <pt x="187" y="-15" on="0"/>
        <pt x="42" y="162" on="0"/>
        <pt x="35" y="481" on="0"/>
        <pt x="194" y="692" on="0"/>
      </contour>
    </TTGlyph>
    <TTGlyph name="Cacute" xMin="38" yMin="-15" xMax="532" yMax="886">
      <contour>
        <pt x="477" y="836" on="1"/>
        <pt x="279" y="730" on="1"/>
        <pt x="260" y="739" on="0"/>
        <pt x="249" y="759" on="1"/>
        <pt x="414" y="886" on="1"/>
        <pt x="432" y="884" on="0"/>
        <pt x="468" y="854" on="0"/>
      </contour>
      <contour>
        <pt x="335" y="692" on="1"/>
        <pt x="416" y="692" on="0"/>
        <pt x="525" y="619" on="0"/>
        <pt x="525" y="507" on="0"/>
        <pt x="462" y="506" on="1"/>
        <pt x="462" y="569" on="0"/>
        <pt x="390" y="638" on="0"/>
        <pt x="327" y="638" on="1"/>
        <pt x="224" y="638" on="0"/>
        <pt x="116" y="472" on="0"/>
        <pt x="116" y="335" on="1"/>
        <pt x="116" y="46" on="0"/>
        <pt x="339" y="46" on="1"/>
        <pt x="443" y="46" on="0"/>
        <pt x="519" y="107" on="1"/>
        <pt x="532" y="100" on="0"/>
        <pt x="532" y="85" on="1"/>
        <pt x="532" y="54" on="0"/>
        <pt x="410" y="-15" on="0"/>
        <pt x="322" y="-15" on="1"/>
        <pt x="187" y="-15" on="0"/>
        <pt x="42" y="162" on="0"/>
        <pt x="35" y="481" on="0"/>
        <pt x="194" y="692" on="0"/>
      </contour>
    </TTGlyph>
    <TTGlyph name="Ccaron" xMin="38" yMin="-15" xMax="532" yMax="884">
      <contour>
        <pt x="532" y="85" on="1"/>
        <pt x="532" y="54" on="0"/>
        <pt x="410" y="-15" on="0"/>
        <pt x="322" y="-15" on="1"/>
        <pt x="187" y="-15" on="0"/>
        <pt x="42" y="162" on="0"/>
        <pt x="35" y="481" on="0"/>
        <pt x="194" y="692" on="0"/>
        <pt x="335" y="692" on="1"/>
        <pt x="416" y="692" on="0"/>
        <pt x="525" y="619" on="0"/>
        <pt x="525" y="507" on="0"/>
        <pt x="462" y="506" on="1"/>
        <pt x="462" y="569" on="0"/>
        <pt x="390" y="638" on="0"/>
        <pt x="327" y="638" on="1"/>
        <pt x="224" y="638" on="0"/>
        <pt x="116" y="472" on="0"/>
        <pt x="116" y="335" on="1"/>
        <pt x="116" y="46" on="0"/>
        <pt x="339" y="46" on="1"/>
        <pt x="443" y="46" on="0"/>
        <pt x="519" y="107" on="1"/>
        <pt x="532" y="100" on="0"/>
      </contour>
      <contour>
        <pt x="491" y="856" on="1"/>
        <pt x="360" y="735" on="1"/>
        <pt x="328" y="728" on="0"/>
        <pt x="298" y="735" on="1"/>
        <pt x="166" y="856" on="1"/>
        <pt x="178" y="877" on="0"/>
        <pt x="194" y="884" on="1"/>
        <pt x="328" y="797" on="1"/>
        <pt x="462" y="884" on="1"/>
        <pt x="478" y="877" on="0"/>
      </contour>
    </TTGlyph>
    <TTGlyph name="Ccedilla" xMin="38" yMin="-192" xMax="532" yMax="692">
      <contour>
        <pt x="335" y="692" on="1"/>
        <pt x="416" y="692" on="0"/>
        <pt x="525" y="619" on="0"/>
        <pt x="525" y="507" on="0"/>
        <pt x="462" y="506" on="1"/>
        <pt x="462" y="569" on="0"/>
        <pt x="390" y="638" on="0"/>
        <pt x="327" y="638" on="1"/>
        <pt x="224" y="638" on="0"/>
        <pt x="116" y="472" on="0"/>
        <pt x="116" y="335" on="1"/>
        <pt x="116" y="46" on="0"/>
        <pt x="339" y="46" on="1"/>
        <pt x="443" y="46" on="0"/>
        <pt x="519" y="107" on="1"/>
        <pt x="532" y="100" on="0"/>
        <pt x="532" y="85" on="1"/>
        <pt x="532" y="56" on="0"/>
        <pt x="423" y="-10" on="0"/>
        <pt x="344" y="-14" on="1"/>
        <pt x="337" y="-42" on="1"/>
        <pt x="378" y="-42" on="0"/>
        <pt x="418" y="-81" on="0"/>
        <pt x="418" y="-148" on="0"/>
        <pt x="366" y="-192" on="0"/>
        <pt x="278" y="-192" on="0"/>
        <pt x="252" y="-164" on="1"/>
        <pt x="249" y="-143" on="0"/>
        <pt x="264" y="-133" on="1"/>
        <pt x="287" y="-151" on="0"/>
        <pt x="314" y="-151" on="1"/>
        <pt x="360" y="-151" on="0"/>
        <pt x="360" y="-114" on="1"/>
        <pt x="360" y="-97" on="0"/>
        <pt x="329" y="-79" on="0"/>
        <pt x="287" y="-79" on="1"/>
        <pt x="304" y="-15" on="1"/>
        <pt x="178" y="-8" on="0"/>
        <pt x="42" y="167" on="0"/>
        <pt x="35" y="481" on="0"/>
        <pt x="194" y="692" on="0"/>
      </contour>
    </TTGlyph>
    <TTGlyph name="Ccircumflex" xMin="38" yMin="-15" xMax="532" yMax="869">
      <contour>
        <pt x="532" y="85" on="1"/>
        <pt x="532" y="54" on="0"/>
        <pt x="410" y="-15" on="0"/>
        <pt x="322" y="-15" on="1"/>
        <pt x="187" y="-15" on="0"/>
        <pt x="42" y="162" on="0"/>
        <pt x="35" y="481" on="0"/>
        <pt x="194" y="692" on="0"/>
        <pt x="335" y="692" on="1"/>
        <pt x="416" y="692" on="0"/>
        <pt x="525" y="619" on="0"/>
        <pt x="525" y="507" on="0"/>
        <pt x="462" y="506" on="1"/>
        <pt x="462" y="569" on="0"/>
        <pt x="390" y="638" on="0"/>
        <pt x="327" y="638" on="1"/>
        <pt x="224" y="638" on="0"/>
        <pt x="116" y="472" on="0"/>
        <pt x="116" y="335" on="1"/>
        <pt x="116" y="46" on="0"/>
        <pt x="339" y="46" on="1"/>
        <pt x="443" y="46" on="0"/>
        <pt x="519" y="107" on="1"/>
        <pt x="532" y="100" on="0"/>
      </contour>
      <contour>
        <pt x="329" y="808" on="1"/>
        <pt x="195" y="720" on="1"/>
        <pt x="177" y="729" on="0"/>
        <pt x="167" y="748" on="1"/>
        <pt x="299" y="869" on="1"/>
        <pt x="332" y="877" on="0"/>
        <pt x="360" y="869" on="1"/>
        <pt x="491" y="748" on="1"/>
        <pt x="480" y="729" on="0"/>
        <pt x="463" y="720" on="1"/>
      </contour>
    </TTGlyph>
    <TTGlyph name="Cdotaccent" xMin="38" yMin="-15" xMax="532" yMax="885">
      <contour>
        <pt x="335" y="692" on="1"/>
        <pt x="416" y="692" on="0"/>
        <pt x="525" y="619" on="0"/>
        <pt x="525" y="507" on="0"/>
        <pt x="462" y="506" on="1"/>
        <pt x="462" y="569" on="0"/>
        <pt x="390" y="638" on="0"/>
        <pt x="327" y="638" on="1"/>
        <pt x="224" y="638" on="0"/>
        <pt x="116" y="472" on="0"/>
        <pt x="116" y="335" on="1"/>
        <pt x="116" y="46" on="0"/>
        <pt x="339" y="46" on="1"/>
        <pt x="443" y="46" on="0"/>
        <pt x="519" y="107" on="1"/>
        <pt x="532" y="100" on="0"/>
        <pt x="532" y="85" on="1"/>
        <pt x="532" y="54" on="0"/>
        <pt x="410" y="-15" on="0"/>
        <pt x="322" y="-15" on="1"/>
        <pt x="187" y="-15" on="0"/>
        <pt x="42" y="162" on="0"/>
        <pt x="35" y="481" on="0"/>
        <pt x="194" y="692" on="0"/>
      </contour>
      <contour>
        <pt x="350" y="786" on="0"/>
        <pt x="306" y="786" on="0"/>
        <pt x="279" y="814" on="0"/>
        <pt x="279" y="858" on="0"/>
        <pt x="306" y="885" on="0"/>
        <pt x="350" y="885" on="0"/>
        <pt x="378" y="858" on="0"/>
        <pt x="378" y="814" on="0"/>
      </contour>
    </TTGlyph>
    <TTGlyph name="D" xMin="42" yMin="0" xMax="626" yMax="679">
      <contour>
        <pt x="42" y="0" on="1"/>
        <pt x="42" y="16" on="1"/>
        <pt x="42" y="27" on="0"/>
        <pt x="53" y="40" on="0"/>
        <pt x="59" y="42" on="0"/>
        <pt x="66" y="45" on="0"/>
        <pt x="71" y="45" on="1"/>
        <pt x="118" y="49" on="1"/>
        <pt x="118" y="628" on="1"/>
        <pt x="46" y="634" on="1"/>
        <pt x="43" y="679" on="0"/>
        <pt x="75" y="679" on="1"/>
        <pt x="284" y="679" on="1"/>
        <pt x="463" y="679" on="0"/>
        <pt x="626" y="515" on="0"/>
        <pt x="626" y="176" on="0"/>
        <pt x="452" y="0" on="0"/>
        <pt x="285" y="0" on="1"/>
      </contour>
      <contour>
        <pt x="403" y="46" on="0"/>
        <pt x="549" y="189" on="0"/>
        <pt x="549" y="498" on="0"/>
        <pt x="397" y="637" on="0"/>
        <pt x="242" y="632" on="1"/>
        <pt x="191" y="630" on="1"/>
        <pt x="190" y="630" on="1"/>
        <pt x="190" y="49" on="1"/>
        <pt x="263" y="48" on="1"/>
      </contour>
    </TTGlyph>
    <TTGlyph name="Dcaron" xMin="42" yMin="0" xMax="626" yMax="886">
      <contour>
        <pt x="42" y="0" on="1"/>
        <pt x="42" y="16" on="1"/>
        <pt x="42" y="27" on="0"/>
        <pt x="53" y="40" on="0"/>
        <pt x="59" y="42" on="0"/>
        <pt x="66" y="45" on="0"/>
        <pt x="71" y="45" on="1"/>
        <pt x="118" y="49" on="1"/>
        <pt x="118" y="628" on="1"/>
        <pt x="46" y="634" on="1"/>
        <pt x="43" y="679" on="0"/>
        <pt x="75" y="679" on="1"/>
        <pt x="284" y="679" on="1"/>
        <pt x="463" y="679" on="0"/>
        <pt x="626" y="515" on="0"/>
        <pt x="626" y="176" on="0"/>
        <pt x="452" y="0" on="0"/>
        <pt x="285" y="0" on="1"/>
      </contour>
      <contour>
        <pt x="403" y="46" on="0"/>
        <pt x="549" y="189" on="0"/>
        <pt x="549" y="498" on="0"/>
        <pt x="397" y="637" on="0"/>
        <pt x="242" y="632" on="1"/>
        <pt x="191" y="630" on="1"/>
        <pt x="190" y="630" on="1"/>
        <pt x="190" y="49" on="1"/>
        <pt x="263" y="48" on="1"/>
      </contour>
      <contour>
        <pt x="446" y="858" on="1"/>
        <pt x="315" y="737" on="1"/>
        <pt x="286" y="729" on="0"/>
        <pt x="253" y="737" on="1"/>
        <pt x="121" y="858" on="1"/>
        <pt x="134" y="878" on="0"/>
        <pt x="149" y="886" on="1"/>
        <pt x="283" y="799" on="1"/>
        <pt x="417" y="886" on="1"/>
        <pt x="432" y="878" on="0"/>
      </contour>
    </TTGlyph>
    <TTGlyph name="Dcroat" xMin="42" yMin="0" xMax="626" yMax="679">
      <contour>
        <pt x="42" y="0" on="1"/>
        <pt x="42" y="16" on="1"/>
        <pt x="42" y="27" on="0"/>
        <pt x="53" y="40" on="0"/>
        <pt x="59" y="42" on="0"/>
        <pt x="66" y="45" on="0"/>
        <pt x="71" y="45" on="1"/>
        <pt x="118" y="49" on="1"/>
        <pt x="118" y="312" on="1"/>
        <pt x="66" y="312" on="1"/>
        <pt x="66" y="363" on="1"/>
        <pt x="118" y="363" on="1"/>
        <pt x="118" y="628" on="1"/>
        <pt x="46" y="634" on="1"/>
        <pt x="43" y="679" on="0"/>
        <pt x="75" y="679" on="1"/>
        <pt x="284" y="679" on="1"/>
        <pt x="463" y="679" on="0"/>
        <pt x="626" y="515" on="0"/>
        <pt x="626" y="176" on="0"/>
        <pt x="452" y="0" on="0"/>
        <pt x="285" y="0" on="1"/>
      </contour>
      <contour>
        <pt x="403" y="46" on="0"/>
        <pt x="549" y="189" on="0"/>
        <pt x="549" y="498" on="0"/>
        <pt x="397" y="637" on="0"/>
        <pt x="242" y="632" on="1"/>
        <pt x="191" y="630" on="1"/>
        <pt x="190" y="630" on="1"/>
        <pt x="190" y="363" on="1"/>
        <pt x="370" y="363" on="1"/>
        <pt x="370" y="312" on="1"/>
        <pt x="190" y="312" on="1"/>
        <pt x="190" y="49" on="1"/>
        <pt x="263" y="48" on="1"/>
      </contour>
    </TTGlyph>
    <TTGlyph name="E" xMin="42" yMin="0" xMax="510" yMax="677">
      <contour>
        <pt x="42" y="0" on="1"/>
        <pt x="42" y="16" on="1"/>
        <pt x="42" y="38" on="0"/>
        <pt x="62" y="44" on="1"/>
        <pt x="67" y="46" on="0"/>
        <pt x="73" y="46" on="1"/>
        <pt x="119" y="48" on="1"/>
        <pt x="119" y="627" on="1"/>
        <pt x="46" y="633" on="1"/>
        <pt x="42" y="677" on="0"/>
        <pt x="74" y="677" on="1"/>
        <pt x="496" y="677" on="1"/>
        <pt x="496" y="536" on="1"/>
        <pt x="496" y="505" on="0"/>
        <pt x="452" y="509" on="1"/>
        <pt x="442" y="622" on="1"/>
        <pt x="191" y="627" on="1"/>
        <pt x="191" y="360" on="1"/>
        <pt x="383" y="373" on="1"/>
        <pt x="390" y="336" on="0"/>
        <pt x="383" y="301" on="1"/>
        <pt x="191" y="312" on="1"/>
        <pt x="191" y="50" on="1"/>
        <pt x="456" y="57" on="1"/>
        <pt x="466" y="163" on="1"/>
        <pt x="510" y="167" on="0"/>
        <pt x="510" y="136" on="1"/>
        <pt x="510" y="0" on="1"/>
      </contour>
    </TTGlyph>
    <TTGlyph name="Eacute" xMin="42" yMin="0" xMax="510" yMax="886">
      <contour>
        <pt x="453" y="836" on="1"/>
        <pt x="255" y="730" on="1"/>
        <pt x="237" y="738" on="0"/>
        <pt x="226" y="759" on="1"/>
        <pt x="390" y="886" on="1"/>
        <pt x="408" y="884" on="0"/>
        <pt x="444" y="854" on="0"/>
      </contour>
      <contour>
        <pt x="42" y="0" on="1"/>
        <pt x="42" y="16" on="1"/>
        <pt x="42" y="38" on="0"/>
        <pt x="62" y="44" on="1"/>
        <pt x="67" y="46" on="0"/>
        <pt x="73" y="46" on="1"/>
        <pt x="119" y="48" on="1"/>
        <pt x="119" y="627" on="1"/>
        <pt x="46" y="633" on="1"/>
        <pt x="42" y="677" on="0"/>
        <pt x="74" y="677" on="1"/>
        <pt x="496" y="677" on="1"/>
        <pt x="496" y="536" on="1"/>
        <pt x="496" y="505" on="0"/>
        <pt x="452" y="509" on="1"/>
        <pt x="442" y="622" on="1"/>
        <pt x="191" y="627" on="1"/>
        <pt x="191" y="360" on="1"/>
        <pt x="383" y="373" on="1"/>
        <pt x="390" y="336" on="0"/>
        <pt x="383" y="301" on="1"/>
        <pt x="191" y="312" on="1"/>
        <pt x="191" y="50" on="1"/>
        <pt x="456" y="57" on="1"/>
        <pt x="466" y="163" on="1"/>
        <pt x="510" y="167" on="0"/>
        <pt x="510" y="136" on="1"/>
        <pt x="510" y="0" on="1"/>
      </contour>
    </TTGlyph>
    <TTGlyph name="Ebreve" xMin="42" yMin="0" xMax="510" yMax="879">
      <contour>
        <pt x="42" y="0" on="1"/>
        <pt x="42" y="16" on="1"/>
        <pt x="42" y="38" on="0"/>
        <pt x="62" y="44" on="1"/>
        <pt x="67" y="46" on="0"/>
        <pt x="73" y="46" on="1"/>
        <pt x="119" y="48" on="1"/>
        <pt x="119" y="627" on="1"/>
        <pt x="46" y="633" on="1"/>
        <pt x="42" y="677" on="0"/>
        <pt x="74" y="677" on="1"/>
        <pt x="496" y="677" on="1"/>
        <pt x="496" y="536" on="1"/>
        <pt x="496" y="505" on="0"/>
        <pt x="452" y="509" on="1"/>
        <pt x="442" y="622" on="1"/>
        <pt x="191" y="627" on="1"/>
        <pt x="191" y="360" on="1"/>
        <pt x="383" y="373" on="1"/>
        <pt x="390" y="336" on="0"/>
        <pt x="383" y="301" on="1"/>
        <pt x="191" y="312" on="1"/>
        <pt x="191" y="50" on="1"/>
        <pt x="456" y="57" on="1"/>
        <pt x="466" y="163" on="1"/>
        <pt x="510" y="167" on="0"/>
        <pt x="510" y="136" on="1"/>
        <pt x="510" y="0" on="1"/>
      </contour>
      <contour>
        <pt x="306" y="800" on="1"/>
        <pt x="396" y="800" on="0"/>
        <pt x="426" y="878" on="1"/>
        <pt x="460" y="863" on="1"/>
        <pt x="453" y="813" on="0"/>
        <pt x="373" y="735" on="0"/>
        <pt x="237" y="735" on="0"/>
        <pt x="157" y="813" on="0"/>
        <pt x="150" y="863" on="1"/>
        <pt x="184" y="879" on="1"/>
        <pt x="195" y="850" on="0"/>
        <pt x="256" y="800" on="0"/>
      </contour>
    </TTGlyph>
    <TTGlyph name="Ecaron" xMin="42" yMin="0" xMax="510" yMax="884">
      <contour>
        <pt x="42" y="0" on="1"/>
        <pt x="42" y="16" on="1"/>
        <pt x="42" y="38" on="0"/>
        <pt x="62" y="44" on="1"/>
        <pt x="67" y="46" on="0"/>
        <pt x="73" y="46" on="1"/>
        <pt x="119" y="48" on="1"/>
        <pt x="119" y="627" on="1"/>
        <pt x="46" y="633" on="1"/>
        <pt x="42" y="677" on="0"/>
        <pt x="74" y="677" on="1"/>
        <pt x="496" y="677" on="1"/>
        <pt x="496" y="536" on="1"/>
        <pt x="496" y="505" on="0"/>
        <pt x="452" y="509" on="1"/>
        <pt x="442" y="622" on="1"/>
        <pt x="191" y="627" on="1"/>
        <pt x="191" y="360" on="1"/>
        <pt x="383" y="373" on="1"/>
        <pt x="390" y="336" on="0"/>
        <pt x="383" y="301" on="1"/>
        <pt x="191" y="312" on="1"/>
        <pt x="191" y="50" on="1"/>
        <pt x="456" y="57" on="1"/>
        <pt x="466" y="163" on="1"/>
        <pt x="510" y="167" on="0"/>
        <pt x="510" y="136" on="1"/>
        <pt x="510" y="0" on="1"/>
      </contour>
      <contour>
        <pt x="467" y="856" on="1"/>
        <pt x="336" y="735" on="1"/>
        <pt x="305" y="728" on="0"/>
        <pt x="274" y="735" on="1"/>
        <pt x="142" y="856" on="1"/>
        <pt x="154" y="877" on="0"/>
        <pt x="170" y="884" on="1"/>
        <pt x="305" y="796" on="1"/>
        <pt x="439" y="884" on="1"/>
        <pt x="456" y="876" on="0"/>
      </contour>
    </TTGlyph>
    <TTGlyph name="Ecircumflex" xMin="42" yMin="0" xMax="510" yMax="869">
      <contour>
        <pt x="42" y="0" on="1"/>
        <pt x="42" y="16" on="1"/>
        <pt x="42" y="38" on="0"/>
        <pt x="62" y="44" on="1"/>
        <pt x="67" y="46" on="0"/>
        <pt x="73" y="46" on="1"/>
        <pt x="119" y="48" on="1"/>
        <pt x="119" y="627" on="1"/>
        <pt x="46" y="633" on="1"/>
        <pt x="42" y="677" on="0"/>
        <pt x="74" y="677" on="1"/>
        <pt x="496" y="677" on="1"/>
        <pt x="496" y="536" on="1"/>
        <pt x="496" y="505" on="0"/>
        <pt x="452" y="509" on="1"/>
        <pt x="442" y="622" on="1"/>
        <pt x="191" y="627" on="1"/>
        <pt x="191" y="360" on="1"/>
        <pt x="383" y="373" on="1"/>
        <pt x="390" y="336" on="0"/>
        <pt x="383" y="301" on="1"/>
        <pt x="191" y="312" on="1"/>
        <pt x="191" y="50" on="1"/>
        <pt x="456" y="57" on="1"/>
        <pt x="466" y="163" on="1"/>
        <pt x="510" y="167" on="0"/>
        <pt x="510" y="136" on="1"/>
        <pt x="510" y="0" on="1"/>
      </contour>
      <contour>
        <pt x="305" y="808" on="1"/>
        <pt x="171" y="720" on="1"/>
        <pt x="154" y="729" on="0"/>
        <pt x="143" y="748" on="1"/>
        <pt x="275" y="869" on="1"/>
        <pt x="308" y="877" on="0"/>
        <pt x="337" y="869" on="1"/>
        <pt x="468" y="748" on="1"/>
        <pt x="453" y="726" on="0"/>
        <pt x="439" y="720" on="1"/>
      </contour>
    </TTGlyph>
    <TTGlyph name="Edieresis" xMin="42" yMin="0" xMax="510" yMax="855">
      <contour>
        <pt x="439" y="781" on="0"/>
        <pt x="408" y="751" on="0"/>
        <pt x="365" y="751" on="0"/>
        <pt x="335" y="781" on="0"/>
        <pt x="335" y="824" on="0"/>
        <pt x="365" y="855" on="0"/>
        <pt x="408" y="855" on="0"/>
        <pt x="439" y="824" on="0"/>
      </contour>
      <contour>
        <pt x="274" y="781" on="0"/>
        <pt x="244" y="751" on="0"/>
        <pt x="201" y="751" on="0"/>
        <pt x="170" y="781" on="0"/>
        <pt x="170" y="824" on="0"/>
        <pt x="201" y="855" on="0"/>
        <pt x="244" y="855" on="0"/>
        <pt x="274" y="824" on="0"/>
      </contour>
      <contour>
        <pt x="42" y="0" on="1"/>
        <pt x="42" y="16" on="1"/>
        <pt x="42" y="38" on="0"/>
        <pt x="62" y="44" on="1"/>
        <pt x="67" y="46" on="0"/>
        <pt x="73" y="46" on="1"/>
        <pt x="119" y="48" on="1"/>
        <pt x="119" y="627" on="1"/>
        <pt x="46" y="633" on="1"/>
        <pt x="42" y="677" on="0"/>
        <pt x="74" y="677" on="1"/>
        <pt x="496" y="677" on="1"/>
        <pt x="496" y="536" on="1"/>
        <pt x="496" y="505" on="0"/>
        <pt x="452" y="509" on="1"/>
        <pt x="442" y="622" on="1"/>
        <pt x="191" y="627" on="1"/>
        <pt x="191" y="360" on="1"/>
        <pt x="383" y="373" on="1"/>
        <pt x="390" y="336" on="0"/>
        <pt x="383" y="301" on="1"/>
        <pt x="191" y="312" on="1"/>
        <pt x="191" y="50" on="1"/>
        <pt x="456" y="57" on="1"/>
        <pt x="466" y="163" on="1"/>
        <pt x="510" y="167" on="0"/>
        <pt x="510" y="136" on="1"/>
        <pt x="510" y="0" on="1"/>
      </contour>
    </TTGlyph>
    <TTGlyph name="Edotaccent" xMin="42" yMin="0" xMax="510" yMax="885">
      <contour>
        <pt x="327" y="786" on="0"/>
        <pt x="283" y="786" on="0"/>
        <pt x="255" y="814" on="0"/>
        <pt x="255" y="858" on="0"/>
        <pt x="283" y="885" on="0"/>
        <pt x="327" y="885" on="0"/>
        <pt x="354" y="858" on="0"/>
        <pt x="354" y="814" on="0"/>
      </contour>
      <contour>
        <pt x="42" y="0" on="1"/>
        <pt x="42" y="16" on="1"/>
        <pt x="42" y="38" on="0"/>
        <pt x="62" y="44" on="1"/>
        <pt x="67" y="46" on="0"/>
        <pt x="73" y="46" on="1"/>
        <pt x="119" y="48" on="1"/>
        <pt x="119" y="627" on="1"/>
        <pt x="46" y="633" on="1"/>
        <pt x="42" y="677" on="0"/>
        <pt x="74" y="677" on="1"/>
        <pt x="496" y="677" on="1"/>
        <pt x="496" y="536" on="1"/>
        <pt x="496" y="505" on="0"/>
        <pt x="452" y="509" on="1"/>
        <pt x="442" y="622" on="1"/>
        <pt x="191" y="627" on="1"/>
        <pt x="191" y="360" on="1"/>
        <pt x="383" y="373" on="1"/>
        <pt x="390" y="336" on="0"/>
        <pt x="383" y="301" on="1"/>
        <pt x="191" y="312" on="1"/>
        <pt x="191" y="50" on="1"/>
        <pt x="456" y="57" on="1"/>
        <pt x="466" y="163" on="1"/>
        <pt x="510" y="167" on="0"/>
        <pt x="510" y="136" on="1"/>
        <pt x="510" y="0" on="1"/>
      </contour>
    </TTGlyph>
    <TTGlyph name="Egrave" xMin="42" yMin="0" xMax="510" yMax="878">
      <contour>
        <pt x="373" y="722" on="1"/>
        <pt x="174" y="829" on="1"/>
        <pt x="183" y="846" on="0"/>
        <pt x="219" y="876" on="0"/>
        <pt x="237" y="878" on="1"/>
        <pt x="402" y="751" on="1"/>
        <pt x="391" y="731" on="0"/>
      </contour>
      <contour>
        <pt x="42" y="0" on="1"/>
        <pt x="42" y="16" on="1"/>
        <pt x="42" y="38" on="0"/>
        <pt x="62" y="44" on="1"/>
        <pt x="67" y="46" on="0"/>
        <pt x="73" y="46" on="1"/>
        <pt x="119" y="48" on="1"/>
        <pt x="119" y="627" on="1"/>
        <pt x="46" y="633" on="1"/>
        <pt x="42" y="677" on="0"/>
        <pt x="74" y="677" on="1"/>
        <pt x="496" y="677" on="1"/>
        <pt x="496" y="536" on="1"/>
        <pt x="496" y="505" on="0"/>
        <pt x="452" y="509" on="1"/>
        <pt x="442" y="622" on="1"/>
        <pt x="191" y="627" on="1"/>
        <pt x="191" y="360" on="1"/>
        <pt x="383" y="373" on="1"/>
        <pt x="390" y="336" on="0"/>
        <pt x="383" y="301" on="1"/>
        <pt x="191" y="312" on="1"/>
        <pt x="191" y="50" on="1"/>
        <pt x="456" y="57" on="1"/>
        <pt x="466" y="163" on="1"/>
        <pt x="510" y="167" on="0"/>
        <pt x="510" y="136" on="1"/>
        <pt x="510" y="0" on="1"/>
      </contour>
    </TTGlyph>
    <TTGlyph name="Emacron" xMin="42" yMin="0" xMax="510" yMax="822">
      <contour>
        <pt x="173" y="822" on="1"/>
        <pt x="436" y="822" on="1"/>
        <pt x="436" y="766" on="1"/>
        <pt x="173" y="766" on="1"/>
      </contour>
      <contour>
        <pt x="42" y="0" on="1"/>
        <pt x="42" y="16" on="1"/>
        <pt x="42" y="38" on="0"/>
        <pt x="62" y="44" on="1"/>
        <pt x="67" y="46" on="0"/>
        <pt x="73" y="46" on="1"/>
        <pt x="119" y="48" on="1"/>
        <pt x="119" y="627" on="1"/>
        <pt x="46" y="633" on="1"/>
        <pt x="42" y="677" on="0"/>
        <pt x="74" y="677" on="1"/>
        <pt x="496" y="677" on="1"/>
        <pt x="496" y="536" on="1"/>
        <pt x="496" y="505" on="0"/>
        <pt x="452" y="509" on="1"/>
        <pt x="442" y="622" on="1"/>
        <pt x="191" y="627" on="1"/>
        <pt x="191" y="360" on="1"/>
        <pt x="383" y="373" on="1"/>
        <pt x="390" y="336" on="0"/>
        <pt x="383" y="301" on="1"/>
        <pt x="191" y="312" on="1"/>
        <pt x="191" y="50" on="1"/>
        <pt x="456" y="57" on="1"/>
        <pt x="466" y="163" on="1"/>
        <pt x="510" y="167" on="0"/>
        <pt x="510" y="136" on="1"/>
        <pt x="510" y="0" on="1"/>
      </contour>
    </TTGlyph>
    <TTGlyph name="Eng" xMin="42" yMin="-179" xMax="662" yMax="677">
      <contour>
        <pt x="483" y="677" on="1"/>
        <pt x="662" y="677" on="1"/>
        <pt x="662" y="677" on="0"/>
        <pt x="662" y="669" on="1"/>
        <pt x="662" y="643" on="0"/>
        <pt x="647" y="636" on="1"/>
        <pt x="640" y="632" on="0"/>
        <pt x="630" y="631" on="1"/>
        <pt x="583" y="629" on="1"/>
        <pt x="583" y="17" on="1"/>
        <pt x="583" y="-64" on="0"/>
        <pt x="509" y="-179" on="0"/>
        <pt x="438" y="-179" on="1"/>
        <pt x="404" y="-179" on="0"/>
        <pt x="357" y="-144" on="0"/>
        <pt x="357" y="-121" on="1"/>
        <pt x="357" y="-73" on="0"/>
        <pt x="405" y="-75" on="1"/>
        <pt x="408" y="-124" on="0"/>
        <pt x="455" y="-124" on="1"/>
        <pt x="526" y="-124" on="0"/>
        <pt x="528" y="5" on="1"/>
        <pt x="174" y="549" on="1"/>
        <pt x="174" y="50" on="1"/>
        <pt x="248" y="44" on="1"/>
        <pt x="252" y="0" on="0"/>
        <pt x="220" y="0" on="1"/>
        <pt x="42" y="0" on="1"/>
        <pt x="42" y="8" on="1"/>
        <pt x="42" y="34" on="0"/>
        <pt x="56" y="42" on="1"/>
        <pt x="63" y="45" on="0"/>
        <pt x="73" y="46" on="1"/>
        <pt x="119" y="48" on="1"/>
        <pt x="119" y="627" on="1"/>
        <pt x="46" y="633" on="1"/>
        <pt x="42" y="677" on="0"/>
        <pt x="73" y="677" on="1"/>
        <pt x="179" y="677" on="1"/>
        <pt x="529" y="137" on="1"/>
        <pt x="529" y="627" on="1"/>
        <pt x="456" y="633" on="1"/>
        <pt x="452" y="677" on="0"/>
      </contour>
    </TTGlyph>
    <TTGlyph name="Eogonek" xMin="42" yMin="-161" xMax="594" yMax="677">
      <contour>
        <pt x="42" y="0" on="1"/>
        <pt x="42" y="16" on="1"/>
        <pt x="42" y="38" on="0"/>
        <pt x="62" y="44" on="1"/>
        <pt x="67" y="46" on="0"/>
        <pt x="73" y="46" on="1"/>
        <pt x="119" y="48" on="1"/>
        <pt x="119" y="627" on="1"/>
        <pt x="46" y="633" on="1"/>
        <pt x="42" y="677" on="0"/>
        <pt x="74" y="677" on="1"/>
        <pt x="496" y="677" on="1"/>
        <pt x="496" y="536" on="1"/>
        <pt x="496" y="505" on="0"/>
        <pt x="452" y="509" on="1"/>
        <pt x="442" y="622" on="1"/>
        <pt x="191" y="627" on="1"/>
        <pt x="191" y="360" on="1"/>
        <pt x="383" y="373" on="1"/>
        <pt x="390" y="336" on="0"/>
        <pt x="383" y="301" on="1"/>
        <pt x="191" y="312" on="1"/>
        <pt x="191" y="50" on="1"/>
        <pt x="456" y="57" on="1"/>
        <pt x="466" y="163" on="1"/>
        <pt x="510" y="167" on="0"/>
        <pt x="510" y="136" on="1"/>
        <pt x="510" y="27" on="1"/>
        <pt x="516" y="30" on="0"/>
        <pt x="538" y="37" on="1"/>
        <pt x="556" y="13" on="1"/>
        <pt x="480" y="-16" on="0"/>
        <pt x="480" y="-117" on="0"/>
        <pt x="530" y="-117" on="1"/>
        <pt x="558" y="-117" on="0"/>
        <pt x="587" y="-95" on="1"/>
        <pt x="591" y="-98" on="0"/>
        <pt x="596" y="-120" on="0"/>
        <pt x="594" y="-126" on="1"/>
        <pt x="583" y="-141" on="0"/>
        <pt x="537" y="-161" on="0"/>
        <pt x="471" y="-161" on="0"/>
        <pt x="421" y="-120" on="0"/>
        <pt x="421" y="-36" on="0"/>
        <pt x="465" y="0" on="1"/>
      </contour>
    </TTGlyph>
    <TTGlyph name="Eth" xMin="42" yMin="0" xMax="626" yMax="679">
      <contour>
        <pt x="42" y="0" on="1"/>
        <pt x="42" y="16" on="1"/>
        <pt x="42" y="27" on="0"/>
        <pt x="53" y="40" on="0"/>
        <pt x="59" y="42" on="0"/>
        <pt x="66" y="45" on="0"/>
        <pt x="71" y="45" on="1"/>
        <pt x="118" y="49" on="1"/>
        <pt x="118" y="312" on="1"/>
        <pt x="66" y="312" on="1"/>
        <pt x="66" y="363" on="1"/>
        <pt x="118" y="363" on="1"/>
        <pt x="118" y="628" on="1"/>
        <pt x="46" y="634" on="1"/>
        <pt x="43" y="679" on="0"/>
        <pt x="75" y="679" on="1"/>
        <pt x="284" y="679" on="1"/>
        <pt x="463" y="679" on="0"/>
        <pt x="626" y="515" on="0"/>
        <pt x="626" y="176" on="0"/>
        <pt x="452" y="0" on="0"/>
        <pt x="285" y="0" on="1"/>
      </contour>
      <contour>
        <pt x="403" y="46" on="0"/>
        <pt x="549" y="189" on="0"/>
        <pt x="549" y="498" on="0"/>
        <pt x="397" y="637" on="0"/>
        <pt x="242" y="632" on="1"/>
        <pt x="191" y="630" on="1"/>
        <pt x="190" y="630" on="1"/>
        <pt x="190" y="363" on="1"/>
        <pt x="370" y="363" on="1"/>
        <pt x="370" y="312" on="1"/>
        <pt x="190" y="312" on="1"/>
        <pt x="190" y="49" on="1"/>
        <pt x="263" y="48" on="1"/>
      </contour>
    </TTGlyph>
    <TTGlyph name="Euro" xMin="38" yMin="-16" xMax="495" yMax="622">
      <contour>
        <pt x="365" y="222" on="1"/>
        <pt x="173" y="222" on="1"/>
        <pt x="186" y="133" on="0"/>
        <pt x="272" y="34" on="0"/>
        <pt x="418" y="34" on="0"/>
        <pt x="484" y="94" on="1"/>
        <pt x="495" y="87" on="0"/>
        <pt x="495" y="73" on="1"/>
        <pt x="495" y="42" on="0"/>
        <pt x="392" y="-16" on="0"/>
        <pt x="325" y="-16" on="1"/>
        <pt x="232" y="-16" on="0"/>
        <pt x="114" y="110" on="0"/>
        <pt x="100" y="222" on="1"/>
        <pt x="38" y="222" on="1"/>
        <pt x="38" y="271" on="1"/>
        <pt x="96" y="271" on="1"/>
        <pt x="96" y="293" on="1"/>
        <pt x="96" y="312" on="0"/>
        <pt x="97" y="322" on="1"/>
        <pt x="38" y="322" on="1"/>
        <pt x="38" y="372" on="1"/>
        <pt x="101" y="372" on="1"/>
        <pt x="117" y="487" on="0"/>
        <pt x="239" y="622" on="0"/>
        <pt x="341" y="622" on="1"/>
        <pt x="409" y="622" on="0"/>
        <pt x="492" y="559" on="0"/>
        <pt x="492" y="511" on="1"/>
        <pt x="492" y="459" on="0"/>
        <pt x="434" y="455" on="1"/>
        <pt x="434" y="508" on="0"/>
        <pt x="376" y="573" on="0"/>
        <pt x="267" y="573" on="0"/>
        <pt x="184" y="465" on="0"/>
        <pt x="172" y="372" on="1"/>
        <pt x="365" y="372" on="1"/>
        <pt x="365" y="322" on="1"/>
        <pt x="168" y="322" on="1"/>
        <pt x="168" y="301" on="1"/>
        <pt x="168" y="281" on="0"/>
        <pt x="169" y="271" on="1"/>
        <pt x="365" y="271" on="1"/>
      </contour>
    </TTGlyph>
    <TTGlyph name="F" xMin="42" yMin="0" xMax="495" yMax="677">
      <contour>
        <pt x="495" y="677" on="1"/>
        <pt x="495" y="543" on="1"/>
        <pt x="495" y="513" on="0"/>
        <pt x="451" y="517" on="1"/>
        <pt x="440" y="626" on="1"/>
        <pt x="192" y="627" on="1"/>
        <pt x="192" y="371" on="1"/>
        <pt x="384" y="384" on="1"/>
        <pt x="390" y="350" on="0"/>
        <pt x="384" y="312" on="1"/>
        <pt x="192" y="323" on="1"/>
        <pt x="192" y="50" on="1"/>
        <pt x="279" y="44" on="1"/>
        <pt x="283" y="0" on="0"/>
        <pt x="252" y="0" on="1"/>
        <pt x="42" y="0" on="1"/>
        <pt x="42" y="0" on="0"/>
        <pt x="42" y="8" on="1"/>
        <pt x="42" y="34" on="0"/>
        <pt x="56" y="42" on="1"/>
        <pt x="63" y="45" on="0"/>
        <pt x="73" y="46" on="1"/>
        <pt x="119" y="48" on="1"/>
        <pt x="119" y="627" on="1"/>
        <pt x="46" y="633" on="1"/>
        <pt x="42" y="677" on="0"/>
        <pt x="74" y="677" on="1"/>
      </contour>
    </TTGlyph>
    <TTGlyph name="G" xMin="39" yMin="-15" xMax="611" yMax="694">
      <contour>
        <pt x="401" y="306" on="1"/>
        <pt x="611" y="306" on="1"/>
        <pt x="611" y="298" on="1"/>
        <pt x="611" y="263" on="0"/>
        <pt x="580" y="260" on="1"/>
        <pt x="555" y="257" on="1"/>
        <pt x="553" y="257" on="1"/>
        <pt x="553" y="71" on="1"/>
        <pt x="520" y="32" on="0"/>
        <pt x="388" y="-15" on="0"/>
        <pt x="318" y="-15" on="1"/>
        <pt x="188" y="-15" on="0"/>
        <pt x="43" y="158" on="0"/>
        <pt x="35" y="485" on="0"/>
        <pt x="199" y="694" on="0"/>
        <pt x="351" y="694" on="1"/>
        <pt x="452" y="694" on="0"/>
        <pt x="553" y="618" on="0"/>
        <pt x="553" y="566" on="1"/>
        <pt x="553" y="541" on="0"/>
        <pt x="524" y="506" on="0"/>
        <pt x="491" y="506" on="1"/>
        <pt x="491" y="642" on="0"/>
        <pt x="337" y="642" on="1"/>
        <pt x="228" y="642" on="0"/>
        <pt x="115" y="475" on="0"/>
        <pt x="115" y="199" on="0"/>
        <pt x="220" y="41" on="0"/>
        <pt x="335" y="41" on="1"/>
        <pt x="432" y="41" on="0"/>
        <pt x="486" y="87" on="1"/>
        <pt x="486" y="255" on="1"/>
        <pt x="374" y="261" on="1"/>
        <pt x="370" y="306" on="0"/>
      </contour>
    </TTGlyph>
    <TTGlyph name="Gbreve" xMin="39" yMin="-15" xMax="611" yMax="879">
      <contour>
        <pt x="401" y="306" on="1"/>
        <pt x="611" y="306" on="1"/>
        <pt x="611" y="298" on="1"/>
        <pt x="611" y="263" on="0"/>
        <pt x="580" y="260" on="1"/>
        <pt x="555" y="257" on="1"/>
        <pt x="553" y="257" on="1"/>
        <pt x="553" y="71" on="1"/>
        <pt x="520" y="32" on="0"/>
        <pt x="388" y="-15" on="0"/>
        <pt x="318" y="-15" on="1"/>
        <pt x="188" y="-15" on="0"/>
        <pt x="43" y="158" on="0"/>
        <pt x="35" y="485" on="0"/>
        <pt x="199" y="694" on="0"/>
        <pt x="351" y="694" on="1"/>
        <pt x="452" y="694" on="0"/>
        <pt x="553" y="618" on="0"/>
        <pt x="553" y="566" on="1"/>
        <pt x="553" y="541" on="0"/>
        <pt x="524" y="506" on="0"/>
        <pt x="491" y="506" on="1"/>
        <pt x="491" y="642" on="0"/>
        <pt x="337" y="642" on="1"/>
        <pt x="228" y="642" on="0"/>
        <pt x="115" y="475" on="0"/>
        <pt x="115" y="199" on="0"/>
        <pt x="220" y="41" on="0"/>
        <pt x="335" y="41" on="1"/>
        <pt x="432" y="41" on="0"/>
        <pt x="486" y="87" on="1"/>
        <pt x="486" y="255" on="1"/>
        <pt x="374" y="261" on="1"/>
        <pt x="370" y="306" on="0"/>
      </contour>
      <contour>
        <pt x="393" y="735" on="0"/>
        <pt x="257" y="735" on="0"/>
        <pt x="177" y="813" on="0"/>
        <pt x="170" y="863" on="1"/>
        <pt x="204" y="879" on="1"/>
        <pt x="215" y="850" on="0"/>
        <pt x="276" y="800" on="0"/>
        <pt x="326" y="800" on="1"/>
        <pt x="416" y="800" on="0"/>
        <pt x="446" y="878" on="1"/>
        <pt x="480" y="863" on="1"/>
        <pt x="472" y="813" on="0"/>
      </contour>
    </TTGlyph>
    <TTGlyph name="Gcircumflex" xMin="39" yMin="-15" xMax="611" yMax="869">
      <contour>
        <pt x="401" y="306" on="1"/>
        <pt x="611" y="306" on="1"/>
        <pt x="611" y="298" on="1"/>
        <pt x="611" y="263" on="0"/>
        <pt x="580" y="260" on="1"/>
        <pt x="555" y="257" on="1"/>
        <pt x="553" y="257" on="1"/>
        <pt x="553" y="71" on="1"/>
        <pt x="520" y="32" on="0"/>
        <pt x="388" y="-15" on="0"/>
        <pt x="318" y="-15" on="1"/>
        <pt x="188" y="-15" on="0"/>
        <pt x="43" y="158" on="0"/>
        <pt x="35" y="485" on="0"/>
        <pt x="199" y="694" on="0"/>
        <pt x="351" y="694" on="1"/>
        <pt x="452" y="694" on="0"/>
        <pt x="553" y="618" on="0"/>
        <pt x="553" y="566" on="1"/>
        <pt x="553" y="541" on="0"/>
        <pt x="524" y="506" on="0"/>
        <pt x="491" y="506" on="1"/>
        <pt x="491" y="642" on="0"/>
        <pt x="337" y="642" on="1"/>
        <pt x="228" y="642" on="0"/>
        <pt x="115" y="475" on="0"/>
        <pt x="115" y="199" on="0"/>
        <pt x="220" y="41" on="0"/>
        <pt x="335" y="41" on="1"/>
        <pt x="432" y="41" on="0"/>
        <pt x="486" y="87" on="1"/>
        <pt x="486" y="255" on="1"/>
        <pt x="374" y="261" on="1"/>
        <pt x="370" y="306" on="0"/>
      </contour>
      <contour>
        <pt x="325" y="808" on="1"/>
        <pt x="191" y="720" on="1"/>
        <pt x="174" y="729" on="0"/>
        <pt x="163" y="748" on="1"/>
        <pt x="295" y="869" on="1"/>
        <pt x="328" y="877" on="0"/>
        <pt x="356" y="869" on="1"/>
        <pt x="487" y="748" on="1"/>
        <pt x="476" y="729" on="0"/>
        <pt x="459" y="720" on="1"/>
      </contour>
    </TTGlyph>
    <TTGlyph name="Gdotaccent" xMin="39" yMin="-15" xMax="611" yMax="885">
      <contour>
        <pt x="401" y="306" on="1"/>
        <pt x="611" y="306" on="1"/>
        <pt x="611" y="298" on="1"/>
        <pt x="611" y="263" on="0"/>
        <pt x="580" y="260" on="1"/>
        <pt x="555" y="257" on="1"/>
        <pt x="553" y="257" on="1"/>
        <pt x="553" y="71" on="1"/>
        <pt x="520" y="32" on="0"/>
        <pt x="388" y="-15" on="0"/>
        <pt x="318" y="-15" on="1"/>
        <pt x="188" y="-15" on="0"/>
        <pt x="43" y="158" on="0"/>
        <pt x="35" y="485" on="0"/>
        <pt x="199" y="694" on="0"/>
        <pt x="351" y="694" on="1"/>
        <pt x="452" y="694" on="0"/>
        <pt x="553" y="618" on="0"/>
        <pt x="553" y="566" on="1"/>
        <pt x="553" y="541" on="0"/>
        <pt x="524" y="506" on="0"/>
        <pt x="491" y="506" on="1"/>
        <pt x="491" y="642" on="0"/>
        <pt x="337" y="642" on="1"/>
        <pt x="228" y="642" on="0"/>
        <pt x="115" y="475" on="0"/>
        <pt x="115" y="199" on="0"/>
        <pt x="220" y="41" on="0"/>
        <pt x="335" y="41" on="1"/>
        <pt x="432" y="41" on="0"/>
        <pt x="486" y="87" on="1"/>
        <pt x="486" y="255" on="1"/>
        <pt x="374" y="261" on="1"/>
        <pt x="370" y="306" on="0"/>
      </contour>
      <contour>
        <pt x="346" y="786" on="0"/>
        <pt x="302" y="786" on="0"/>
        <pt x="275" y="814" on="0"/>
        <pt x="275" y="858" on="0"/>
        <pt x="302" y="885" on="0"/>
        <pt x="346" y="885" on="0"/>
        <pt x="374" y="858" on="0"/>
        <pt x="374" y="814" on="0"/>
      </contour>
    </TTGlyph>
    <TTGlyph name="H" xMin="42" yMin="0" xMax="671" yMax="677">
      <contour>
        <pt x="640" y="0" on="1"/>
        <pt x="446" y="0" on="1"/>
        <pt x="446" y="8" on="1"/>
        <pt x="446" y="34" on="0"/>
        <pt x="460" y="42" on="1"/>
        <pt x="467" y="45" on="0"/>
        <pt x="477" y="46" on="1"/>
        <pt x="522" y="48" on="1"/>
        <pt x="522" y="314" on="1"/>
        <pt x="191" y="314" on="1"/>
        <pt x="191" y="50" on="1"/>
        <pt x="264" y="44" on="1"/>
        <pt x="268" y="0" on="0"/>
        <pt x="237" y="0" on="1"/>
        <pt x="42" y="0" on="1"/>
        <pt x="42" y="8" on="1"/>
        <pt x="42" y="34" on="0"/>
        <pt x="56" y="42" on="1"/>
        <pt x="63" y="45" on="0"/>
        <pt x="73" y="46" on="1"/>
        <pt x="119" y="48" on="1"/>
        <pt x="119" y="627" on="1"/>
        <pt x="46" y="633" on="1"/>
        <pt x="42" y="677" on="0"/>
        <pt x="73" y="677" on="1"/>
        <pt x="268" y="677" on="1"/>
        <pt x="268" y="669" on="1"/>
        <pt x="268" y="642" on="0"/>
        <pt x="254" y="636" on="1"/>
        <pt x="247" y="632" on="0"/>
        <pt x="237" y="631" on="1"/>
        <pt x="191" y="629" on="1"/>
        <pt x="191" y="363" on="1"/>
        <pt x="522" y="363" on="1"/>
        <pt x="522" y="627" on="1"/>
        <pt x="450" y="633" on="1"/>
        <pt x="446" y="677" on="0"/>
        <pt x="477" y="677" on="1"/>
        <pt x="671" y="677" on="1"/>
        <pt x="671" y="669" on="1"/>
        <pt x="671" y="642" on="0"/>
        <pt x="657" y="636" on="1"/>
        <pt x="650" y="632" on="0"/>
        <pt x="640" y="631" on="1"/>
        <pt x="595" y="629" on="1"/>
        <pt x="595" y="50" on="1"/>
        <pt x="667" y="44" on="1"/>
        <pt x="671" y="0" on="0"/>
      </contour>
    </TTGlyph>
    <TTGlyph name="Hbar" xMin="42" yMin="0" xMax="671" yMax="677">
      <contour>
        <pt x="640" y="0" on="1"/>
        <pt x="446" y="0" on="1"/>
        <pt x="446" y="8" on="1"/>
        <pt x="446" y="34" on="0"/>
        <pt x="460" y="42" on="1"/>
        <pt x="467" y="45" on="0"/>
        <pt x="477" y="46" on="1"/>
        <pt x="522" y="48" on="1"/>
        <pt x="522" y="314" on="1"/>
        <pt x="191" y="314" on="1"/>
        <pt x="191" y="50" on="1"/>
        <pt x="264" y="44" on="1"/>
        <pt x="268" y="0" on="0"/>
        <pt x="237" y="0" on="1"/>
        <pt x="42" y="0" on="1"/>
        <pt x="42" y="8" on="1"/>
        <pt x="42" y="34" on="0"/>
        <pt x="56" y="42" on="1"/>
        <pt x="63" y="45" on="0"/>
        <pt x="73" y="46" on="1"/>
        <pt x="119" y="48" on="1"/>
        <pt x="119" y="459" on="1"/>
        <pt x="51" y="459" on="1"/>
        <pt x="51" y="509" on="1"/>
        <pt x="119" y="509" on="1"/>
        <pt x="119" y="627" on="1"/>
        <pt x="46" y="633" on="1"/>
        <pt x="42" y="677" on="0"/>
        <pt x="73" y="677" on="1"/>
        <pt x="268" y="677" on="1"/>
        <pt x="268" y="669" on="1"/>
        <pt x="268" y="642" on="0"/>
        <pt x="254" y="636" on="1"/>
        <pt x="247" y="632" on="0"/>
        <pt x="237" y="631" on="1"/>
        <pt x="191" y="629" on="1"/>
        <pt x="191" y="509" on="1"/>
        <pt x="522" y="509" on="1"/>
        <pt x="522" y="627" on="1"/>
        <pt x="450" y="633" on="1"/>
        <pt x="446" y="677" on="0"/>
        <pt x="477" y="677" on="1"/>
        <pt x="671" y="677" on="1"/>
        <pt x="671" y="669" on="1"/>
        <pt x="671" y="642" on="0"/>
        <pt x="657" y="636" on="1"/>
        <pt x="650" y="632" on="0"/>
        <pt x="640" y="631" on="1"/>
        <pt x="595" y="629" on="1"/>
        <pt x="595" y="509" on="1"/>
        <pt x="659" y="509" on="1"/>
        <pt x="659" y="459" on="1"/>
        <pt x="595" y="459" on="1"/>
        <pt x="595" y="50" on="1"/>
        <pt x="667" y="44" on="1"/>
        <pt x="671" y="0" on="0"/>
      </contour>
      <contour>
        <pt x="191" y="363" on="1"/>
        <pt x="522" y="363" on="1"/>
        <pt x="522" y="459" on="1"/>
        <pt x="191" y="459" on="1"/>
      </contour>
    </TTGlyph>
    <TTGlyph name="Hcircumflex" xMin="42" yMin="0" xMax="671" yMax="869">
      <contour>
        <pt x="640" y="0" on="1"/>
        <pt x="446" y="0" on="1"/>
        <pt x="446" y="8" on="1"/>
        <pt x="446" y="34" on="0"/>
        <pt x="460" y="42" on="1"/>
        <pt x="467" y="45" on="0"/>
        <pt x="477" y="46" on="1"/>
        <pt x="522" y="48" on="1"/>
        <pt x="522" y="314" on="1"/>
        <pt x="191" y="314" on="1"/>
        <pt x="191" y="50" on="1"/>
        <pt x="264" y="44" on="1"/>
        <pt x="268" y="0" on="0"/>
        <pt x="237" y="0" on="1"/>
        <pt x="42" y="0" on="1"/>
        <pt x="42" y="8" on="1"/>
        <pt x="42" y="34" on="0"/>
        <pt x="56" y="42" on="1"/>
        <pt x="63" y="45" on="0"/>
        <pt x="73" y="46" on="1"/>
        <pt x="119" y="48" on="1"/>
        <pt x="119" y="627" on="1"/>
        <pt x="46" y="633" on="1"/>
        <pt x="42" y="677" on="0"/>
        <pt x="73" y="677" on="1"/>
        <pt x="268" y="677" on="1"/>
        <pt x="268" y="669" on="1"/>
        <pt x="268" y="642" on="0"/>
        <pt x="254" y="636" on="1"/>
        <pt x="247" y="632" on="0"/>
        <pt x="237" y="631" on="1"/>
        <pt x="191" y="629" on="1"/>
        <pt x="191" y="363" on="1"/>
        <pt x="522" y="363" on="1"/>
        <pt x="522" y="627" on="1"/>
        <pt x="450" y="633" on="1"/>
        <pt x="446" y="677" on="0"/>
        <pt x="477" y="677" on="1"/>
        <pt x="671" y="677" on="1"/>
        <pt x="671" y="669" on="1"/>
        <pt x="671" y="642" on="0"/>
        <pt x="657" y="636" on="1"/>
        <pt x="650" y="632" on="0"/>
        <pt x="640" y="631" on="1"/>
        <pt x="595" y="629" on="1"/>
        <pt x="595" y="50" on="1"/>
        <pt x="667" y="44" on="1"/>
        <pt x="671" y="0" on="0"/>
      </contour>
      <contour>
        <pt x="360" y="808" on="1"/>
        <pt x="226" y="720" on="1"/>
        <pt x="208" y="729" on="0"/>
        <pt x="198" y="748" on="1"/>
        <pt x="330" y="869" on="1"/>
        <pt x="363" y="877" on="0"/>
        <pt x="391" y="869" on="1"/>
        <pt x="522" y="748" on="1"/>
        <pt x="511" y="729" on="0"/>
        <pt x="494" y="720" on="1"/>
      </contour>
    </TTGlyph>
    <TTGlyph name="I" xMin="42" yMin="0" xMax="268" yMax="677">
      <contour>
        <pt x="237" y="0" on="1"/>
        <pt x="42" y="0" on="1"/>
        <pt x="42" y="8" on="1"/>
        <pt x="42" y="34" on="0"/>
        <pt x="56" y="42" on="1"/>
        <pt x="63" y="45" on="0"/>
        <pt x="73" y="46" on="1"/>
        <pt x="119" y="48" on="1"/>
        <pt x="119" y="627" on="1"/>
        <pt x="46" y="633" on="1"/>
        <pt x="42" y="677" on="0"/>
        <pt x="73" y="677" on="1"/>
        <pt x="268" y="677" on="1"/>
        <pt x="268" y="669" on="1"/>
        <pt x="268" y="642" on="0"/>
        <pt x="254" y="636" on="1"/>
        <pt x="247" y="632" on="0"/>
        <pt x="237" y="631" on="1"/>
        <pt x="191" y="629" on="1"/>
        <pt x="191" y="50" on="1"/>
        <pt x="264" y="44" on="1"/>
        <pt x="268" y="0" on="0"/>
      </contour>
    </TTGlyph>
    <TTGlyph name="IJ" xMin="42" yMin="-112" xMax="544" yMax="679">
      <contour>
        <pt x="341" y="679" on="1"/>
        <pt x="544" y="679" on="1"/>
        <pt x="544" y="679" on="0"/>
        <pt x="544" y="671" on="1"/>
        <pt x="544" y="644" on="0"/>
        <pt x="530" y="638" on="1"/>
        <pt x="522" y="634" on="0"/>
        <pt x="471" y="630" on="1"/>
        <pt x="470" y="630" on="1"/>
        <pt x="469" y="106" on="1"/>
        <pt x="469" y="16" on="0"/>
        <pt x="392" y="-112" on="0"/>
        <pt x="318" y="-112" on="1"/>
        <pt x="284" y="-112" on="0"/>
        <pt x="237" y="-76" on="0"/>
        <pt x="237" y="-53" on="1"/>
        <pt x="237" y="-5" on="0"/>
        <pt x="286" y="-7" on="1"/>
        <pt x="289" y="-57" on="0"/>
        <pt x="335" y="-57" on="1"/>
        <pt x="365" y="-57" on="0"/>
        <pt x="393" y="0" on="0"/>
        <pt x="393" y="71" on="1"/>
        <pt x="395" y="628" on="1"/>
        <pt x="314" y="634" on="1"/>
        <pt x="310" y="679" on="0"/>
      </contour>
      <contour>
        <pt x="237" y="0" on="1"/>
        <pt x="42" y="0" on="1"/>
        <pt x="42" y="8" on="1"/>
        <pt x="42" y="34" on="0"/>
        <pt x="56" y="42" on="1"/>
        <pt x="63" y="45" on="0"/>
        <pt x="73" y="46" on="1"/>
        <pt x="119" y="48" on="1"/>
        <pt x="119" y="627" on="1"/>
        <pt x="46" y="633" on="1"/>
        <pt x="42" y="677" on="0"/>
        <pt x="73" y="677" on="1"/>
        <pt x="268" y="677" on="1"/>
        <pt x="268" y="669" on="1"/>
        <pt x="268" y="642" on="0"/>
        <pt x="254" y="636" on="1"/>
        <pt x="247" y="632" on="0"/>
        <pt x="237" y="631" on="1"/>
        <pt x="191" y="629" on="1"/>
        <pt x="191" y="50" on="1"/>
        <pt x="264" y="44" on="1"/>
        <pt x="268" y="0" on="0"/>
      </contour>
    </TTGlyph>
    <TTGlyph name="Iacute" xMin="42" yMin="0" xMax="306" yMax="886">
      <contour>
        <pt x="237" y="0" on="1"/>
        <pt x="42" y="0" on="1"/>
        <pt x="42" y="8" on="1"/>
        <pt x="42" y="34" on="0"/>
        <pt x="56" y="42" on="1"/>
        <pt x="63" y="45" on="0"/>
        <pt x="73" y="46" on="1"/>
        <pt x="119" y="48" on="1"/>
        <pt x="119" y="627" on="1"/>
        <pt x="46" y="633" on="1"/>
        <pt x="42" y="677" on="0"/>
        <pt x="73" y="677" on="1"/>
        <pt x="268" y="677" on="1"/>
        <pt x="268" y="669" on="1"/>
        <pt x="268" y="642" on="0"/>
        <pt x="254" y="636" on="1"/>
        <pt x="247" y="632" on="0"/>
        <pt x="237" y="631" on="1"/>
        <pt x="191" y="629" on="1"/>
        <pt x="191" y="50" on="1"/>
        <pt x="264" y="44" on="1"/>
        <pt x="268" y="0" on="0"/>
      </contour>
      <contour>
        <pt x="306" y="836" on="1"/>
        <pt x="108" y="730" on="1"/>
        <pt x="90" y="739" on="0"/>
        <pt x="79" y="759" on="1"/>
        <pt x="243" y="886" on="1"/>
        <pt x="262" y="884" on="0"/>
        <pt x="298" y="854" on="0"/>
      </contour>
    </TTGlyph>
    <TTGlyph name="Ibreve" xMin="4" yMin="0" xMax="314" yMax="879">
      <contour>
        <pt x="227" y="735" on="0"/>
        <pt x="91" y="735" on="0"/>
        <pt x="11" y="813" on="0"/>
        <pt x="4" y="863" on="1"/>
        <pt x="38" y="879" on="1"/>
        <pt x="49" y="850" on="0"/>
        <pt x="110" y="800" on="0"/>
        <pt x="160" y="800" on="1"/>
        <pt x="250" y="800" on="0"/>
        <pt x="280" y="878" on="1"/>
        <pt x="314" y="863" on="1"/>
        <pt x="307" y="813" on="0"/>
      </contour>
      <contour>
        <pt x="237" y="0" on="1"/>
        <pt x="42" y="0" on="1"/>
        <pt x="42" y="8" on="1"/>
        <pt x="42" y="34" on="0"/>
        <pt x="56" y="42" on="1"/>
        <pt x="63" y="45" on="0"/>
        <pt x="73" y="46" on="1"/>
        <pt x="119" y="48" on="1"/>
        <pt x="119" y="627" on="1"/>
        <pt x="46" y="633" on="1"/>
        <pt x="42" y="677" on="0"/>
        <pt x="73" y="677" on="1"/>
        <pt x="268" y="677" on="1"/>
        <pt x="268" y="669" on="1"/>
        <pt x="268" y="642" on="0"/>
        <pt x="254" y="636" on="1"/>
        <pt x="247" y="632" on="0"/>
        <pt x="237" y="631" on="1"/>
        <pt x="191" y="629" on="1"/>
        <pt x="191" y="50" on="1"/>
        <pt x="264" y="44" on="1"/>
        <pt x="268" y="0" on="0"/>
      </contour>
    </TTGlyph>
    <TTGlyph name="Icircumflex" xMin="-4" yMin="0" xMax="321" yMax="869">
      <contour>
        <pt x="190" y="869" on="1"/>
        <pt x="321" y="748" on="1"/>
        <pt x="306" y="726" on="0"/>
        <pt x="292" y="720" on="1"/>
        <pt x="158" y="807" on="1"/>
        <pt x="24" y="720" on="1"/>
        <pt x="7" y="729" on="0"/>
        <pt x="-4" y="748" on="1"/>
        <pt x="128" y="869" on="1"/>
        <pt x="161" y="877" on="0"/>
      </contour>
      <contour>
        <pt x="237" y="0" on="1"/>
        <pt x="42" y="0" on="1"/>
        <pt x="42" y="8" on="1"/>
        <pt x="42" y="34" on="0"/>
        <pt x="56" y="42" on="1"/>
        <pt x="63" y="45" on="0"/>
        <pt x="73" y="46" on="1"/>
        <pt x="119" y="48" on="1"/>
        <pt x="119" y="627" on="1"/>
        <pt x="46" y="633" on="1"/>
        <pt x="42" y="677" on="0"/>
        <pt x="73" y="677" on="1"/>
        <pt x="268" y="677" on="1"/>
        <pt x="268" y="669" on="1"/>
        <pt x="268" y="642" on="0"/>
        <pt x="254" y="636" on="1"/>
        <pt x="247" y="632" on="0"/>
        <pt x="237" y="631" on="1"/>
        <pt x="191" y="629" on="1"/>
        <pt x="191" y="50" on="1"/>
        <pt x="264" y="44" on="1"/>
        <pt x="268" y="0" on="0"/>
      </contour>
    </TTGlyph>
    <TTGlyph name="Idieresis" xMin="23" yMin="0" xMax="292" yMax="855">
      <contour>
        <pt x="188" y="824" on="0"/>
        <pt x="218" y="855" on="0"/>
        <pt x="261" y="855" on="0"/>
        <pt x="292" y="824" on="0"/>
        <pt x="292" y="781" on="0"/>
        <pt x="261" y="751" on="0"/>
        <pt x="218" y="751" on="0"/>
        <pt x="188" y="781" on="0"/>
      </contour>
      <contour>
        <pt x="237" y="0" on="1"/>
        <pt x="42" y="0" on="1"/>
        <pt x="42" y="8" on="1"/>
        <pt x="42" y="34" on="0"/>
        <pt x="56" y="42" on="1"/>
        <pt x="63" y="45" on="0"/>
        <pt x="73" y="46" on="1"/>
        <pt x="119" y="48" on="1"/>
        <pt x="119" y="627" on="1"/>
        <pt x="46" y="633" on="1"/>
        <pt x="42" y="677" on="0"/>
        <pt x="73" y="677" on="1"/>
        <pt x="268" y="677" on="1"/>
        <pt x="268" y="669" on="1"/>
        <pt x="268" y="642" on="0"/>
        <pt x="254" y="636" on="1"/>
        <pt x="247" y="632" on="0"/>
        <pt x="237" y="631" on="1"/>
        <pt x="191" y="629" on="1"/>
        <pt x="191" y="50" on="1"/>
        <pt x="264" y="44" on="1"/>
        <pt x="268" y="0" on="0"/>
      </contour>
      <contour>
        <pt x="97" y="855" on="0"/>
        <pt x="127" y="824" on="0"/>
        <pt x="127" y="781" on="0"/>
        <pt x="98" y="751" on="0"/>
        <pt x="54" y="751" on="0"/>
        <pt x="23" y="781" on="0"/>
        <pt x="23" y="824" on="0"/>
        <pt x="54" y="855" on="0"/>
      </contour>
    </TTGlyph>
    <TTGlyph name="Idotaccent" xMin="42" yMin="0" xMax="268" yMax="885">
      <contour>
        <pt x="237" y="0" on="1"/>
        <pt x="42" y="0" on="1"/>
        <pt x="42" y="8" on="1"/>
        <pt x="42" y="34" on="0"/>
        <pt x="56" y="42" on="1"/>
        <pt x="63" y="45" on="0"/>
        <pt x="73" y="46" on="1"/>
        <pt x="119" y="48" on="1"/>
        <pt x="119" y="627" on="1"/>
        <pt x="46" y="633" on="1"/>
        <pt x="42" y="677" on="0"/>
        <pt x="73" y="677" on="1"/>
        <pt x="268" y="677" on="1"/>
        <pt x="268" y="669" on="1"/>
        <pt x="268" y="642" on="0"/>
        <pt x="254" y="636" on="1"/>
        <pt x="247" y="632" on="0"/>
        <pt x="237" y="631" on="1"/>
        <pt x="191" y="629" on="1"/>
        <pt x="191" y="50" on="1"/>
        <pt x="264" y="44" on="1"/>
        <pt x="268" y="0" on="0"/>
      </contour>
      <contour>
        <pt x="180" y="786" on="0"/>
        <pt x="136" y="786" on="0"/>
        <pt x="109" y="814" on="0"/>
        <pt x="109" y="858" on="0"/>
        <pt x="136" y="885" on="0"/>
        <pt x="180" y="885" on="0"/>
        <pt x="208" y="858" on="0"/>
        <pt x="208" y="814" on="0"/>
      </contour>
    </TTGlyph>
    <TTGlyph name="Igrave" xMin="27" yMin="0" xMax="268" yMax="878">
      <contour>
        <pt x="237" y="0" on="1"/>
        <pt x="42" y="0" on="1"/>
        <pt x="42" y="8" on="1"/>
        <pt x="42" y="34" on="0"/>
        <pt x="56" y="42" on="1"/>
        <pt x="63" y="45" on="0"/>
        <pt x="73" y="46" on="1"/>
        <pt x="119" y="48" on="1"/>
        <pt x="119" y="627" on="1"/>
        <pt x="46" y="633" on="1"/>
        <pt x="42" y="677" on="0"/>
        <pt x="73" y="677" on="1"/>
        <pt x="268" y="677" on="1"/>
        <pt x="268" y="669" on="1"/>
        <pt x="268" y="642" on="0"/>
        <pt x="254" y="636" on="1"/>
        <pt x="247" y="632" on="0"/>
        <pt x="237" y="631" on="1"/>
        <pt x="191" y="629" on="1"/>
        <pt x="191" y="50" on="1"/>
        <pt x="264" y="44" on="1"/>
        <pt x="268" y="0" on="0"/>
      </contour>
      <contour>
        <pt x="90" y="878" on="1"/>
        <pt x="255" y="751" on="1"/>
        <pt x="244" y="731" on="0"/>
        <pt x="226" y="722" on="1"/>
        <pt x="27" y="829" on="1"/>
        <pt x="36" y="846" on="0"/>
        <pt x="72" y="876" on="0"/>
      </contour>
    </TTGlyph>
    <TTGlyph name="Imacron" xMin="26" yMin="0" xMax="290" yMax="822">
      <contour>
        <pt x="26" y="822" on="1"/>
        <pt x="290" y="822" on="1"/>
        <pt x="290" y="766" on="1"/>
        <pt x="26" y="766" on="1"/>
      </contour>
      <contour>
        <pt x="237" y="0" on="1"/>
        <pt x="42" y="0" on="1"/>
        <pt x="42" y="8" on="1"/>
        <pt x="42" y="34" on="0"/>
        <pt x="56" y="42" on="1"/>
        <pt x="63" y="45" on="0"/>
        <pt x="73" y="46" on="1"/>
        <pt x="119" y="48" on="1"/>
        <pt x="119" y="627" on="1"/>
        <pt x="46" y="633" on="1"/>
        <pt x="42" y="677" on="0"/>
        <pt x="73" y="677" on="1"/>
        <pt x="268" y="677" on="1"/>
        <pt x="268" y="669" on="1"/>
        <pt x="268" y="642" on="0"/>
        <pt x="254" y="636" on="1"/>
        <pt x="247" y="632" on="0"/>
        <pt x="237" y="631" on="1"/>
        <pt x="191" y="629" on="1"/>
        <pt x="191" y="50" on="1"/>
        <pt x="264" y="44" on="1"/>
        <pt x="268" y="0" on="0"/>
      </contour>
    </TTGlyph>
    <TTGlyph name="Iogonek" xMin="42" yMin="-160" xMax="343" yMax="677">
      <contour>
        <pt x="228" y="-69" on="1"/>
        <pt x="228" y="-116" on="0"/>
        <pt x="279" y="-116" on="1"/>
        <pt x="307" y="-116" on="0"/>
        <pt x="336" y="-94" on="1"/>
        <pt x="340" y="-97" on="0"/>
        <pt x="345" y="-119" on="0"/>
        <pt x="343" y="-125" on="1"/>
        <pt x="318" y="-160" on="0"/>
        <pt x="259" y="-160" on="1"/>
        <pt x="220" y="-160" on="0"/>
        <pt x="169" y="-118" on="0"/>
        <pt x="169" y="-35" on="0"/>
        <pt x="212" y="0" on="1"/>
        <pt x="42" y="0" on="1"/>
        <pt x="42" y="8" on="1"/>
        <pt x="42" y="34" on="0"/>
        <pt x="56" y="42" on="1"/>
        <pt x="63" y="45" on="0"/>
        <pt x="73" y="46" on="1"/>
        <pt x="119" y="48" on="1"/>
        <pt x="119" y="627" on="1"/>
        <pt x="46" y="633" on="1"/>
        <pt x="42" y="677" on="0"/>
        <pt x="73" y="677" on="1"/>
        <pt x="268" y="677" on="1"/>
        <pt x="268" y="669" on="1"/>
        <pt x="268" y="642" on="0"/>
        <pt x="254" y="636" on="1"/>
        <pt x="247" y="632" on="0"/>
        <pt x="237" y="631" on="1"/>
        <pt x="191" y="629" on="1"/>
        <pt x="191" y="50" on="1"/>
        <pt x="264" y="44" on="1"/>
        <pt x="264" y="43" on="0"/>
        <pt x="265" y="33" on="0"/>
        <pt x="265" y="30" on="1"/>
        <pt x="277" y="35" on="0"/>
        <pt x="287" y="38" on="1"/>
        <pt x="305" y="14" on="1"/>
        <pt x="228" y="-14" on="0"/>
      </contour>
    </TTGlyph>
    <TTGlyph name="Itilde" xMin="-7" yMin="0" xMax="325" yMax="866">
      <contour>
        <pt x="317" y="810" on="0"/>
        <pt x="263" y="753" on="0"/>
        <pt x="185" y="753" on="0"/>
        <pt x="101" y="804" on="0"/>
        <pt x="59" y="804" on="0"/>
        <pt x="30" y="775" on="0"/>
        <pt x="23" y="756" on="1"/>
        <pt x="-7" y="767" on="1"/>
        <pt x="2" y="814" on="0"/>
        <pt x="60" y="866" on="0"/>
        <pt x="126" y="866" on="0"/>
        <pt x="206" y="813" on="0"/>
        <pt x="256" y="813" on="0"/>
        <pt x="288" y="842" on="0"/>
        <pt x="294" y="865" on="1"/>
        <pt x="325" y="856" on="1"/>
      </contour>
      <contour>
        <pt x="237" y="0" on="1"/>
        <pt x="42" y="0" on="1"/>
        <pt x="42" y="8" on="1"/>
        <pt x="42" y="34" on="0"/>
        <pt x="56" y="42" on="1"/>
        <pt x="63" y="45" on="0"/>
        <pt x="73" y="46" on="1"/>
        <pt x="119" y="48" on="1"/>
        <pt x="119" y="627" on="1"/>
        <pt x="46" y="633" on="1"/>
        <pt x="42" y="677" on="0"/>
        <pt x="73" y="677" on="1"/>
        <pt x="268" y="677" on="1"/>
        <pt x="268" y="669" on="1"/>
        <pt x="268" y="642" on="0"/>
        <pt x="254" y="636" on="1"/>
        <pt x="247" y="632" on="0"/>
        <pt x="237" y="631" on="1"/>
        <pt x="191" y="629" on="1"/>
        <pt x="191" y="50" on="1"/>
        <pt x="264" y="44" on="1"/>
        <pt x="268" y="0" on="0"/>
      </contour>
    </TTGlyph>
    <TTGlyph name="J" xMin="-11" yMin="-62" xMax="291" yMax="677">
      <contour>
        <pt x="92" y="677" on="1"/>
        <pt x="291" y="677" on="1"/>
        <pt x="291" y="677" on="0"/>
        <pt x="291" y="669" on="1"/>
        <pt x="291" y="642" on="0"/>
        <pt x="277" y="636" on="1"/>
        <pt x="270" y="632" on="0"/>
        <pt x="260" y="631" on="1"/>
        <pt x="218" y="629" on="1"/>
        <pt x="218" y="130" on="1"/>
        <pt x="218" y="46" on="0"/>
        <pt x="138" y="-62" on="0"/>
        <pt x="70" y="-62" on="1"/>
        <pt x="36" y="-62" on="0"/>
        <pt x="-11" y="-27" on="0"/>
        <pt x="-11" y="-4" on="1"/>
        <pt x="-11" y="44" on="0"/>
        <pt x="38" y="42" on="1"/>
        <pt x="40" y="-7" on="0"/>
        <pt x="87" y="-7" on="1"/>
        <pt x="117" y="-7" on="0"/>
        <pt x="146" y="49" on="0"/>
        <pt x="146" y="120" on="1"/>
        <pt x="146" y="627" on="1"/>
        <pt x="64" y="633" on="1"/>
        <pt x="60" y="677" on="0"/>
      </contour>
    </TTGlyph>
    <TTGlyph name="Jcircumflex" xMin="-11" yMin="-62" xMax="347" yMax="869">
      <contour>
        <pt x="216" y="869" on="1"/>
        <pt x="347" y="748" on="1"/>
        <pt x="336" y="729" on="0"/>
        <pt x="319" y="720" on="1"/>
        <pt x="185" y="808" on="1"/>
        <pt x="51" y="720" on="1"/>
        <pt x="34" y="729" on="0"/>
        <pt x="23" y="748" on="1"/>
        <pt x="155" y="869" on="1"/>
        <pt x="188" y="877" on="0"/>
      </contour>
      <contour>
        <pt x="92" y="677" on="1"/>
        <pt x="291" y="677" on="1"/>
        <pt x="291" y="669" on="1"/>
        <pt x="291" y="642" on="0"/>
        <pt x="277" y="636" on="1"/>
        <pt x="270" y="632" on="0"/>
        <pt x="260" y="631" on="1"/>
        <pt x="218" y="629" on="1"/>
        <pt x="218" y="130" on="1"/>
        <pt x="218" y="46" on="0"/>
        <pt x="138" y="-62" on="0"/>
        <pt x="70" y="-62" on="1"/>
        <pt x="36" y="-62" on="0"/>
        <pt x="-11" y="-27" on="0"/>
        <pt x="-11" y="-4" on="1"/>
        <pt x="-11" y="44" on="0"/>
        <pt x="38" y="42" on="1"/>
        <pt x="40" y="-7" on="0"/>
        <pt x="87" y="-7" on="1"/>
        <pt x="117" y="-7" on="0"/>
        <pt x="146" y="49" on="0"/>
        <pt x="146" y="120" on="1"/>
        <pt x="146" y="627" on="1"/>
        <pt x="64" y="633" on="1"/>
        <pt x="60" y="677" on="0"/>
      </contour>
    </TTGlyph>
    <TTGlyph name="K" xMin="42" yMin="0" xMax="574" yMax="677">
      <contour>
        <pt x="401" y="677" on="1"/>
        <pt x="573" y="677" on="1"/>
        <pt x="573" y="677" on="0"/>
        <pt x="573" y="669" on="1"/>
        <pt x="573" y="642" on="0"/>
        <pt x="559" y="636" on="1"/>
        <pt x="551" y="631" on="0"/>
        <pt x="503" y="629" on="1"/>
        <pt x="285" y="365" on="1"/>
        <pt x="513" y="47" on="1"/>
        <pt x="574" y="41" on="1"/>
        <pt x="578" y="29" on="0"/>
        <pt x="567" y="0" on="0"/>
        <pt x="547" y="0" on="1"/>
        <pt x="456" y="0" on="1"/>
        <pt x="239" y="309" on="1"/>
        <pt x="191" y="251" on="1"/>
        <pt x="191" y="50" on="1"/>
        <pt x="266" y="44" on="1"/>
        <pt x="270" y="0" on="0"/>
        <pt x="239" y="0" on="1"/>
        <pt x="42" y="0" on="1"/>
        <pt x="42" y="8" on="1"/>
        <pt x="42" y="34" on="0"/>
        <pt x="56" y="42" on="1"/>
        <pt x="63" y="45" on="0"/>
        <pt x="73" y="46" on="1"/>
        <pt x="119" y="48" on="1"/>
        <pt x="119" y="627" on="1"/>
        <pt x="46" y="633" on="1"/>
        <pt x="42" y="677" on="0"/>
        <pt x="73" y="677" on="1"/>
        <pt x="268" y="677" on="1"/>
        <pt x="268" y="669" on="1"/>
        <pt x="268" y="642" on="0"/>
        <pt x="254" y="636" on="1"/>
        <pt x="247" y="632" on="0"/>
        <pt x="237" y="631" on="1"/>
        <pt x="191" y="629" on="1"/>
        <pt x="191" y="324" on="1"/>
        <pt x="437" y="627" on="1"/>
        <pt x="373" y="633" on="1"/>
        <pt x="369" y="677" on="0"/>
      </contour>
    </TTGlyph>
    <TTGlyph name="L" xMin="42" yMin="0" xMax="506" yMax="679">
      <contour>
        <pt x="506" y="139" on="1"/>
        <pt x="506" y="0" on="1"/>
        <pt x="42" y="0" on="1"/>
        <pt x="42" y="8" on="1"/>
        <pt x="42" y="34" on="0"/>
        <pt x="56" y="42" on="1"/>
        <pt x="63" y="45" on="0"/>
        <pt x="73" y="46" on="1"/>
        <pt x="119" y="48" on="1"/>
        <pt x="119" y="628" on="1"/>
        <pt x="45" y="634" on="1"/>
        <pt x="40" y="679" on="0"/>
        <pt x="73" y="679" on="1"/>
        <pt x="272" y="679" on="1"/>
        <pt x="272" y="671" on="1"/>
        <pt x="272" y="644" on="0"/>
        <pt x="258" y="638" on="1"/>
        <pt x="251" y="634" on="0"/>
        <pt x="241" y="633" on="1"/>
        <pt x="191" y="630" on="1"/>
        <pt x="191" y="50" on="1"/>
        <pt x="451" y="55" on="1"/>
        <pt x="462" y="165" on="1"/>
        <pt x="506" y="169" on="0"/>
      </contour>
    </TTGlyph>
    <TTGlyph name="Lacute" xMin="42" yMin="0" xMax="506" yMax="886">
      <contour>
        <pt x="506" y="139" on="1"/>
        <pt x="506" y="0" on="1"/>
        <pt x="42" y="0" on="1"/>
        <pt x="42" y="8" on="1"/>
        <pt x="42" y="34" on="0"/>
        <pt x="56" y="42" on="1"/>
        <pt x="63" y="45" on="0"/>
        <pt x="73" y="46" on="1"/>
        <pt x="119" y="48" on="1"/>
        <pt x="119" y="628" on="1"/>
        <pt x="45" y="634" on="1"/>
        <pt x="40" y="679" on="0"/>
        <pt x="73" y="679" on="1"/>
        <pt x="272" y="679" on="1"/>
        <pt x="272" y="671" on="1"/>
        <pt x="272" y="644" on="0"/>
        <pt x="258" y="638" on="1"/>
        <pt x="251" y="634" on="0"/>
        <pt x="241" y="633" on="1"/>
        <pt x="191" y="630" on="1"/>
        <pt x="191" y="50" on="1"/>
        <pt x="451" y="55" on="1"/>
        <pt x="462" y="165" on="1"/>
        <pt x="506" y="169" on="0"/>
      </contour>
      <contour>
        <pt x="349" y="836" on="1"/>
        <pt x="151" y="730" on="1"/>
        <pt x="132" y="739" on="0"/>
        <pt x="121" y="759" on="1"/>
        <pt x="286" y="886" on="1"/>
        <pt x="304" y="884" on="0"/>
        <pt x="340" y="854" on="0"/>
      </contour>
    </TTGlyph>
    <TTGlyph name="Lcaron" xMin="42" yMin="0" xMax="506" yMax="752">
      <contour>
        <pt x="506" y="139" on="1"/>
        <pt x="506" y="0" on="1"/>
        <pt x="42" y="0" on="1"/>
        <pt x="42" y="8" on="1"/>
        <pt x="42" y="34" on="0"/>
        <pt x="56" y="42" on="1"/>
        <pt x="63" y="45" on="0"/>
        <pt x="73" y="46" on="1"/>
        <pt x="119" y="48" on="1"/>
        <pt x="119" y="628" on="1"/>
        <pt x="45" y="634" on="1"/>
        <pt x="40" y="679" on="0"/>
        <pt x="73" y="679" on="1"/>
        <pt x="272" y="679" on="1"/>
        <pt x="272" y="671" on="1"/>
        <pt x="272" y="644" on="0"/>
        <pt x="258" y="638" on="1"/>
        <pt x="251" y="634" on="0"/>
        <pt x="241" y="633" on="1"/>
        <pt x="191" y="630" on="1"/>
        <pt x="191" y="50" on="1"/>
        <pt x="451" y="55" on="1"/>
        <pt x="462" y="165" on="1"/>
        <pt x="506" y="169" on="0"/>
      </contour>
      <contour>
        <pt x="366" y="546" on="1"/>
        <pt x="361" y="542" on="0"/>
        <pt x="330" y="558" on="0"/>
        <pt x="330" y="564" on="1"/>
        <pt x="344" y="599" on="0"/>
        <pt x="348" y="713" on="0"/>
        <pt x="338" y="744" on="1"/>
        <pt x="352" y="756" on="0"/>
        <pt x="419" y="748" on="0"/>
        <pt x="426" y="732" on="1"/>
        <pt x="431" y="617" on="0"/>
      </contour>
    </TTGlyph>
    <TTGlyph name="Ldot" xMin="42" yMin="0" xMax="506" yMax="679">
      <contour>
        <pt x="506" y="139" on="1"/>
        <pt x="506" y="0" on="1"/>
        <pt x="42" y="0" on="1"/>
        <pt x="42" y="8" on="1"/>
        <pt x="42" y="34" on="0"/>
        <pt x="56" y="42" on="1"/>
        <pt x="63" y="45" on="0"/>
        <pt x="73" y="46" on="1"/>
        <pt x="119" y="48" on="1"/>
        <pt x="119" y="628" on="1"/>
        <pt x="45" y="634" on="1"/>
        <pt x="40" y="679" on="0"/>
        <pt x="73" y="679" on="1"/>
        <pt x="272" y="679" on="1"/>
        <pt x="272" y="671" on="1"/>
        <pt x="272" y="644" on="0"/>
        <pt x="258" y="638" on="1"/>
        <pt x="251" y="634" on="0"/>
        <pt x="241" y="633" on="1"/>
        <pt x="191" y="630" on="1"/>
        <pt x="191" y="50" on="1"/>
        <pt x="451" y="55" on="1"/>
        <pt x="462" y="165" on="1"/>
        <pt x="506" y="169" on="0"/>
      </contour>
      <contour>
        <pt x="435" y="277" on="0"/>
        <pt x="389" y="277" on="0"/>
        <pt x="358" y="308" on="0"/>
        <pt x="358" y="354" on="0"/>
        <pt x="389" y="386" on="0"/>
        <pt x="435" y="386" on="0"/>
        <pt x="466" y="354" on="0"/>
        <pt x="466" y="308" on="0"/>
      </contour>
    </TTGlyph>
    <TTGlyph name="Lslash" xMin="30" yMin="0" xMax="513" yMax="679">
      <contour>
        <pt x="513" y="139" on="1"/>
        <pt x="513" y="0" on="1"/>
        <pt x="49" y="0" on="1"/>
        <pt x="49" y="8" on="1"/>
        <pt x="49" y="34" on="0"/>
        <pt x="63" y="42" on="1"/>
        <pt x="70" y="45" on="0"/>
        <pt x="80" y="46" on="1"/>
        <pt x="126" y="48" on="1"/>
        <pt x="126" y="234" on="1"/>
        <pt x="62" y="184" on="1"/>
        <pt x="30" y="223" on="1"/>
        <pt x="126" y="299" on="1"/>
        <pt x="126" y="628" on="1"/>
        <pt x="52" y="634" on="1"/>
        <pt x="48" y="679" on="0"/>
        <pt x="80" y="679" on="1"/>
        <pt x="279" y="679" on="1"/>
        <pt x="279" y="671" on="1"/>
        <pt x="279" y="644" on="0"/>
        <pt x="265" y="638" on="1"/>
        <pt x="258" y="634" on="0"/>
        <pt x="248" y="633" on="1"/>
        <pt x="198" y="630" on="1"/>
        <pt x="198" y="356" on="1"/>
        <pt x="316" y="449" on="1"/>
        <pt x="348" y="409" on="1"/>
        <pt x="198" y="291" on="1"/>
        <pt x="198" y="50" on="1"/>
        <pt x="458" y="55" on="1"/>
        <pt x="469" y="165" on="1"/>
        <pt x="513" y="169" on="0"/>
      </contour>
    </TTGlyph>
    <TTGlyph name="M" xMin="14" yMin="0" xMax="793" yMax="679">
      <contour>
        <pt x="765" y="0" on="1"/>
        <pt x="579" y="0" on="1"/>
        <pt x="579" y="8" on="1"/>
        <pt x="579" y="34" on="0"/>
        <pt x="594" y="42" on="1"/>
        <pt x="601" y="45" on="0"/>
        <pt x="611" y="46" on="1"/>
        <pt x="653" y="48" on="1"/>
        <pt x="615" y="571" on="1"/>
        <pt x="428" y="123" on="1"/>
        <pt x="403" y="117" on="0"/>
        <pt x="383" y="120" on="1"/>
        <pt x="188" y="554" on="1"/>
        <pt x="150" y="50" on="1"/>
        <pt x="223" y="44" on="1"/>
        <pt x="227" y="0" on="0"/>
        <pt x="195" y="0" on="1"/>
        <pt x="14" y="0" on="1"/>
        <pt x="14" y="8" on="1"/>
        <pt x="14" y="34" on="0"/>
        <pt x="28" y="42" on="1"/>
        <pt x="35" y="45" on="0"/>
        <pt x="45" y="46" on="1"/>
        <pt x="90" y="48" on="1"/>
        <pt x="136" y="628" on="1"/>
        <pt x="65" y="634" on="1"/>
        <pt x="60" y="679" on="0"/>
        <pt x="93" y="679" on="1"/>
        <pt x="212" y="679" on="1"/>
        <pt x="414" y="225" on="1"/>
        <pt x="600" y="679" on="1"/>
        <pt x="724" y="679" on="1"/>
        <pt x="756" y="679" on="0"/>
        <pt x="752" y="634" on="1"/>
        <pt x="682" y="628" on="1"/>
        <pt x="727" y="52" on="1"/>
        <pt x="793" y="44" on="1"/>
        <pt x="797" y="0" on="0"/>
      </contour>
    </TTGlyph>
    <TTGlyph name="N" xMin="42" yMin="0" xMax="661" yMax="677">
      <contour>
        <pt x="483" y="677" on="1"/>
        <pt x="661" y="677" on="1"/>
        <pt x="661" y="677" on="0"/>
        <pt x="661" y="669" on="1"/>
        <pt x="661" y="642" on="0"/>
        <pt x="647" y="636" on="1"/>
        <pt x="640" y="632" on="0"/>
        <pt x="630" y="631" on="1"/>
        <pt x="583" y="629" on="1"/>
        <pt x="583" y="11" on="1"/>
        <pt x="558" y="0" on="0"/>
        <pt x="531" y="0" on="1"/>
        <pt x="174" y="550" on="1"/>
        <pt x="174" y="50" on="1"/>
        <pt x="247" y="44" on="1"/>
        <pt x="251" y="0" on="0"/>
        <pt x="220" y="0" on="1"/>
        <pt x="42" y="0" on="1"/>
        <pt x="42" y="0" on="0"/>
        <pt x="42" y="8" on="1"/>
        <pt x="42" y="34" on="0"/>
        <pt x="56" y="42" on="1"/>
        <pt x="63" y="45" on="0"/>
        <pt x="73" y="46" on="1"/>
        <pt x="119" y="48" on="1"/>
        <pt x="119" y="627" on="1"/>
        <pt x="46" y="633" on="1"/>
        <pt x="42" y="677" on="0"/>
        <pt x="73" y="677" on="1"/>
        <pt x="179" y="677" on="1"/>
        <pt x="529" y="137" on="1"/>
        <pt x="529" y="627" on="1"/>
        <pt x="456" y="633" on="1"/>
        <pt x="452" y="677" on="0"/>
      </contour>
    </TTGlyph>
    <TTGlyph name="Nacute" xMin="42" yMin="0" xMax="661" yMax="886">
      <contour>
        <pt x="483" y="677" on="1"/>
        <pt x="661" y="677" on="1"/>
        <pt x="661" y="677" on="0"/>
        <pt x="661" y="669" on="1"/>
        <pt x="661" y="642" on="0"/>
        <pt x="647" y="636" on="1"/>
        <pt x="640" y="632" on="0"/>
        <pt x="630" y="631" on="1"/>
        <pt x="583" y="629" on="1"/>
        <pt x="583" y="11" on="1"/>
        <pt x="558" y="0" on="0"/>
        <pt x="531" y="0" on="1"/>
        <pt x="174" y="550" on="1"/>
        <pt x="174" y="50" on="1"/>
        <pt x="247" y="44" on="1"/>
        <pt x="251" y="0" on="0"/>
        <pt x="220" y="0" on="1"/>
        <pt x="42" y="0" on="1"/>
        <pt x="42" y="0" on="0"/>
        <pt x="42" y="8" on="1"/>
        <pt x="42" y="34" on="0"/>
        <pt x="56" y="42" on="1"/>
        <pt x="63" y="45" on="0"/>
        <pt x="73" y="46" on="1"/>
        <pt x="119" y="48" on="1"/>
        <pt x="119" y="627" on="1"/>
        <pt x="46" y="633" on="1"/>
        <pt x="42" y="677" on="0"/>
        <pt x="73" y="677" on="1"/>
        <pt x="179" y="677" on="1"/>
        <pt x="529" y="137" on="1"/>
        <pt x="529" y="627" on="1"/>
        <pt x="456" y="633" on="1"/>
        <pt x="452" y="677" on="0"/>
      </contour>
      <contour>
        <pt x="488" y="836" on="1"/>
        <pt x="289" y="730" on="1"/>
        <pt x="271" y="739" on="0"/>
        <pt x="260" y="759" on="1"/>
        <pt x="425" y="886" on="1"/>
        <pt x="443" y="884" on="0"/>
        <pt x="479" y="854" on="0"/>
      </contour>
    </TTGlyph>
    <TTGlyph name="Ncaron" xMin="42" yMin="0" xMax="661" yMax="884">
      <contour>
        <pt x="483" y="677" on="1"/>
        <pt x="661" y="677" on="1"/>
        <pt x="661" y="677" on="0"/>
        <pt x="661" y="669" on="1"/>
        <pt x="661" y="642" on="0"/>
        <pt x="647" y="636" on="1"/>
        <pt x="640" y="632" on="0"/>
        <pt x="630" y="631" on="1"/>
        <pt x="583" y="629" on="1"/>
        <pt x="583" y="11" on="1"/>
        <pt x="558" y="0" on="0"/>
        <pt x="531" y="0" on="1"/>
        <pt x="174" y="550" on="1"/>
        <pt x="174" y="50" on="1"/>
        <pt x="247" y="44" on="1"/>
        <pt x="251" y="0" on="0"/>
        <pt x="220" y="0" on="1"/>
        <pt x="42" y="0" on="1"/>
        <pt x="42" y="0" on="0"/>
        <pt x="42" y="8" on="1"/>
        <pt x="42" y="34" on="0"/>
        <pt x="56" y="42" on="1"/>
        <pt x="63" y="45" on="0"/>
        <pt x="73" y="46" on="1"/>
        <pt x="119" y="48" on="1"/>
        <pt x="119" y="627" on="1"/>
        <pt x="46" y="633" on="1"/>
        <pt x="42" y="677" on="0"/>
        <pt x="73" y="677" on="1"/>
        <pt x="179" y="677" on="1"/>
        <pt x="529" y="137" on="1"/>
        <pt x="529" y="627" on="1"/>
        <pt x="456" y="633" on="1"/>
        <pt x="452" y="677" on="0"/>
      </contour>
      <contour>
        <pt x="502" y="856" on="1"/>
        <pt x="370" y="735" on="1"/>
        <pt x="338" y="728" on="0"/>
        <pt x="309" y="735" on="1"/>
        <pt x="177" y="856" on="1"/>
        <pt x="189" y="877" on="0"/>
        <pt x="205" y="884" on="1"/>
        <pt x="339" y="796" on="1"/>
        <pt x="473" y="884" on="1"/>
        <pt x="489" y="877" on="0"/>
      </contour>
    </TTGlyph>
    <TTGlyph name="Ntilde" xMin="42" yMin="0" xMax="661" yMax="866">
      <contour>
        <pt x="483" y="677" on="1"/>
        <pt x="661" y="677" on="1"/>
        <pt x="661" y="677" on="0"/>
        <pt x="661" y="669" on="1"/>
        <pt x="661" y="642" on="0"/>
        <pt x="647" y="636" on="1"/>
        <pt x="640" y="632" on="0"/>
        <pt x="630" y="631" on="1"/>
        <pt x="583" y="629" on="1"/>
        <pt x="583" y="11" on="1"/>
        <pt x="558" y="0" on="0"/>
        <pt x="531" y="0" on="1"/>
        <pt x="174" y="550" on="1"/>
        <pt x="174" y="50" on="1"/>
        <pt x="247" y="44" on="1"/>
        <pt x="251" y="0" on="0"/>
        <pt x="220" y="0" on="1"/>
        <pt x="42" y="0" on="1"/>
        <pt x="42" y="0" on="0"/>
        <pt x="42" y="8" on="1"/>
        <pt x="42" y="34" on="0"/>
        <pt x="56" y="42" on="1"/>
        <pt x="63" y="45" on="0"/>
        <pt x="73" y="46" on="1"/>
        <pt x="119" y="48" on="1"/>
        <pt x="119" y="627" on="1"/>
        <pt x="46" y="633" on="1"/>
        <pt x="42" y="677" on="0"/>
        <pt x="73" y="677" on="1"/>
        <pt x="179" y="677" on="1"/>
        <pt x="529" y="137" on="1"/>
        <pt x="529" y="627" on="1"/>
        <pt x="456" y="633" on="1"/>
        <pt x="452" y="677" on="0"/>
      </contour>
      <contour>
        <pt x="498" y="810" on="0"/>
        <pt x="444" y="753" on="0"/>
        <pt x="366" y="753" on="0"/>
        <pt x="282" y="803" on="0"/>
        <pt x="240" y="803" on="0"/>
        <pt x="211" y="775" on="0"/>
        <pt x="204" y="756" on="1"/>
        <pt x="174" y="767" on="1"/>
        <pt x="183" y="814" on="0"/>
        <pt x="241" y="866" on="0"/>
        <pt x="307" y="866" on="0"/>
        <pt x="387" y="813" on="0"/>
        <pt x="437" y="813" on="0"/>
        <pt x="469" y="842" on="0"/>
        <pt x="475" y="865" on="1"/>
        <pt x="506" y="856" on="1"/>
      </contour>
    </TTGlyph>
    <TTGlyph name="O" xMin="39" yMin="-15" xMax="603" yMax="692">
      <contour>
        <pt x="217" y="638" on="0"/>
        <pt x="113" y="476" on="0"/>
        <pt x="113" y="201" on="0"/>
        <pt x="214" y="38" on="0"/>
        <pt x="424" y="39" on="0"/>
        <pt x="530" y="200" on="0"/>
        <pt x="530" y="475" on="0"/>
        <pt x="427" y="640" on="0"/>
      </contour>
      <contour>
        <pt x="333" y="692" on="1"/>
        <pt x="414" y="692" on="0"/>
        <pt x="476" y="652" on="1"/>
        <pt x="600" y="572" on="0"/>
        <pt x="603" y="356" on="1"/>
        <pt x="605" y="187" on="0"/>
        <pt x="450" y="-15" on="0"/>
        <pt x="304" y="-15" on="1"/>
        <pt x="182" y="-15" on="0"/>
        <pt x="42" y="161" on="0"/>
        <pt x="36" y="485" on="0"/>
        <pt x="192" y="692" on="0"/>
      </contour>
    </TTGlyph>
    <TTGlyph name="OE" xMin="38" yMin="-15" xMax="842" yMax="694">
      <contour>
        <pt x="223" y="640" on="0"/>
        <pt x="115" y="476" on="0"/>
        <pt x="115" y="199" on="0"/>
        <pt x="218" y="38" on="0"/>
        <pt x="332" y="38" on="1"/>
        <pt x="398" y="38" on="0"/>
        <pt x="444" y="69" on="1"/>
        <pt x="444" y="613" on="1"/>
        <pt x="399" y="641" on="0"/>
        <pt x="334" y="641" on="1"/>
      </contour>
      <contour>
        <pt x="842" y="0" on="1"/>
        <pt x="420" y="0" on="1"/>
        <pt x="373" y="-15" on="0"/>
        <pt x="316" y="-15" on="1"/>
        <pt x="189" y="-15" on="0"/>
        <pt x="42" y="163" on="0"/>
        <pt x="35" y="484" on="0"/>
        <pt x="198" y="694" on="0"/>
        <pt x="347" y="694" on="1"/>
        <pt x="395" y="694" on="0"/>
        <pt x="446" y="679" on="1"/>
        <pt x="822" y="679" on="1"/>
        <pt x="822" y="537" on="1"/>
        <pt x="822" y="507" on="0"/>
        <pt x="778" y="511" on="1"/>
        <pt x="768" y="624" on="1"/>
        <pt x="516" y="629" on="1"/>
        <pt x="516" y="362" on="1"/>
        <pt x="709" y="375" on="1"/>
        <pt x="715" y="341" on="0"/>
        <pt x="709" y="303" on="1"/>
        <pt x="516" y="313" on="1"/>
        <pt x="516" y="50" on="1"/>
        <pt x="788" y="57" on="1"/>
        <pt x="798" y="163" on="1"/>
        <pt x="842" y="167" on="0"/>
        <pt x="842" y="136" on="1"/>
      </contour>
    </TTGlyph>
    <TTGlyph name="Oacute" xMin="39" yMin="-15" xMax="603" yMax="886">
      <contour>
        <pt x="483" y="836" on="1"/>
        <pt x="284" y="730" on="1"/>
        <pt x="266" y="739" on="0"/>
        <pt x="255" y="759" on="1"/>
        <pt x="420" y="886" on="1"/>
        <pt x="438" y="884" on="0"/>
        <pt x="474" y="854" on="0"/>
      </contour>
      <contour>
        <pt x="217" y="638" on="0"/>
        <pt x="113" y="476" on="0"/>
        <pt x="113" y="201" on="0"/>
        <pt x="214" y="38" on="0"/>
        <pt x="424" y="39" on="0"/>
        <pt x="530" y="200" on="0"/>
        <pt x="530" y="475" on="0"/>
        <pt x="427" y="640" on="0"/>
      </contour>
      <contour>
        <pt x="333" y="692" on="1"/>
        <pt x="414" y="692" on="0"/>
        <pt x="476" y="652" on="1"/>
        <pt x="600" y="572" on="0"/>
        <pt x="603" y="356" on="1"/>
        <pt x="605" y="187" on="0"/>
        <pt x="450" y="-15" on="0"/>
        <pt x="304" y="-15" on="1"/>
        <pt x="182" y="-15" on="0"/>
        <pt x="42" y="161" on="0"/>
        <pt x="36" y="485" on="0"/>
        <pt x="192" y="692" on="0"/>
      </contour>
    </TTGlyph>
    <TTGlyph name="Obreve" xMin="39" yMin="-15" xMax="603" yMax="879">
      <contour>
        <pt x="217" y="638" on="0"/>
        <pt x="113" y="476" on="0"/>
        <pt x="113" y="201" on="0"/>
        <pt x="214" y="38" on="0"/>
        <pt x="424" y="39" on="0"/>
        <pt x="530" y="200" on="0"/>
        <pt x="530" y="475" on="0"/>
        <pt x="427" y="640" on="0"/>
      </contour>
      <contour>
        <pt x="333" y="692" on="1"/>
        <pt x="414" y="692" on="0"/>
        <pt x="476" y="652" on="1"/>
        <pt x="600" y="572" on="0"/>
        <pt x="603" y="356" on="1"/>
        <pt x="605" y="187" on="0"/>
        <pt x="450" y="-15" on="0"/>
        <pt x="304" y="-15" on="1"/>
        <pt x="182" y="-15" on="0"/>
        <pt x="42" y="161" on="0"/>
        <pt x="36" y="485" on="0"/>
        <pt x="192" y="692" on="0"/>
      </contour>
      <contour>
        <pt x="336" y="800" on="1"/>
        <pt x="426" y="800" on="0"/>
        <pt x="456" y="878" on="1"/>
        <pt x="490" y="863" on="1"/>
        <pt x="483" y="813" on="0"/>
        <pt x="403" y="735" on="0"/>
        <pt x="267" y="735" on="0"/>
        <pt x="187" y="813" on="0"/>
        <pt x="180" y="863" on="1"/>
        <pt x="214" y="879" on="1"/>
        <pt x="225" y="850" on="0"/>
        <pt x="286" y="800" on="0"/>
      </contour>
    </TTGlyph>
    <TTGlyph name="Ocircumflex" xMin="39" yMin="-15" xMax="603" yMax="869">
      <contour>
        <pt x="304" y="-15" on="1"/>
        <pt x="182" y="-15" on="0"/>
        <pt x="42" y="161" on="0"/>
        <pt x="36" y="485" on="0"/>
        <pt x="192" y="692" on="0"/>
        <pt x="333" y="692" on="1"/>
        <pt x="414" y="692" on="0"/>
        <pt x="476" y="652" on="1"/>
        <pt x="600" y="572" on="0"/>
        <pt x="603" y="356" on="1"/>
        <pt x="605" y="187" on="0"/>
        <pt x="450" y="-15" on="0"/>
      </contour>
      <contour>
        <pt x="424" y="39" on="0"/>
        <pt x="530" y="200" on="0"/>
        <pt x="530" y="475" on="0"/>
        <pt x="427" y="640" on="0"/>
        <pt x="217" y="638" on="0"/>
        <pt x="113" y="476" on="0"/>
        <pt x="113" y="201" on="0"/>
        <pt x="214" y="38" on="0"/>
      </contour>
      <contour>
        <pt x="335" y="807" on="1"/>
        <pt x="200" y="720" on="1"/>
        <pt x="183" y="729" on="0"/>
        <pt x="172" y="748" on="1"/>
        <pt x="304" y="869" on="1"/>
        <pt x="337" y="877" on="0"/>
        <pt x="366" y="869" on="1"/>
        <pt x="497" y="748" on="1"/>
        <pt x="481" y="726" on="0"/>
        <pt x="469" y="720" on="1"/>
      </contour>
    </TTGlyph>
    <TTGlyph name="Odieresis" xMin="39" yMin="-15" xMax="603" yMax="855">
      <contour>
        <pt x="468" y="781" on="0"/>
        <pt x="438" y="751" on="0"/>
        <pt x="394" y="751" on="0"/>
        <pt x="364" y="781" on="0"/>
        <pt x="364" y="824" on="0"/>
        <pt x="394" y="855" on="0"/>
        <pt x="438" y="855" on="0"/>
        <pt x="468" y="824" on="0"/>
      </contour>
      <contour>
        <pt x="274" y="751" on="0"/>
        <pt x="230" y="751" on="0"/>
        <pt x="199" y="781" on="0"/>
        <pt x="199" y="824" on="0"/>
        <pt x="230" y="855" on="0"/>
        <pt x="273" y="855" on="0"/>
        <pt x="303" y="824" on="0"/>
        <pt x="303" y="781" on="0"/>
      </contour>
      <contour>
        <pt x="217" y="638" on="0"/>
        <pt x="113" y="476" on="0"/>
        <pt x="113" y="201" on="0"/>
        <pt x="214" y="38" on="0"/>
        <pt x="424" y="39" on="0"/>
        <pt x="530" y="200" on="0"/>
        <pt x="530" y="475" on="0"/>
        <pt x="427" y="640" on="0"/>
      </contour>
      <contour>
        <pt x="333" y="692" on="1"/>
        <pt x="414" y="692" on="0"/>
        <pt x="476" y="652" on="1"/>
        <pt x="600" y="572" on="0"/>
        <pt x="603" y="356" on="1"/>
        <pt x="605" y="187" on="0"/>
        <pt x="450" y="-15" on="0"/>
        <pt x="304" y="-15" on="1"/>
        <pt x="182" y="-15" on="0"/>
        <pt x="42" y="161" on="0"/>
        <pt x="36" y="485" on="0"/>
        <pt x="192" y="692" on="0"/>
      </contour>
    </TTGlyph>
    <TTGlyph name="Ograve" xMin="39" yMin="-15" xMax="603" yMax="878">
      <contour>
        <pt x="402" y="722" on="1"/>
        <pt x="203" y="829" on="1"/>
        <pt x="212" y="846" on="0"/>
        <pt x="248" y="876" on="0"/>
        <pt x="266" y="878" on="1"/>
        <pt x="431" y="751" on="1"/>
        <pt x="420" y="731" on="0"/>
      </contour>
      <contour>
        <pt x="333" y="692" on="1"/>
        <pt x="414" y="692" on="0"/>
        <pt x="476" y="652" on="1"/>
        <pt x="600" y="572" on="0"/>
        <pt x="603" y="356" on="1"/>
        <pt x="605" y="187" on="0"/>
        <pt x="450" y="-15" on="0"/>
        <pt x="304" y="-15" on="1"/>
        <pt x="182" y="-15" on="0"/>
        <pt x="42" y="161" on="0"/>
        <pt x="36" y="485" on="0"/>
        <pt x="192" y="692" on="0"/>
      </contour>
      <contour>
        <pt x="217" y="638" on="0"/>
        <pt x="113" y="476" on="0"/>
        <pt x="113" y="201" on="0"/>
        <pt x="214" y="38" on="0"/>
        <pt x="424" y="39" on="0"/>
        <pt x="530" y="200" on="0"/>
        <pt x="530" y="475" on="0"/>
        <pt x="427" y="640" on="0"/>
      </contour>
    </TTGlyph>
    <TTGlyph name="Ohungarumlaut" xMin="39" yMin="-15" xMax="603" yMax="847">
      <contour>
        <pt x="217" y="638" on="0"/>
        <pt x="113" y="476" on="0"/>
        <pt x="113" y="201" on="0"/>
        <pt x="214" y="38" on="0"/>
        <pt x="424" y="39" on="0"/>
        <pt x="530" y="200" on="0"/>
        <pt x="530" y="475" on="0"/>
        <pt x="427" y="640" on="0"/>
      </contour>
      <contour>
        <pt x="333" y="692" on="1"/>
        <pt x="414" y="692" on="0"/>
        <pt x="476" y="652" on="1"/>
        <pt x="600" y="572" on="0"/>
        <pt x="603" y="356" on="1"/>
        <pt x="605" y="187" on="0"/>
        <pt x="450" y="-15" on="0"/>
        <pt x="304" y="-15" on="1"/>
        <pt x="182" y="-15" on="0"/>
        <pt x="42" y="161" on="0"/>
        <pt x="36" y="485" on="0"/>
        <pt x="192" y="692" on="0"/>
      </contour>
      <contour>
        <pt x="424" y="798" on="1"/>
        <pt x="225" y="691" on="1"/>
        <pt x="207" y="700" on="0"/>
        <pt x="196" y="720" on="1"/>
        <pt x="361" y="847" on="1"/>
        <pt x="379" y="845" on="0"/>
        <pt x="415" y="815" on="0"/>
      </contour>
      <contour>
        <pt x="603" y="798" on="1"/>
        <pt x="404" y="691" on="1"/>
        <pt x="386" y="700" on="0"/>
        <pt x="375" y="720" on="1"/>
        <pt x="540" y="847" on="1"/>
        <pt x="558" y="845" on="0"/>
        <pt x="594" y="815" on="0"/>
      </contour>
    </TTGlyph>
    <TTGlyph name="Omacron" xMin="39" yMin="-15" xMax="603" yMax="822">
      <contour>
        <pt x="202" y="822" on="1"/>
        <pt x="466" y="822" on="1"/>
        <pt x="466" y="766" on="1"/>
        <pt x="202" y="766" on="1"/>
      </contour>
      <contour>
        <pt x="217" y="638" on="0"/>
        <pt x="113" y="476" on="0"/>
        <pt x="113" y="201" on="0"/>
        <pt x="214" y="38" on="0"/>
        <pt x="424" y="39" on="0"/>
        <pt x="530" y="200" on="0"/>
        <pt x="530" y="475" on="0"/>
        <pt x="427" y="640" on="0"/>
      </contour>
      <contour>
        <pt x="333" y="692" on="1"/>
        <pt x="414" y="692" on="0"/>
        <pt x="476" y="652" on="1"/>
        <pt x="600" y="572" on="0"/>
        <pt x="603" y="356" on="1"/>
        <pt x="605" y="187" on="0"/>
        <pt x="450" y="-15" on="0"/>
        <pt x="304" y="-15" on="1"/>
        <pt x="182" y="-15" on="0"/>
        <pt x="42" y="161" on="0"/>
        <pt x="36" y="485" on="0"/>
        <pt x="192" y="692" on="0"/>
      </contour>
    </TTGlyph>
    <TTGlyph name="Oslash" xMin="39" yMin="-16" xMax="603" yMax="692">
      <contour>
        <pt x="304" y="-15" on="1"/>
        <pt x="244" y="-15" on="0"/>
        <pt x="193" y="8" on="1"/>
        <pt x="179" y="-16" on="1"/>
        <pt x="126" y="13" on="1"/>
        <pt x="143" y="41" on="1"/>
        <pt x="42" y="128" on="0"/>
        <pt x="36" y="485" on="0"/>
        <pt x="192" y="692" on="0"/>
        <pt x="333" y="692" on="1"/>
        <pt x="426" y="692" on="0"/>
        <pt x="492" y="641" on="1"/>
        <pt x="522" y="692" on="1"/>
        <pt x="575" y="665" on="1"/>
        <pt x="535" y="597" on="1"/>
        <pt x="600" y="512" on="0"/>
        <pt x="605" y="187" on="0"/>
        <pt x="450" y="-15" on="0"/>
      </contour>
      <contour>
        <pt x="217" y="638" on="0"/>
        <pt x="113" y="476" on="0"/>
        <pt x="113" y="180" on="0"/>
        <pt x="177" y="101" on="1"/>
        <pt x="458" y="583" on="1"/>
        <pt x="407" y="639" on="0"/>
        <pt x="321" y="639" on="1"/>
      </contour>
      <contour>
        <pt x="424" y="39" on="0"/>
        <pt x="530" y="200" on="0"/>
        <pt x="530" y="453" on="0"/>
        <pt x="495" y="527" on="1"/>
        <pt x="224" y="61" on="1"/>
        <pt x="264" y="38" on="0"/>
        <pt x="319" y="38" on="1"/>
      </contour>
    </TTGlyph>
    <TTGlyph name="Otilde" xMin="39" yMin="-15" xMax="603" yMax="866">
      <contour>
        <pt x="179" y="814" on="0"/>
        <pt x="236" y="866" on="0"/>
        <pt x="302" y="866" on="0"/>
        <pt x="382" y="813" on="0"/>
        <pt x="432" y="813" on="0"/>
        <pt x="466" y="842" on="0"/>
        <pt x="471" y="865" on="1"/>
        <pt x="501" y="856" on="1"/>
        <pt x="493" y="809" on="0"/>
        <pt x="440" y="753" on="0"/>
        <pt x="361" y="753" on="0"/>
        <pt x="277" y="803" on="0"/>
        <pt x="235" y="803" on="0"/>
        <pt x="206" y="775" on="0"/>
        <pt x="199" y="756" on="1"/>
        <pt x="169" y="767" on="1"/>
      </contour>
      <contour>
        <pt x="217" y="638" on="0"/>
        <pt x="113" y="476" on="0"/>
        <pt x="113" y="201" on="0"/>
        <pt x="214" y="38" on="0"/>
        <pt x="424" y="39" on="0"/>
        <pt x="530" y="200" on="0"/>
        <pt x="530" y="475" on="0"/>
        <pt x="427" y="640" on="0"/>
      </contour>
      <contour>
        <pt x="333" y="692" on="1"/>
        <pt x="414" y="692" on="0"/>
        <pt x="476" y="652" on="1"/>
        <pt x="600" y="572" on="0"/>
        <pt x="603" y="356" on="1"/>
        <pt x="605" y="187" on="0"/>
        <pt x="450" y="-15" on="0"/>
        <pt x="304" y="-15" on="1"/>
        <pt x="182" y="-15" on="0"/>
        <pt x="42" y="161" on="0"/>
        <pt x="36" y="485" on="0"/>
        <pt x="192" y="692" on="0"/>
      </contour>
    </TTGlyph>
    <TTGlyph name="P" xMin="42" yMin="0" xMax="531" yMax="679">
      <contour>
        <pt x="72" y="679" on="1"/>
        <pt x="282" y="679" on="1"/>
        <pt x="405" y="679" on="0"/>
        <pt x="531" y="574" on="0"/>
        <pt x="531" y="490" on="1"/>
        <pt x="531" y="376" on="0"/>
        <pt x="382" y="272" on="0"/>
        <pt x="257" y="272" on="1"/>
        <pt x="224" y="272" on="0"/>
        <pt x="191" y="275" on="1"/>
        <pt x="191" y="50" on="1"/>
        <pt x="267" y="44" on="1"/>
        <pt x="271" y="0" on="0"/>
        <pt x="239" y="0" on="1"/>
        <pt x="42" y="0" on="1"/>
        <pt x="42" y="0" on="0"/>
        <pt x="42" y="8" on="1"/>
        <pt x="42" y="34" on="0"/>
        <pt x="56" y="42" on="1"/>
        <pt x="63" y="45" on="0"/>
        <pt x="73" y="46" on="1"/>
        <pt x="119" y="48" on="1"/>
        <pt x="119" y="629" on="1"/>
        <pt x="46" y="635" on="1"/>
        <pt x="43" y="679" on="0"/>
      </contour>
      <contour>
        <pt x="248" y="319" on="1"/>
        <pt x="454" y="319" on="0"/>
        <pt x="454" y="478" on="1"/>
        <pt x="454" y="647" on="0"/>
        <pt x="245" y="634" on="1"/>
        <pt x="191" y="631" on="1"/>
        <pt x="191" y="321" on="1"/>
        <pt x="211" y="319" on="0"/>
      </contour>
    </TTGlyph>
    <TTGlyph name="Q" xMin="39" yMin="-141" xMax="615" yMax="692">
      <contour>
        <pt x="607" y="-60" on="1"/>
        <pt x="615" y="-70" on="0"/>
        <pt x="615" y="-111" on="0"/>
        <pt x="579" y="-141" on="0"/>
        <pt x="525" y="-141" on="0"/>
        <pt x="468" y="-126" on="0"/>
        <pt x="404" y="-93" on="0"/>
        <pt x="361" y="-68" on="0"/>
        <pt x="288" y="-21" on="0"/>
        <pt x="276" y="-14" on="1"/>
        <pt x="167" y="-4" on="0"/>
        <pt x="42" y="171" on="0"/>
        <pt x="39" y="315" on="1"/>
        <pt x="36" y="485" on="0"/>
        <pt x="192" y="692" on="0"/>
        <pt x="333" y="692" on="1"/>
        <pt x="414" y="692" on="0"/>
        <pt x="476" y="652" on="1"/>
        <pt x="600" y="572" on="0"/>
        <pt x="603" y="356" on="1"/>
        <pt x="605" y="206" on="0"/>
        <pt x="481" y="11" on="0"/>
        <pt x="364" y="-10" on="1"/>
        <pt x="498" y="-76" on="0"/>
        <pt x="557" y="-76" on="1"/>
        <pt x="582" y="-76" on="0"/>
      </contour>
      <contour>
        <pt x="217" y="638" on="0"/>
        <pt x="113" y="476" on="0"/>
        <pt x="113" y="201" on="0"/>
        <pt x="214" y="38" on="0"/>
        <pt x="424" y="39" on="0"/>
        <pt x="530" y="200" on="0"/>
        <pt x="530" y="475" on="0"/>
        <pt x="427" y="640" on="0"/>
      </contour>
    </TTGlyph>
    <TTGlyph name="R" xMin="42" yMin="-15" xMax="566" yMax="679">
      <contour>
        <pt x="42" y="0" on="1"/>
        <pt x="42" y="16" on="1"/>
        <pt x="42" y="38" on="0"/>
        <pt x="62" y="44" on="1"/>
        <pt x="67" y="46" on="0"/>
        <pt x="73" y="46" on="1"/>
        <pt x="119" y="48" on="1"/>
        <pt x="119" y="629" on="1"/>
        <pt x="46" y="635" on="1"/>
        <pt x="43" y="679" on="0"/>
        <pt x="72" y="679" on="1"/>
        <pt x="291" y="679" on="1"/>
        <pt x="510" y="679" on="0"/>
        <pt x="510" y="513" on="1"/>
        <pt x="510" y="431" on="0"/>
        <pt x="407" y="332" on="0"/>
        <pt x="323" y="318" on="1"/>
        <pt x="384" y="189" on="0"/>
        <pt x="517" y="45" on="0"/>
        <pt x="566" y="45" on="1"/>
        <pt x="565" y="18" on="0"/>
        <pt x="536" y="-15" on="0"/>
        <pt x="514" y="-15" on="1"/>
        <pt x="473" y="-15" on="0"/>
        <pt x="422" y="38" on="1"/>
        <pt x="325" y="140" on="0"/>
        <pt x="262" y="313" on="1"/>
        <pt x="259" y="313" on="1"/>
        <pt x="226" y="313" on="0"/>
        <pt x="191" y="316" on="1"/>
        <pt x="191" y="50" on="1"/>
        <pt x="267" y="44" on="1"/>
        <pt x="271" y="0" on="0"/>
        <pt x="240" y="0" on="1"/>
      </contour>
      <contour>
        <pt x="191" y="631" on="1"/>
        <pt x="191" y="362" on="1"/>
        <pt x="233" y="360" on="0"/>
        <pt x="250" y="360" on="1"/>
        <pt x="340" y="360" on="0"/>
        <pt x="434" y="434" on="0"/>
        <pt x="434" y="500" on="1"/>
        <pt x="434" y="588" on="0"/>
        <pt x="378" y="615" on="1"/>
        <pt x="330" y="638" on="0"/>
        <pt x="253" y="634" on="1"/>
        <pt x="193" y="631" on="1"/>
      </contour>
    </TTGlyph>
    <TTGlyph name="Racute" xMin="42" yMin="-15" xMax="566" yMax="886">
      <contour>
        <pt x="42" y="0" on="1"/>
        <pt x="42" y="16" on="1"/>
        <pt x="42" y="38" on="0"/>
        <pt x="62" y="44" on="1"/>
        <pt x="67" y="46" on="0"/>
        <pt x="73" y="46" on="1"/>
        <pt x="119" y="48" on="1"/>
        <pt x="119" y="629" on="1"/>
        <pt x="46" y="635" on="1"/>
        <pt x="43" y="679" on="0"/>
        <pt x="72" y="679" on="1"/>
        <pt x="291" y="679" on="1"/>
        <pt x="510" y="679" on="0"/>
        <pt x="510" y="513" on="1"/>
        <pt x="510" y="431" on="0"/>
        <pt x="407" y="332" on="0"/>
        <pt x="323" y="318" on="1"/>
        <pt x="384" y="189" on="0"/>
        <pt x="517" y="45" on="0"/>
        <pt x="566" y="45" on="1"/>
        <pt x="565" y="18" on="0"/>
        <pt x="536" y="-15" on="0"/>
        <pt x="514" y="-15" on="1"/>
        <pt x="473" y="-15" on="0"/>
        <pt x="422" y="38" on="1"/>
        <pt x="325" y="140" on="0"/>
        <pt x="262" y="313" on="1"/>
        <pt x="259" y="313" on="1"/>
        <pt x="226" y="313" on="0"/>
        <pt x="191" y="316" on="1"/>
        <pt x="191" y="50" on="1"/>
        <pt x="267" y="44" on="1"/>
        <pt x="271" y="0" on="0"/>
        <pt x="240" y="0" on="1"/>
      </contour>
      <contour>
        <pt x="191" y="631" on="1"/>
        <pt x="191" y="362" on="1"/>
        <pt x="233" y="360" on="0"/>
        <pt x="250" y="360" on="1"/>
        <pt x="340" y="360" on="0"/>
        <pt x="434" y="434" on="0"/>
        <pt x="434" y="500" on="1"/>
        <pt x="434" y="588" on="0"/>
        <pt x="378" y="615" on="1"/>
        <pt x="330" y="638" on="0"/>
        <pt x="253" y="634" on="1"/>
        <pt x="193" y="631" on="1"/>
      </contour>
      <contour>
        <pt x="418" y="836" on="1"/>
        <pt x="220" y="730" on="1"/>
        <pt x="202" y="738" on="0"/>
        <pt x="191" y="759" on="1"/>
        <pt x="355" y="886" on="1"/>
        <pt x="373" y="884" on="0"/>
        <pt x="409" y="854" on="0"/>
      </contour>
    </TTGlyph>
    <TTGlyph name="Rcaron" xMin="42" yMin="-15" xMax="566" yMax="884">
      <contour>
        <pt x="42" y="0" on="1"/>
        <pt x="42" y="16" on="1"/>
        <pt x="42" y="38" on="0"/>
        <pt x="62" y="44" on="1"/>
        <pt x="67" y="46" on="0"/>
        <pt x="73" y="46" on="1"/>
        <pt x="119" y="48" on="1"/>
        <pt x="119" y="629" on="1"/>
        <pt x="46" y="635" on="1"/>
        <pt x="43" y="679" on="0"/>
        <pt x="72" y="679" on="1"/>
        <pt x="291" y="679" on="1"/>
        <pt x="510" y="679" on="0"/>
        <pt x="510" y="513" on="1"/>
        <pt x="510" y="431" on="0"/>
        <pt x="407" y="332" on="0"/>
        <pt x="323" y="318" on="1"/>
        <pt x="384" y="189" on="0"/>
        <pt x="517" y="45" on="0"/>
        <pt x="566" y="45" on="1"/>
        <pt x="565" y="18" on="0"/>
        <pt x="536" y="-15" on="0"/>
        <pt x="514" y="-15" on="1"/>
        <pt x="473" y="-15" on="0"/>
        <pt x="422" y="38" on="1"/>
        <pt x="325" y="140" on="0"/>
        <pt x="262" y="313" on="1"/>
        <pt x="259" y="313" on="1"/>
        <pt x="226" y="313" on="0"/>
        <pt x="191" y="316" on="1"/>
        <pt x="191" y="50" on="1"/>
        <pt x="267" y="44" on="1"/>
        <pt x="271" y="0" on="0"/>
        <pt x="240" y="0" on="1"/>
      </contour>
      <contour>
        <pt x="191" y="631" on="1"/>
        <pt x="191" y="362" on="1"/>
        <pt x="233" y="360" on="0"/>
        <pt x="250" y="360" on="1"/>
        <pt x="340" y="360" on="0"/>
        <pt x="434" y="434" on="0"/>
        <pt x="434" y="500" on="1"/>
        <pt x="434" y="588" on="0"/>
        <pt x="378" y="615" on="1"/>
        <pt x="330" y="638" on="0"/>
        <pt x="253" y="634" on="1"/>
        <pt x="193" y="631" on="1"/>
      </contour>
      <contour>
        <pt x="432" y="856" on="1"/>
        <pt x="301" y="735" on="1"/>
        <pt x="270" y="728" on="0"/>
        <pt x="239" y="735" on="1"/>
        <pt x="107" y="856" on="1"/>
        <pt x="119" y="877" on="0"/>
        <pt x="135" y="884" on="1"/>
        <pt x="270" y="796" on="1"/>
        <pt x="404" y="884" on="1"/>
        <pt x="421" y="876" on="0"/>
      </contour>
    </TTGlyph>
    <TTGlyph name="S" xMin="25" yMin="-15" xMax="470" yMax="692">
      <contour>
        <pt x="406" y="650" on="1"/>
        <pt x="438" y="623" on="0"/>
        <pt x="438" y="551" on="0"/>
        <pt x="401" y="520" on="0"/>
        <pt x="375" y="521" on="1"/>
        <pt x="375" y="637" on="0"/>
        <pt x="253" y="637" on="1"/>
        <pt x="196" y="637" on="0"/>
        <pt x="121" y="583" on="0"/>
        <pt x="121" y="535" on="1"/>
        <pt x="121" y="478" on="0"/>
        <pt x="176" y="443" on="1"/>
        <pt x="206" y="424" on="0"/>
        <pt x="244" y="406" on="0"/>
        <pt x="326" y="371" on="0"/>
        <pt x="371" y="349" on="0"/>
        <pt x="425" y="314" on="0"/>
        <pt x="438" y="298" on="1"/>
        <pt x="470" y="257" on="0"/>
        <pt x="470" y="203" on="1"/>
        <pt x="470" y="113" on="0"/>
        <pt x="335" y="-15" on="0"/>
        <pt x="225" y="-15" on="1"/>
        <pt x="146" y="-15" on="0"/>
        <pt x="25" y="49" on="0"/>
        <pt x="25" y="102" on="1"/>
        <pt x="25" y="128" on="0"/>
        <pt x="56" y="162" on="0"/>
        <pt x="83" y="162" on="1"/>
        <pt x="95" y="102" on="0"/>
        <pt x="177" y="40" on="0"/>
        <pt x="313" y="40" on="0"/>
        <pt x="401" y="115" on="0"/>
        <pt x="401" y="177" on="1"/>
        <pt x="401" y="235" on="0"/>
        <pt x="360" y="265" on="1"/>
        <pt x="328" y="289" on="0"/>
        <pt x="255" y="320" on="0"/>
        <pt x="201" y="344" on="0"/>
        <pt x="146" y="373" on="0"/>
        <pt x="114" y="396" on="1"/>
        <pt x="52" y="441" on="0"/>
        <pt x="52" y="595" on="0"/>
        <pt x="171" y="690" on="0"/>
        <pt x="259" y="692" on="1"/>
        <pt x="352" y="694" on="0"/>
      </contour>
    </TTGlyph>
    <TTGlyph name="Sacute" xMin="25" yMin="-15" xMax="470" yMax="886">
      <contour>
        <pt x="405" y="836" on="1"/>
        <pt x="207" y="730" on="1"/>
        <pt x="188" y="739" on="0"/>
        <pt x="177" y="759" on="1"/>
        <pt x="342" y="886" on="1"/>
        <pt x="360" y="884" on="0"/>
        <pt x="396" y="854" on="0"/>
      </contour>
      <contour>
        <pt x="406" y="650" on="1"/>
        <pt x="438" y="623" on="0"/>
        <pt x="438" y="551" on="0"/>
        <pt x="401" y="520" on="0"/>
        <pt x="375" y="521" on="1"/>
        <pt x="375" y="637" on="0"/>
        <pt x="253" y="637" on="1"/>
        <pt x="196" y="637" on="0"/>
        <pt x="121" y="583" on="0"/>
        <pt x="121" y="535" on="1"/>
        <pt x="121" y="478" on="0"/>
        <pt x="176" y="443" on="1"/>
        <pt x="206" y="424" on="0"/>
        <pt x="244" y="406" on="0"/>
        <pt x="326" y="371" on="0"/>
        <pt x="371" y="349" on="0"/>
        <pt x="425" y="314" on="0"/>
        <pt x="438" y="298" on="1"/>
        <pt x="470" y="257" on="0"/>
        <pt x="470" y="203" on="1"/>
        <pt x="470" y="113" on="0"/>
        <pt x="335" y="-15" on="0"/>
        <pt x="225" y="-15" on="1"/>
        <pt x="146" y="-15" on="0"/>
        <pt x="25" y="49" on="0"/>
        <pt x="25" y="102" on="1"/>
        <pt x="25" y="128" on="0"/>
        <pt x="56" y="162" on="0"/>
        <pt x="83" y="162" on="1"/>
        <pt x="95" y="102" on="0"/>
        <pt x="177" y="40" on="0"/>
        <pt x="313" y="40" on="0"/>
        <pt x="401" y="115" on="0"/>
        <pt x="401" y="177" on="1"/>
        <pt x="401" y="235" on="0"/>
        <pt x="360" y="265" on="1"/>
        <pt x="328" y="289" on="0"/>
        <pt x="255" y="320" on="0"/>
        <pt x="201" y="344" on="0"/>
        <pt x="146" y="373" on="0"/>
        <pt x="114" y="396" on="1"/>
        <pt x="52" y="441" on="0"/>
        <pt x="52" y="595" on="0"/>
        <pt x="171" y="690" on="0"/>
        <pt x="259" y="692" on="1"/>
        <pt x="352" y="694" on="0"/>
      </contour>
    </TTGlyph>
    <TTGlyph name="Scaron" xMin="25" yMin="-15" xMax="470" yMax="884">
      <contour>
        <pt x="470" y="203" on="1"/>
        <pt x="470" y="113" on="0"/>
        <pt x="335" y="-15" on="0"/>
        <pt x="225" y="-15" on="1"/>
        <pt x="146" y="-15" on="0"/>
        <pt x="25" y="49" on="0"/>
        <pt x="25" y="102" on="1"/>
        <pt x="25" y="128" on="0"/>
        <pt x="56" y="162" on="0"/>
        <pt x="83" y="162" on="1"/>
        <pt x="95" y="102" on="0"/>
        <pt x="177" y="40" on="0"/>
        <pt x="313" y="40" on="0"/>
        <pt x="401" y="115" on="0"/>
        <pt x="401" y="177" on="1"/>
        <pt x="401" y="235" on="0"/>
        <pt x="360" y="265" on="1"/>
        <pt x="328" y="289" on="0"/>
        <pt x="255" y="320" on="0"/>
        <pt x="201" y="344" on="0"/>
        <pt x="146" y="373" on="0"/>
        <pt x="114" y="396" on="1"/>
        <pt x="52" y="441" on="0"/>
        <pt x="52" y="595" on="0"/>
        <pt x="171" y="690" on="0"/>
        <pt x="259" y="692" on="1"/>
        <pt x="352" y="694" on="0"/>
        <pt x="406" y="650" on="1"/>
        <pt x="438" y="623" on="0"/>
        <pt x="438" y="551" on="0"/>
        <pt x="401" y="520" on="0"/>
        <pt x="375" y="521" on="1"/>
        <pt x="375" y="637" on="0"/>
        <pt x="253" y="637" on="1"/>
        <pt x="196" y="637" on="0"/>
        <pt x="121" y="583" on="0"/>
        <pt x="121" y="535" on="1"/>
        <pt x="121" y="478" on="0"/>
        <pt x="176" y="443" on="1"/>
        <pt x="206" y="424" on="0"/>
        <pt x="244" y="406" on="0"/>
        <pt x="326" y="371" on="0"/>
        <pt x="371" y="349" on="0"/>
        <pt x="425" y="314" on="0"/>
        <pt x="438" y="298" on="1"/>
        <pt x="470" y="257" on="0"/>
      </contour>
      <contour>
        <pt x="419" y="856" on="1"/>
        <pt x="288" y="735" on="1"/>
        <pt x="256" y="728" on="0"/>
        <pt x="226" y="735" on="1"/>
        <pt x="94" y="856" on="1"/>
        <pt x="106" y="877" on="0"/>
        <pt x="122" y="884" on="1"/>
        <pt x="257" y="797" on="1"/>
        <pt x="391" y="884" on="1"/>
        <pt x="406" y="877" on="0"/>
      </contour>
    </TTGlyph>
    <TTGlyph name="Scircumflex" xMin="25" yMin="-15" xMax="470" yMax="869">
      <contour>
        <pt x="470" y="203" on="1"/>
        <pt x="470" y="113" on="0"/>
        <pt x="335" y="-15" on="0"/>
        <pt x="225" y="-15" on="1"/>
        <pt x="146" y="-15" on="0"/>
        <pt x="25" y="49" on="0"/>
        <pt x="25" y="102" on="1"/>
        <pt x="25" y="128" on="0"/>
        <pt x="56" y="162" on="0"/>
        <pt x="83" y="162" on="1"/>
        <pt x="95" y="102" on="0"/>
        <pt x="177" y="40" on="0"/>
        <pt x="313" y="40" on="0"/>
        <pt x="401" y="115" on="0"/>
        <pt x="401" y="177" on="1"/>
        <pt x="401" y="235" on="0"/>
        <pt x="360" y="265" on="1"/>
        <pt x="328" y="289" on="0"/>
        <pt x="255" y="320" on="0"/>
        <pt x="201" y="344" on="0"/>
        <pt x="146" y="373" on="0"/>
        <pt x="114" y="396" on="1"/>
        <pt x="52" y="441" on="0"/>
        <pt x="52" y="595" on="0"/>
        <pt x="171" y="690" on="0"/>
        <pt x="259" y="692" on="1"/>
        <pt x="352" y="694" on="0"/>
        <pt x="406" y="650" on="1"/>
        <pt x="438" y="623" on="0"/>
        <pt x="438" y="551" on="0"/>
        <pt x="401" y="520" on="0"/>
        <pt x="375" y="521" on="1"/>
        <pt x="375" y="637" on="0"/>
        <pt x="253" y="637" on="1"/>
        <pt x="196" y="637" on="0"/>
        <pt x="121" y="583" on="0"/>
        <pt x="121" y="535" on="1"/>
        <pt x="121" y="478" on="0"/>
        <pt x="176" y="443" on="1"/>
        <pt x="206" y="424" on="0"/>
        <pt x="244" y="406" on="0"/>
        <pt x="326" y="371" on="0"/>
        <pt x="371" y="349" on="0"/>
        <pt x="425" y="314" on="0"/>
        <pt x="438" y="298" on="1"/>
        <pt x="470" y="257" on="0"/>
      </contour>
      <contour>
        <pt x="257" y="808" on="1"/>
        <pt x="123" y="720" on="1"/>
        <pt x="106" y="729" on="0"/>
        <pt x="95" y="748" on="1"/>
        <pt x="227" y="869" on="1"/>
        <pt x="260" y="877" on="0"/>
        <pt x="288" y="869" on="1"/>
        <pt x="419" y="748" on="1"/>
        <pt x="408" y="729" on="0"/>
        <pt x="391" y="720" on="1"/>
      </contour>
    </TTGlyph>
    <TTGlyph name="T" xMin="20" yMin="0" xMax="583" yMax="677">
      <contour>
        <pt x="20" y="677" on="1"/>
        <pt x="583" y="677" on="1"/>
        <pt x="583" y="557" on="1"/>
        <pt x="583" y="525" on="0"/>
        <pt x="539" y="529" on="1"/>
        <pt x="532" y="626" on="1"/>
        <pt x="339" y="626" on="1"/>
        <pt x="339" y="50" on="1"/>
        <pt x="415" y="44" on="1"/>
        <pt x="419" y="0" on="0"/>
        <pt x="387" y="0" on="1"/>
        <pt x="188" y="0" on="1"/>
        <pt x="188" y="0" on="0"/>
        <pt x="188" y="8" on="1"/>
        <pt x="188" y="34" on="0"/>
        <pt x="202" y="42" on="1"/>
        <pt x="209" y="45" on="0"/>
        <pt x="219" y="46" on="1"/>
        <pt x="267" y="48" on="1"/>
        <pt x="267" y="626" on="1"/>
        <pt x="71" y="626" on="1"/>
        <pt x="64" y="529" on="1"/>
        <pt x="20" y="525" on="0"/>
        <pt x="20" y="557" on="1"/>
      </contour>
    </TTGlyph>
    <TTGlyph name="Tbar" xMin="20" yMin="0" xMax="583" yMax="823">
      <contour>
        <pt x="20" y="677" on="1"/>
        <pt x="583" y="677" on="1"/>
        <pt x="583" y="557" on="1"/>
        <pt x="583" y="525" on="0"/>
        <pt x="539" y="529" on="1"/>
        <pt x="532" y="626" on="1"/>
        <pt x="339" y="626" on="1"/>
        <pt x="339" y="50" on="1"/>
        <pt x="415" y="44" on="1"/>
        <pt x="419" y="0" on="0"/>
        <pt x="387" y="0" on="1"/>
        <pt x="188" y="0" on="1"/>
        <pt x="188" y="0" on="0"/>
        <pt x="188" y="8" on="1"/>
        <pt x="188" y="34" on="0"/>
        <pt x="202" y="42" on="1"/>
        <pt x="209" y="45" on="0"/>
        <pt x="219" y="46" on="1"/>
        <pt x="267" y="48" on="1"/>
        <pt x="267" y="626" on="1"/>
        <pt x="71" y="626" on="1"/>
        <pt x="64" y="529" on="1"/>
        <pt x="20" y="525" on="0"/>
        <pt x="20" y="557" on="1"/>
      </contour>
      <contour>
        <pt x="437" y="823" on="1"/>
        <pt x="437" y="766" on="1"/>
        <pt x="174" y="766" on="1"/>
        <pt x="174" y="823" on="1"/>
      </contour>
    </TTGlyph>
    <TTGlyph name="Tcaron" xMin="20" yMin="0" xMax="583" yMax="884">
      <contour>
        <pt x="20" y="677" on="1"/>
        <pt x="583" y="677" on="1"/>
        <pt x="583" y="557" on="1"/>
        <pt x="583" y="525" on="0"/>
        <pt x="539" y="529" on="1"/>
        <pt x="532" y="626" on="1"/>
        <pt x="339" y="626" on="1"/>
        <pt x="339" y="50" on="1"/>
        <pt x="415" y="44" on="1"/>
        <pt x="419" y="0" on="0"/>
        <pt x="387" y="0" on="1"/>
        <pt x="188" y="0" on="1"/>
        <pt x="188" y="0" on="0"/>
        <pt x="188" y="8" on="1"/>
        <pt x="188" y="34" on="0"/>
        <pt x="202" y="42" on="1"/>
        <pt x="209" y="45" on="0"/>
        <pt x="219" y="46" on="1"/>
        <pt x="267" y="48" on="1"/>
        <pt x="267" y="626" on="1"/>
        <pt x="71" y="626" on="1"/>
        <pt x="64" y="529" on="1"/>
        <pt x="20" y="525" on="0"/>
        <pt x="20" y="557" on="1"/>
      </contour>
      <contour>
        <pt x="467" y="856" on="1"/>
        <pt x="336" y="735" on="1"/>
        <pt x="308" y="727" on="0"/>
        <pt x="275" y="735" on="1"/>
        <pt x="143" y="856" on="1"/>
        <pt x="153" y="875" on="0"/>
        <pt x="171" y="884" on="1"/>
        <pt x="305" y="796" on="1"/>
        <pt x="439" y="884" on="1"/>
        <pt x="456" y="875" on="0"/>
      </contour>
    </TTGlyph>
    <TTGlyph name="Thorn" xMin="42" yMin="0" xMax="532" yMax="679">
      <contour>
        <pt x="191" y="549" on="1"/>
        <pt x="278" y="549" on="1"/>
        <pt x="405" y="549" on="0"/>
        <pt x="532" y="444" on="0"/>
        <pt x="532" y="359" on="1"/>
        <pt x="532" y="247" on="0"/>
        <pt x="383" y="146" on="0"/>
        <pt x="255" y="146" on="1"/>
        <pt x="212" y="146" on="0"/>
        <pt x="191" y="147" on="1"/>
        <pt x="191" y="50" on="1"/>
        <pt x="264" y="44" on="1"/>
        <pt x="268" y="0" on="0"/>
        <pt x="237" y="0" on="1"/>
        <pt x="42" y="0" on="1"/>
        <pt x="42" y="0" on="0"/>
        <pt x="42" y="8" on="1"/>
        <pt x="42" y="34" on="0"/>
        <pt x="56" y="42" on="1"/>
        <pt x="63" y="45" on="0"/>
        <pt x="73" y="46" on="1"/>
        <pt x="119" y="48" on="1"/>
        <pt x="119" y="628" on="1"/>
        <pt x="46" y="634" on="1"/>
        <pt x="42" y="679" on="0"/>
        <pt x="73" y="679" on="1"/>
        <pt x="268" y="679" on="1"/>
        <pt x="268" y="679" on="0"/>
        <pt x="268" y="671" on="1"/>
        <pt x="268" y="644" on="0"/>
        <pt x="254" y="638" on="1"/>
        <pt x="247" y="634" on="0"/>
        <pt x="237" y="633" on="1"/>
        <pt x="191" y="630" on="1"/>
      </contour>
      <contour>
        <pt x="191" y="193" on="1"/>
        <pt x="244" y="192" on="1"/>
        <pt x="350" y="192" on="0"/>
        <pt x="452" y="269" on="0"/>
        <pt x="452" y="430" on="0"/>
        <pt x="350" y="504" on="0"/>
        <pt x="241" y="504" on="1"/>
        <pt x="191" y="504" on="1"/>
      </contour>
    </TTGlyph>
    <TTGlyph name="U" xMin="23" yMin="-15" xMax="624" yMax="677">
      <contour>
        <pt x="450" y="677" on="1"/>
        <pt x="624" y="677" on="1"/>
        <pt x="624" y="677" on="0"/>
        <pt x="624" y="669" on="1"/>
        <pt x="624" y="642" on="0"/>
        <pt x="610" y="636" on="1"/>
        <pt x="603" y="632" on="0"/>
        <pt x="593" y="631" on="1"/>
        <pt x="549" y="629" on="1"/>
        <pt x="549" y="254" on="1"/>
        <pt x="549" y="126" on="0"/>
        <pt x="434" y="-15" on="0"/>
        <pt x="312" y="-15" on="1"/>
        <pt x="96" y="-15" on="0"/>
        <pt x="96" y="241" on="1"/>
        <pt x="96" y="627" on="1"/>
        <pt x="23" y="633" on="1"/>
        <pt x="19" y="677" on="0"/>
        <pt x="50" y="677" on="1"/>
        <pt x="245" y="677" on="1"/>
        <pt x="245" y="677" on="0"/>
        <pt x="245" y="669" on="1"/>
        <pt x="245" y="643" on="0"/>
        <pt x="230" y="636" on="1"/>
        <pt x="223" y="632" on="0"/>
        <pt x="213" y="631" on="1"/>
        <pt x="168" y="629" on="1"/>
        <pt x="167" y="245" on="1"/>
        <pt x="167" y="37" on="0"/>
        <pt x="321" y="37" on="1"/>
        <pt x="404" y="37" on="0"/>
        <pt x="495" y="138" on="0"/>
        <pt x="495" y="242" on="1"/>
        <pt x="495" y="627" on="1"/>
        <pt x="422" y="633" on="1"/>
        <pt x="418" y="677" on="0"/>
      </contour>
    </TTGlyph>
    <TTGlyph name="Uacute" xMin="23" yMin="-15" xMax="624" yMax="886">
      <contour>
        <pt x="474" y="836" on="1"/>
        <pt x="276" y="730" on="1"/>
        <pt x="257" y="739" on="0"/>
        <pt x="246" y="759" on="1"/>
        <pt x="411" y="886" on="1"/>
        <pt x="429" y="884" on="0"/>
        <pt x="465" y="854" on="0"/>
      </contour>
      <contour>
        <pt x="450" y="677" on="1"/>
        <pt x="624" y="677" on="1"/>
        <pt x="624" y="677" on="0"/>
        <pt x="624" y="669" on="1"/>
        <pt x="624" y="642" on="0"/>
        <pt x="610" y="636" on="1"/>
        <pt x="603" y="632" on="0"/>
        <pt x="593" y="631" on="1"/>
        <pt x="549" y="629" on="1"/>
        <pt x="549" y="254" on="1"/>
        <pt x="549" y="126" on="0"/>
        <pt x="434" y="-15" on="0"/>
        <pt x="312" y="-15" on="1"/>
        <pt x="96" y="-15" on="0"/>
        <pt x="96" y="241" on="1"/>
        <pt x="96" y="627" on="1"/>
        <pt x="23" y="633" on="1"/>
        <pt x="19" y="677" on="0"/>
        <pt x="50" y="677" on="1"/>
        <pt x="245" y="677" on="1"/>
        <pt x="245" y="677" on="0"/>
        <pt x="245" y="669" on="1"/>
        <pt x="245" y="643" on="0"/>
        <pt x="230" y="636" on="1"/>
        <pt x="223" y="632" on="0"/>
        <pt x="213" y="631" on="1"/>
        <pt x="168" y="629" on="1"/>
        <pt x="167" y="245" on="1"/>
        <pt x="167" y="37" on="0"/>
        <pt x="321" y="37" on="1"/>
        <pt x="404" y="37" on="0"/>
        <pt x="495" y="138" on="0"/>
        <pt x="495" y="242" on="1"/>
        <pt x="495" y="627" on="1"/>
        <pt x="422" y="633" on="1"/>
        <pt x="418" y="677" on="0"/>
      </contour>
    </TTGlyph>
    <TTGlyph name="Ubreve" xMin="23" yMin="-15" xMax="624" yMax="879">
      <contour>
        <pt x="450" y="677" on="1"/>
        <pt x="624" y="677" on="1"/>
        <pt x="624" y="677" on="0"/>
        <pt x="624" y="669" on="1"/>
        <pt x="624" y="642" on="0"/>
        <pt x="610" y="636" on="1"/>
        <pt x="603" y="632" on="0"/>
        <pt x="593" y="631" on="1"/>
        <pt x="549" y="629" on="1"/>
        <pt x="549" y="254" on="1"/>
        <pt x="549" y="126" on="0"/>
        <pt x="434" y="-15" on="0"/>
        <pt x="312" y="-15" on="1"/>
        <pt x="96" y="-15" on="0"/>
        <pt x="96" y="241" on="1"/>
        <pt x="96" y="627" on="1"/>
        <pt x="23" y="633" on="1"/>
        <pt x="19" y="677" on="0"/>
        <pt x="50" y="677" on="1"/>
        <pt x="245" y="677" on="1"/>
        <pt x="245" y="677" on="0"/>
        <pt x="245" y="669" on="1"/>
        <pt x="245" y="643" on="0"/>
        <pt x="230" y="636" on="1"/>
        <pt x="223" y="632" on="0"/>
        <pt x="213" y="631" on="1"/>
        <pt x="168" y="629" on="1"/>
        <pt x="167" y="245" on="1"/>
        <pt x="167" y="37" on="0"/>
        <pt x="321" y="37" on="1"/>
        <pt x="404" y="37" on="0"/>
        <pt x="495" y="138" on="0"/>
        <pt x="495" y="242" on="1"/>
        <pt x="495" y="627" on="1"/>
        <pt x="422" y="633" on="1"/>
        <pt x="418" y="677" on="0"/>
      </contour>
      <contour>
        <pt x="327" y="800" on="1"/>
        <pt x="417" y="800" on="0"/>
        <pt x="447" y="878" on="1"/>
        <pt x="481" y="863" on="1"/>
        <pt x="474" y="813" on="0"/>
        <pt x="394" y="735" on="0"/>
        <pt x="258" y="735" on="0"/>
        <pt x="178" y="813" on="0"/>
        <pt x="171" y="863" on="1"/>
        <pt x="205" y="879" on="1"/>
        <pt x="216" y="850" on="0"/>
        <pt x="277" y="800" on="0"/>
      </contour>
    </TTGlyph>
    <TTGlyph name="Ucircumflex" xMin="23" yMin="-15" xMax="624" yMax="869">
      <contour>
        <pt x="450" y="677" on="1"/>
        <pt x="624" y="677" on="1"/>
        <pt x="624" y="677" on="0"/>
        <pt x="624" y="669" on="1"/>
        <pt x="624" y="642" on="0"/>
        <pt x="610" y="636" on="1"/>
        <pt x="603" y="632" on="0"/>
        <pt x="593" y="631" on="1"/>
        <pt x="549" y="629" on="1"/>
        <pt x="549" y="254" on="1"/>
        <pt x="549" y="126" on="0"/>
        <pt x="434" y="-15" on="0"/>
        <pt x="312" y="-15" on="1"/>
        <pt x="96" y="-15" on="0"/>
        <pt x="96" y="241" on="1"/>
        <pt x="96" y="627" on="1"/>
        <pt x="23" y="633" on="1"/>
        <pt x="19" y="677" on="0"/>
        <pt x="50" y="677" on="1"/>
        <pt x="245" y="677" on="1"/>
        <pt x="245" y="677" on="0"/>
        <pt x="245" y="669" on="1"/>
        <pt x="245" y="643" on="0"/>
        <pt x="230" y="636" on="1"/>
        <pt x="223" y="632" on="0"/>
        <pt x="213" y="631" on="1"/>
        <pt x="168" y="629" on="1"/>
        <pt x="167" y="245" on="1"/>
        <pt x="167" y="37" on="0"/>
        <pt x="321" y="37" on="1"/>
        <pt x="404" y="37" on="0"/>
        <pt x="495" y="138" on="0"/>
        <pt x="495" y="242" on="1"/>
        <pt x="495" y="627" on="1"/>
        <pt x="422" y="633" on="1"/>
        <pt x="418" y="677" on="0"/>
      </contour>
      <contour>
        <pt x="326" y="808" on="1"/>
        <pt x="191" y="720" on="1"/>
        <pt x="174" y="729" on="0"/>
        <pt x="163" y="748" on="1"/>
        <pt x="295" y="869" on="1"/>
        <pt x="329" y="877" on="0"/>
        <pt x="357" y="869" on="1"/>
        <pt x="488" y="748" on="1"/>
        <pt x="475" y="727" on="0"/>
        <pt x="460" y="720" on="1"/>
      </contour>
    </TTGlyph>
    <TTGlyph name="Udieresis" xMin="23" yMin="-15" xMax="624" yMax="855">
      <contour>
        <pt x="459" y="781" on="0"/>
        <pt x="429" y="751" on="0"/>
        <pt x="386" y="751" on="0"/>
        <pt x="355" y="782" on="0"/>
        <pt x="355" y="823" on="0"/>
        <pt x="386" y="855" on="0"/>
        <pt x="429" y="855" on="0"/>
        <pt x="459" y="824" on="0"/>
      </contour>
      <contour>
        <pt x="265" y="751" on="0"/>
        <pt x="221" y="751" on="0"/>
        <pt x="190" y="781" on="0"/>
        <pt x="190" y="824" on="0"/>
        <pt x="222" y="855" on="0"/>
        <pt x="264" y="855" on="0"/>
        <pt x="294" y="824" on="0"/>
        <pt x="294" y="781" on="0"/>
      </contour>
      <contour>
        <pt x="450" y="677" on="1"/>
        <pt x="624" y="677" on="1"/>
        <pt x="624" y="669" on="1"/>
        <pt x="624" y="642" on="0"/>
        <pt x="610" y="636" on="1"/>
        <pt x="603" y="632" on="0"/>
        <pt x="593" y="631" on="1"/>
        <pt x="549" y="629" on="1"/>
        <pt x="549" y="254" on="1"/>
        <pt x="549" y="126" on="0"/>
        <pt x="434" y="-15" on="0"/>
        <pt x="312" y="-15" on="1"/>
        <pt x="96" y="-15" on="0"/>
        <pt x="96" y="241" on="1"/>
        <pt x="96" y="627" on="1"/>
        <pt x="23" y="633" on="1"/>
        <pt x="19" y="677" on="0"/>
        <pt x="50" y="677" on="1"/>
        <pt x="245" y="677" on="1"/>
        <pt x="245" y="669" on="1"/>
        <pt x="245" y="643" on="0"/>
        <pt x="230" y="636" on="1"/>
        <pt x="223" y="632" on="0"/>
        <pt x="213" y="631" on="1"/>
        <pt x="168" y="629" on="1"/>
        <pt x="167" y="245" on="1"/>
        <pt x="167" y="37" on="0"/>
        <pt x="321" y="37" on="1"/>
        <pt x="404" y="37" on="0"/>
        <pt x="495" y="138" on="0"/>
        <pt x="495" y="242" on="1"/>
        <pt x="495" y="627" on="1"/>
        <pt x="422" y="633" on="1"/>
        <pt x="418" y="677" on="0"/>
      </contour>
    </TTGlyph>
    <TTGlyph name="Ugrave" xMin="23" yMin="-15" xMax="624" yMax="878">
      <contour>
        <pt x="393" y="722" on="1"/>
        <pt x="194" y="829" on="1"/>
        <pt x="203" y="846" on="0"/>
        <pt x="239" y="876" on="0"/>
        <pt x="257" y="878" on="1"/>
        <pt x="422" y="751" on="1"/>
        <pt x="411" y="731" on="0"/>
      </contour>
      <contour>
        <pt x="450" y="677" on="1"/>
        <pt x="624" y="677" on="1"/>
        <pt x="624" y="677" on="0"/>
        <pt x="624" y="669" on="1"/>
        <pt x="624" y="642" on="0"/>
        <pt x="610" y="636" on="1"/>
        <pt x="603" y="632" on="0"/>
        <pt x="593" y="631" on="1"/>
        <pt x="549" y="629" on="1"/>
        <pt x="549" y="254" on="1"/>
        <pt x="549" y="126" on="0"/>
        <pt x="434" y="-15" on="0"/>
        <pt x="312" y="-15" on="1"/>
        <pt x="96" y="-15" on="0"/>
        <pt x="96" y="241" on="1"/>
        <pt x="96" y="627" on="1"/>
        <pt x="23" y="633" on="1"/>
        <pt x="19" y="677" on="0"/>
        <pt x="50" y="677" on="1"/>
        <pt x="245" y="677" on="1"/>
        <pt x="245" y="677" on="0"/>
        <pt x="245" y="669" on="1"/>
        <pt x="245" y="643" on="0"/>
        <pt x="230" y="636" on="1"/>
        <pt x="223" y="632" on="0"/>
        <pt x="213" y="631" on="1"/>
        <pt x="168" y="629" on="1"/>
        <pt x="167" y="245" on="1"/>
        <pt x="167" y="37" on="0"/>
        <pt x="321" y="37" on="1"/>
        <pt x="404" y="37" on="0"/>
        <pt x="495" y="138" on="0"/>
        <pt x="495" y="242" on="1"/>
        <pt x="495" y="627" on="1"/>
        <pt x="422" y="633" on="1"/>
        <pt x="418" y="677" on="0"/>
      </contour>
    </TTGlyph>
    <TTGlyph name="Uhungarumlaut" xMin="23" yMin="-15" xMax="624" yMax="847">
      <contour>
        <pt x="450" y="677" on="1"/>
        <pt x="624" y="677" on="1"/>
        <pt x="624" y="677" on="0"/>
        <pt x="624" y="669" on="1"/>
        <pt x="624" y="642" on="0"/>
        <pt x="610" y="636" on="1"/>
        <pt x="603" y="632" on="0"/>
        <pt x="593" y="631" on="1"/>
        <pt x="549" y="629" on="1"/>
        <pt x="549" y="254" on="1"/>
        <pt x="549" y="126" on="0"/>
        <pt x="434" y="-15" on="0"/>
        <pt x="312" y="-15" on="1"/>
        <pt x="96" y="-15" on="0"/>
        <pt x="96" y="241" on="1"/>
        <pt x="96" y="627" on="1"/>
        <pt x="23" y="633" on="1"/>
        <pt x="19" y="677" on="0"/>
        <pt x="50" y="677" on="1"/>
        <pt x="245" y="677" on="1"/>
        <pt x="245" y="677" on="0"/>
        <pt x="245" y="669" on="1"/>
        <pt x="245" y="643" on="0"/>
        <pt x="230" y="636" on="1"/>
        <pt x="223" y="632" on="0"/>
        <pt x="213" y="631" on="1"/>
        <pt x="168" y="629" on="1"/>
        <pt x="167" y="245" on="1"/>
        <pt x="167" y="37" on="0"/>
        <pt x="321" y="37" on="1"/>
        <pt x="404" y="37" on="0"/>
        <pt x="495" y="138" on="0"/>
        <pt x="495" y="242" on="1"/>
        <pt x="495" y="627" on="1"/>
        <pt x="422" y="633" on="1"/>
        <pt x="418" y="677" on="0"/>
      </contour>
      <contour>
        <pt x="415" y="798" on="1"/>
        <pt x="216" y="691" on="1"/>
        <pt x="198" y="700" on="0"/>
        <pt x="187" y="720" on="1"/>
        <pt x="352" y="847" on="1"/>
        <pt x="370" y="845" on="0"/>
        <pt x="406" y="815" on="0"/>
      </contour>
      <contour>
        <pt x="594" y="798" on="1"/>
        <pt x="395" y="691" on="1"/>
        <pt x="377" y="700" on="0"/>
        <pt x="366" y="720" on="1"/>
        <pt x="531" y="847" on="1"/>
        <pt x="549" y="845" on="0"/>
        <pt x="585" y="815" on="0"/>
      </contour>
    </TTGlyph>
    <TTGlyph name="Umacron" xMin="23" yMin="-15" xMax="624" yMax="822">
      <contour>
        <pt x="194" y="822" on="1"/>
        <pt x="457" y="822" on="1"/>
        <pt x="457" y="766" on="1"/>
        <pt x="194" y="766" on="1"/>
      </contour>
      <contour>
        <pt x="450" y="677" on="1"/>
        <pt x="624" y="677" on="1"/>
        <pt x="624" y="677" on="0"/>
        <pt x="624" y="669" on="1"/>
        <pt x="624" y="642" on="0"/>
        <pt x="610" y="636" on="1"/>
        <pt x="603" y="632" on="0"/>
        <pt x="593" y="631" on="1"/>
        <pt x="549" y="629" on="1"/>
        <pt x="549" y="254" on="1"/>
        <pt x="549" y="126" on="0"/>
        <pt x="434" y="-15" on="0"/>
        <pt x="312" y="-15" on="1"/>
        <pt x="96" y="-15" on="0"/>
        <pt x="96" y="241" on="1"/>
        <pt x="96" y="627" on="1"/>
        <pt x="23" y="633" on="1"/>
        <pt x="19" y="677" on="0"/>
        <pt x="50" y="677" on="1"/>
        <pt x="245" y="677" on="1"/>
        <pt x="245" y="677" on="0"/>
        <pt x="245" y="669" on="1"/>
        <pt x="245" y="643" on="0"/>
        <pt x="230" y="636" on="1"/>
        <pt x="223" y="632" on="0"/>
        <pt x="213" y="631" on="1"/>
        <pt x="168" y="629" on="1"/>
        <pt x="167" y="245" on="1"/>
        <pt x="167" y="37" on="0"/>
        <pt x="321" y="37" on="1"/>
        <pt x="404" y="37" on="0"/>
        <pt x="495" y="138" on="0"/>
        <pt x="495" y="242" on="1"/>
        <pt x="495" y="627" on="1"/>
        <pt x="422" y="633" on="1"/>
        <pt x="418" y="677" on="0"/>
      </contour>
    </TTGlyph>
    <TTGlyph name="Uogonek" xMin="23" yMin="-177" xMax="624" yMax="677">
      <contour>
        <pt x="450" y="677" on="1"/>
        <pt x="624" y="677" on="1"/>
        <pt x="624" y="677" on="0"/>
        <pt x="624" y="669" on="1"/>
        <pt x="624" y="642" on="0"/>
        <pt x="610" y="636" on="1"/>
        <pt x="603" y="632" on="0"/>
        <pt x="593" y="631" on="1"/>
        <pt x="549" y="629" on="1"/>
        <pt x="549" y="254" on="1"/>
        <pt x="549" y="38" on="0"/>
        <pt x="393" y="-5" on="1"/>
        <pt x="322" y="-35" on="0"/>
        <pt x="322" y="-86" on="1"/>
        <pt x="322" y="-134" on="0"/>
        <pt x="373" y="-134" on="1"/>
        <pt x="401" y="-134" on="0"/>
        <pt x="429" y="-111" on="1"/>
        <pt x="433" y="-114" on="0"/>
        <pt x="438" y="-136" on="0"/>
        <pt x="436" y="-143" on="1"/>
        <pt x="412" y="-177" on="0"/>
        <pt x="353" y="-177" on="1"/>
        <pt x="314" y="-177" on="0"/>
        <pt x="263" y="-136" on="0"/>
        <pt x="263" y="-100" on="1"/>
        <pt x="263" y="-51" on="0"/>
        <pt x="308" y="-15" on="1"/>
        <pt x="96" y="-12" on="0"/>
        <pt x="96" y="241" on="1"/>
        <pt x="96" y="627" on="1"/>
        <pt x="23" y="633" on="1"/>
        <pt x="19" y="677" on="0"/>
        <pt x="50" y="677" on="1"/>
        <pt x="245" y="677" on="1"/>
        <pt x="245" y="677" on="0"/>
        <pt x="245" y="669" on="1"/>
        <pt x="245" y="643" on="0"/>
        <pt x="230" y="636" on="1"/>
        <pt x="223" y="632" on="0"/>
        <pt x="213" y="631" on="1"/>
        <pt x="168" y="629" on="1"/>
        <pt x="167" y="245" on="1"/>
        <pt x="167" y="37" on="0"/>
        <pt x="321" y="37" on="1"/>
        <pt x="404" y="37" on="0"/>
        <pt x="495" y="138" on="0"/>
        <pt x="495" y="242" on="1"/>
        <pt x="495" y="627" on="1"/>
        <pt x="422" y="633" on="1"/>
        <pt x="418" y="677" on="0"/>
      </contour>
    </TTGlyph>
    <TTGlyph name="Uring" xMin="23" yMin="-15" xMax="624" yMax="905">
      <contour>
        <pt x="349" y="863" on="0"/>
        <pt x="307" y="863" on="0"/>
        <pt x="283" y="839" on="0"/>
        <pt x="283" y="797" on="0"/>
        <pt x="307" y="773" on="0"/>
        <pt x="349" y="773" on="0"/>
        <pt x="373" y="797" on="0"/>
        <pt x="373" y="839" on="0"/>
      </contour>
      <contour>
        <pt x="237" y="856" on="0"/>
        <pt x="288" y="905" on="0"/>
        <pt x="371" y="905" on="0"/>
        <pt x="419" y="859" on="0"/>
        <pt x="418" y="780" on="0"/>
        <pt x="367" y="731" on="0"/>
        <pt x="286" y="731" on="0"/>
        <pt x="237" y="778" on="0"/>
      </contour>
      <contour>
        <pt x="450" y="677" on="1"/>
        <pt x="624" y="677" on="1"/>
        <pt x="624" y="669" on="1"/>
        <pt x="624" y="642" on="0"/>
        <pt x="610" y="636" on="1"/>
        <pt x="603" y="632" on="0"/>
        <pt x="593" y="631" on="1"/>
        <pt x="549" y="629" on="1"/>
        <pt x="549" y="254" on="1"/>
        <pt x="549" y="126" on="0"/>
        <pt x="434" y="-15" on="0"/>
        <pt x="312" y="-15" on="1"/>
        <pt x="96" y="-15" on="0"/>
        <pt x="96" y="241" on="1"/>
        <pt x="96" y="627" on="1"/>
        <pt x="23" y="633" on="1"/>
        <pt x="19" y="677" on="0"/>
        <pt x="50" y="677" on="1"/>
        <pt x="245" y="677" on="1"/>
        <pt x="245" y="669" on="1"/>
        <pt x="245" y="643" on="0"/>
        <pt x="230" y="636" on="1"/>
        <pt x="223" y="632" on="0"/>
        <pt x="213" y="631" on="1"/>
        <pt x="168" y="629" on="1"/>
        <pt x="167" y="245" on="1"/>
        <pt x="167" y="37" on="0"/>
        <pt x="321" y="37" on="1"/>
        <pt x="404" y="37" on="0"/>
        <pt x="495" y="138" on="0"/>
        <pt x="495" y="242" on="1"/>
        <pt x="495" y="627" on="1"/>
        <pt x="422" y="633" on="1"/>
        <pt x="418" y="677" on="0"/>
      </contour>
    </TTGlyph>
    <TTGlyph name="Utilde" xMin="23" yMin="-15" xMax="624" yMax="866">
      <contour>
        <pt x="450" y="677" on="1"/>
        <pt x="624" y="677" on="1"/>
        <pt x="624" y="677" on="0"/>
        <pt x="624" y="669" on="1"/>
        <pt x="624" y="642" on="0"/>
        <pt x="610" y="636" on="1"/>
        <pt x="603" y="632" on="0"/>
        <pt x="593" y="631" on="1"/>
        <pt x="549" y="629" on="1"/>
        <pt x="549" y="254" on="1"/>
        <pt x="549" y="126" on="0"/>
        <pt x="434" y="-15" on="0"/>
        <pt x="312" y="-15" on="1"/>
        <pt x="96" y="-15" on="0"/>
        <pt x="96" y="241" on="1"/>
        <pt x="96" y="627" on="1"/>
        <pt x="23" y="633" on="1"/>
        <pt x="19" y="677" on="0"/>
        <pt x="50" y="677" on="1"/>
        <pt x="245" y="677" on="1"/>
        <pt x="245" y="677" on="0"/>
        <pt x="245" y="669" on="1"/>
        <pt x="245" y="643" on="0"/>
        <pt x="230" y="636" on="1"/>
        <pt x="223" y="632" on="0"/>
        <pt x="213" y="631" on="1"/>
        <pt x="168" y="629" on="1"/>
        <pt x="167" y="245" on="1"/>
        <pt x="167" y="37" on="0"/>
        <pt x="321" y="37" on="1"/>
        <pt x="404" y="37" on="0"/>
        <pt x="495" y="138" on="0"/>
        <pt x="495" y="242" on="1"/>
        <pt x="495" y="627" on="1"/>
        <pt x="422" y="633" on="1"/>
        <pt x="418" y="677" on="0"/>
      </contour>
      <contour>
        <pt x="169" y="814" on="0"/>
        <pt x="227" y="866" on="0"/>
        <pt x="293" y="866" on="0"/>
        <pt x="373" y="813" on="0"/>
        <pt x="423" y="813" on="0"/>
        <pt x="455" y="842" on="0"/>
        <pt x="461" y="865" on="1"/>
        <pt x="492" y="856" on="1"/>
        <pt x="484" y="810" on="0"/>
        <pt x="430" y="753" on="0"/>
        <pt x="352" y="753" on="0"/>
        <pt x="268" y="804" on="0"/>
        <pt x="226" y="804" on="0"/>
        <pt x="197" y="775" on="0"/>
        <pt x="190" y="756" on="1"/>
        <pt x="160" y="767" on="1"/>
      </contour>
    </TTGlyph>
    <TTGlyph name="V" xMin="5" yMin="0" xMax="609" yMax="677">
      <contour>
        <pt x="454" y="677" on="1"/>
        <pt x="609" y="677" on="1"/>
        <pt x="609" y="677" on="0"/>
        <pt x="609" y="669" on="1"/>
        <pt x="609" y="634" on="0"/>
        <pt x="578" y="631" on="1"/>
        <pt x="558" y="629" on="1"/>
        <pt x="329" y="0" on="1"/>
        <pt x="274" y="0" on="1"/>
        <pt x="61" y="627" on="1"/>
        <pt x="5" y="633" on="1"/>
        <pt x="1" y="677" on="0"/>
        <pt x="33" y="677" on="1"/>
        <pt x="218" y="677" on="1"/>
        <pt x="218" y="669" on="1"/>
        <pt x="218" y="642" on="0"/>
        <pt x="204" y="636" on="1"/>
        <pt x="197" y="632" on="0"/>
        <pt x="187" y="631" on="1"/>
        <pt x="141" y="629" on="1"/>
        <pt x="140" y="629" on="1"/>
        <pt x="313" y="96" on="1"/>
        <pt x="499" y="627" on="1"/>
        <pt x="427" y="633" on="1"/>
        <pt x="423" y="677" on="0"/>
      </contour>
    </TTGlyph>
    <TTGlyph name="W" xMin="5" yMin="0" xMax="941" yMax="677">
      <contour>
        <pt x="784" y="677" on="1"/>
        <pt x="941" y="677" on="1"/>
        <pt x="940" y="674" on="0"/>
        <pt x="942" y="664" on="0"/>
        <pt x="939" y="651" on="0"/>
        <pt x="936" y="646" on="1"/>
        <pt x="930" y="633" on="0"/>
        <pt x="910" y="631" on="1"/>
        <pt x="892" y="629" on="1"/>
        <pt x="688" y="0" on="1"/>
        <pt x="628" y="0" on="1"/>
        <pt x="473" y="487" on="1"/>
        <pt x="304" y="0" on="1"/>
        <pt x="247" y="0" on="1"/>
        <pt x="59" y="627" on="1"/>
        <pt x="5" y="633" on="1"/>
        <pt x="1" y="677" on="0"/>
        <pt x="32" y="677" on="1"/>
        <pt x="214" y="677" on="1"/>
        <pt x="214" y="677" on="0"/>
        <pt x="214" y="669" on="1"/>
        <pt x="214" y="642" on="0"/>
        <pt x="200" y="636" on="1"/>
        <pt x="193" y="632" on="0"/>
        <pt x="183" y="631" on="1"/>
        <pt x="140" y="629" on="1"/>
        <pt x="285" y="104" on="1"/>
        <pt x="456" y="616" on="1"/>
        <pt x="515" y="616" on="1"/>
        <pt x="667" y="101" on="1"/>
        <pt x="830" y="627" on="1"/>
        <pt x="756" y="633" on="1"/>
        <pt x="752" y="677" on="0"/>
      </contour>
    </TTGlyph>
    <TTGlyph name="Wacute" xMin="5" yMin="0" xMax="941" yMax="886">
      <contour>
        <pt x="784" y="677" on="1"/>
        <pt x="941" y="677" on="1"/>
        <pt x="940" y="674" on="0"/>
        <pt x="942" y="664" on="0"/>
        <pt x="939" y="651" on="0"/>
        <pt x="936" y="646" on="1"/>
        <pt x="930" y="633" on="0"/>
        <pt x="910" y="631" on="1"/>
        <pt x="892" y="629" on="1"/>
        <pt x="688" y="0" on="1"/>
        <pt x="628" y="0" on="1"/>
        <pt x="473" y="487" on="1"/>
        <pt x="304" y="0" on="1"/>
        <pt x="247" y="0" on="1"/>
        <pt x="59" y="627" on="1"/>
        <pt x="5" y="633" on="1"/>
        <pt x="1" y="677" on="0"/>
        <pt x="32" y="677" on="1"/>
        <pt x="214" y="677" on="1"/>
        <pt x="214" y="677" on="0"/>
        <pt x="214" y="669" on="1"/>
        <pt x="214" y="642" on="0"/>
        <pt x="200" y="636" on="1"/>
        <pt x="193" y="632" on="0"/>
        <pt x="183" y="631" on="1"/>
        <pt x="140" y="629" on="1"/>
        <pt x="285" y="104" on="1"/>
        <pt x="456" y="616" on="1"/>
        <pt x="515" y="616" on="1"/>
        <pt x="667" y="101" on="1"/>
        <pt x="830" y="627" on="1"/>
        <pt x="756" y="633" on="1"/>
        <pt x="752" y="677" on="0"/>
      </contour>
      <contour>
        <pt x="637" y="837" on="1"/>
        <pt x="438" y="730" on="1"/>
        <pt x="420" y="739" on="0"/>
        <pt x="409" y="759" on="1"/>
        <pt x="574" y="886" on="1"/>
        <pt x="592" y="884" on="0"/>
        <pt x="628" y="854" on="0"/>
      </contour>
    </TTGlyph>
    <TTGlyph name="Wcircumflex" xMin="5" yMin="0" xMax="941" yMax="869">
      <contour>
        <pt x="784" y="677" on="1"/>
        <pt x="941" y="677" on="1"/>
        <pt x="940" y="674" on="0"/>
        <pt x="942" y="664" on="0"/>
        <pt x="939" y="651" on="0"/>
        <pt x="936" y="646" on="1"/>
        <pt x="930" y="633" on="0"/>
        <pt x="910" y="631" on="1"/>
        <pt x="892" y="629" on="1"/>
        <pt x="688" y="0" on="1"/>
        <pt x="628" y="0" on="1"/>
        <pt x="473" y="487" on="1"/>
        <pt x="304" y="0" on="1"/>
        <pt x="247" y="0" on="1"/>
        <pt x="59" y="627" on="1"/>
        <pt x="5" y="633" on="1"/>
        <pt x="1" y="677" on="0"/>
        <pt x="32" y="677" on="1"/>
        <pt x="214" y="677" on="1"/>
        <pt x="214" y="677" on="0"/>
        <pt x="214" y="669" on="1"/>
        <pt x="214" y="642" on="0"/>
        <pt x="200" y="636" on="1"/>
        <pt x="193" y="632" on="0"/>
        <pt x="183" y="631" on="1"/>
        <pt x="140" y="629" on="1"/>
        <pt x="285" y="104" on="1"/>
        <pt x="456" y="616" on="1"/>
        <pt x="515" y="616" on="1"/>
        <pt x="667" y="101" on="1"/>
        <pt x="830" y="627" on="1"/>
        <pt x="756" y="633" on="1"/>
        <pt x="752" y="677" on="0"/>
      </contour>
      <contour>
        <pt x="489" y="808" on="1"/>
        <pt x="355" y="720" on="1"/>
        <pt x="338" y="729" on="0"/>
        <pt x="327" y="748" on="1"/>
        <pt x="459" y="869" on="1"/>
        <pt x="492" y="877" on="0"/>
        <pt x="520" y="869" on="1"/>
        <pt x="651" y="748" on="1"/>
        <pt x="640" y="729" on="0"/>
        <pt x="623" y="720" on="1"/>
      </contour>
    </TTGlyph>
    <TTGlyph name="Wdieresis" xMin="5" yMin="0" xMax="941" yMax="855">
      <contour>
        <pt x="784" y="677" on="1"/>
        <pt x="941" y="677" on="1"/>
        <pt x="940" y="674" on="0"/>
        <pt x="942" y="664" on="0"/>
        <pt x="939" y="651" on="0"/>
        <pt x="936" y="646" on="1"/>
        <pt x="930" y="633" on="0"/>
        <pt x="910" y="631" on="1"/>
        <pt x="892" y="629" on="1"/>
        <pt x="688" y="0" on="1"/>
        <pt x="628" y="0" on="1"/>
        <pt x="473" y="487" on="1"/>
        <pt x="304" y="0" on="1"/>
        <pt x="247" y="0" on="1"/>
        <pt x="59" y="627" on="1"/>
        <pt x="5" y="633" on="1"/>
        <pt x="1" y="677" on="0"/>
        <pt x="32" y="677" on="1"/>
        <pt x="214" y="677" on="1"/>
        <pt x="214" y="677" on="0"/>
        <pt x="214" y="669" on="1"/>
        <pt x="214" y="642" on="0"/>
        <pt x="200" y="636" on="1"/>
        <pt x="193" y="632" on="0"/>
        <pt x="183" y="631" on="1"/>
        <pt x="140" y="629" on="1"/>
        <pt x="285" y="104" on="1"/>
        <pt x="456" y="616" on="1"/>
        <pt x="515" y="616" on="1"/>
        <pt x="667" y="101" on="1"/>
        <pt x="830" y="627" on="1"/>
        <pt x="756" y="633" on="1"/>
        <pt x="752" y="677" on="0"/>
      </contour>
      <contour>
        <pt x="428" y="751" on="0"/>
        <pt x="384" y="751" on="0"/>
        <pt x="354" y="781" on="0"/>
        <pt x="354" y="824" on="0"/>
        <pt x="384" y="855" on="0"/>
        <pt x="427" y="855" on="0"/>
        <pt x="457" y="824" on="0"/>
        <pt x="457" y="781" on="0"/>
      </contour>
      <contour>
        <pt x="622" y="781" on="0"/>
        <pt x="592" y="751" on="0"/>
        <pt x="549" y="751" on="0"/>
        <pt x="519" y="781" on="0"/>
        <pt x="519" y="824" on="0"/>
        <pt x="549" y="855" on="0"/>
        <pt x="592" y="855" on="0"/>
        <pt x="622" y="824" on="0"/>
      </contour>
    </TTGlyph>
    <TTGlyph name="Wgrave" xMin="5" yMin="0" xMax="941" yMax="878">
      <contour>
        <pt x="784" y="677" on="1"/>
        <pt x="941" y="677" on="1"/>
        <pt x="940" y="674" on="0"/>
        <pt x="942" y="664" on="0"/>
        <pt x="939" y="651" on="0"/>
        <pt x="936" y="646" on="1"/>
        <pt x="930" y="633" on="0"/>
        <pt x="910" y="631" on="1"/>
        <pt x="892" y="629" on="1"/>
        <pt x="688" y="0" on="1"/>
        <pt x="628" y="0" on="1"/>
        <pt x="473" y="487" on="1"/>
        <pt x="304" y="0" on="1"/>
        <pt x="247" y="0" on="1"/>
        <pt x="59" y="627" on="1"/>
        <pt x="5" y="633" on="1"/>
        <pt x="1" y="677" on="0"/>
        <pt x="32" y="677" on="1"/>
        <pt x="214" y="677" on="1"/>
        <pt x="214" y="677" on="0"/>
        <pt x="214" y="669" on="1"/>
        <pt x="214" y="642" on="0"/>
        <pt x="200" y="636" on="1"/>
        <pt x="193" y="632" on="0"/>
        <pt x="183" y="631" on="1"/>
        <pt x="140" y="629" on="1"/>
        <pt x="285" y="104" on="1"/>
        <pt x="456" y="616" on="1"/>
        <pt x="515" y="616" on="1"/>
        <pt x="667" y="101" on="1"/>
        <pt x="830" y="627" on="1"/>
        <pt x="756" y="633" on="1"/>
        <pt x="752" y="677" on="0"/>
      </contour>
      <contour>
        <pt x="420" y="878" on="1"/>
        <pt x="585" y="751" on="1"/>
        <pt x="574" y="731" on="0"/>
        <pt x="556" y="722" on="1"/>
        <pt x="357" y="829" on="1"/>
        <pt x="366" y="846" on="0"/>
        <pt x="402" y="876" on="0"/>
      </contour>
    </TTGlyph>
    <TTGlyph name="X" xMin="12" yMin="0" xMax="612" yMax="679">
      <contour>
        <pt x="584" y="0" on="1"/>
        <pt x="403" y="0" on="1"/>
        <pt x="403" y="8" on="1"/>
        <pt x="403" y="16" on="0"/>
        <pt x="406" y="24" on="0"/>
        <pt x="408" y="31" on="1"/>
        <pt x="413" y="44" on="0"/>
        <pt x="435" y="46" on="1"/>
        <pt x="465" y="48" on="1"/>
        <pt x="466" y="48" on="1"/>
        <pt x="303" y="289" on="1"/>
        <pt x="147" y="50" on="1"/>
        <pt x="148" y="50" on="1"/>
        <pt x="211" y="44" on="1"/>
        <pt x="215" y="0" on="0"/>
        <pt x="183" y="0" on="1"/>
        <pt x="12" y="0" on="1"/>
        <pt x="12" y="8" on="1"/>
        <pt x="12" y="34" on="0"/>
        <pt x="26" y="42" on="1"/>
        <pt x="34" y="45" on="0"/>
        <pt x="77" y="48" on="1"/>
        <pt x="273" y="333" on="1"/>
        <pt x="73" y="628" on="1"/>
        <pt x="15" y="634" on="1"/>
        <pt x="10" y="679" on="0"/>
        <pt x="43" y="679" on="1"/>
        <pt x="225" y="679" on="1"/>
        <pt x="225" y="671" on="1"/>
        <pt x="225" y="644" on="0"/>
        <pt x="211" y="638" on="1"/>
        <pt x="204" y="634" on="0"/>
        <pt x="160" y="630" on="1"/>
        <pt x="322" y="391" on="1"/>
        <pt x="467" y="628" on="1"/>
        <pt x="405" y="634" on="1"/>
        <pt x="400" y="679" on="0"/>
        <pt x="432" y="679" on="1"/>
        <pt x="596" y="679" on="1"/>
        <pt x="596" y="671" on="1"/>
        <pt x="596" y="645" on="0"/>
        <pt x="581" y="638" on="1"/>
        <pt x="574" y="634" on="0"/>
        <pt x="542" y="631" on="1"/>
        <pt x="536" y="631" on="1"/>
        <pt x="352" y="347" on="1"/>
        <pt x="554" y="50" on="1"/>
        <pt x="612" y="44" on="1"/>
        <pt x="616" y="0" on="0"/>
      </contour>
    </TTGlyph>
    <TTGlyph name="Y" xMin="5" yMin="0" xMax="587" yMax="679">
      <contour>
        <pt x="431" y="679" on="1"/>
        <pt x="587" y="679" on="1"/>
        <pt x="587" y="679" on="0"/>
        <pt x="587" y="671" on="1"/>
        <pt x="587" y="636" on="0"/>
        <pt x="556" y="633" on="1"/>
        <pt x="535" y="630" on="1"/>
        <pt x="336" y="276" on="1"/>
        <pt x="336" y="50" on="1"/>
        <pt x="409" y="44" on="1"/>
        <pt x="413" y="0" on="0"/>
        <pt x="382" y="0" on="1"/>
        <pt x="185" y="0" on="1"/>
        <pt x="185" y="8" on="1"/>
        <pt x="185" y="34" on="0"/>
        <pt x="200" y="42" on="1"/>
        <pt x="207" y="45" on="0"/>
        <pt x="217" y="46" on="1"/>
        <pt x="262" y="48" on="1"/>
        <pt x="262" y="274" on="1"/>
        <pt x="62" y="628" on="1"/>
        <pt x="61" y="628" on="1"/>
        <pt x="5" y="634" on="1"/>
        <pt x="0" y="679" on="0"/>
        <pt x="33" y="679" on="1"/>
        <pt x="220" y="679" on="1"/>
        <pt x="220" y="671" on="1"/>
        <pt x="220" y="644" on="0"/>
        <pt x="206" y="638" on="1"/>
        <pt x="199" y="634" on="0"/>
        <pt x="189" y="633" on="1"/>
        <pt x="144" y="630" on="1"/>
        <pt x="312" y="329" on="1"/>
        <pt x="474" y="628" on="1"/>
        <pt x="403" y="634" on="1"/>
        <pt x="398" y="679" on="0"/>
      </contour>
    </TTGlyph>
    <TTGlyph name="Yacute" xMin="5" yMin="0" xMax="587" yMax="886">
      <contour>
        <pt x="431" y="679" on="1"/>
        <pt x="587" y="679" on="1"/>
        <pt x="587" y="679" on="0"/>
        <pt x="587" y="671" on="1"/>
        <pt x="587" y="636" on="0"/>
        <pt x="556" y="633" on="1"/>
        <pt x="535" y="630" on="1"/>
        <pt x="336" y="276" on="1"/>
        <pt x="336" y="50" on="1"/>
        <pt x="409" y="44" on="1"/>
        <pt x="413" y="0" on="0"/>
        <pt x="382" y="0" on="1"/>
        <pt x="185" y="0" on="1"/>
        <pt x="185" y="8" on="1"/>
        <pt x="185" y="34" on="0"/>
        <pt x="200" y="42" on="1"/>
        <pt x="207" y="45" on="0"/>
        <pt x="217" y="46" on="1"/>
        <pt x="262" y="48" on="1"/>
        <pt x="262" y="274" on="1"/>
        <pt x="62" y="628" on="1"/>
        <pt x="61" y="628" on="1"/>
        <pt x="5" y="634" on="1"/>
        <pt x="0" y="679" on="0"/>
        <pt x="33" y="679" on="1"/>
        <pt x="220" y="679" on="1"/>
        <pt x="220" y="671" on="1"/>
        <pt x="220" y="644" on="0"/>
        <pt x="206" y="638" on="1"/>
        <pt x="199" y="634" on="0"/>
        <pt x="189" y="633" on="1"/>
        <pt x="144" y="630" on="1"/>
        <pt x="312" y="329" on="1"/>
        <pt x="474" y="628" on="1"/>
        <pt x="403" y="634" on="1"/>
        <pt x="398" y="679" on="0"/>
      </contour>
      <contour>
        <pt x="454" y="836" on="1"/>
        <pt x="256" y="730" on="1"/>
        <pt x="238" y="739" on="0"/>
        <pt x="227" y="759" on="1"/>
        <pt x="391" y="886" on="1"/>
        <pt x="410" y="884" on="0"/>
        <pt x="446" y="854" on="0"/>
      </contour>
    </TTGlyph>
    <TTGlyph name="Ycircumflex" xMin="5" yMin="0" xMax="587" yMax="869">
      <contour>
        <pt x="431" y="679" on="1"/>
        <pt x="587" y="679" on="1"/>
        <pt x="587" y="679" on="0"/>
        <pt x="587" y="671" on="1"/>
        <pt x="587" y="636" on="0"/>
        <pt x="556" y="633" on="1"/>
        <pt x="535" y="630" on="1"/>
        <pt x="336" y="276" on="1"/>
        <pt x="336" y="50" on="1"/>
        <pt x="409" y="44" on="1"/>
        <pt x="413" y="0" on="0"/>
        <pt x="382" y="0" on="1"/>
        <pt x="185" y="0" on="1"/>
        <pt x="185" y="8" on="1"/>
        <pt x="185" y="34" on="0"/>
        <pt x="200" y="42" on="1"/>
        <pt x="207" y="45" on="0"/>
        <pt x="217" y="46" on="1"/>
        <pt x="262" y="48" on="1"/>
        <pt x="262" y="274" on="1"/>
        <pt x="62" y="628" on="1"/>
        <pt x="61" y="628" on="1"/>
        <pt x="5" y="634" on="1"/>
        <pt x="0" y="679" on="0"/>
        <pt x="33" y="679" on="1"/>
        <pt x="220" y="679" on="1"/>
        <pt x="220" y="671" on="1"/>
        <pt x="220" y="644" on="0"/>
        <pt x="206" y="638" on="1"/>
        <pt x="199" y="634" on="0"/>
        <pt x="189" y="633" on="1"/>
        <pt x="144" y="630" on="1"/>
        <pt x="312" y="329" on="1"/>
        <pt x="474" y="628" on="1"/>
        <pt x="403" y="634" on="1"/>
        <pt x="398" y="679" on="0"/>
      </contour>
      <contour>
        <pt x="306" y="808" on="1"/>
        <pt x="172" y="720" on="1"/>
        <pt x="154" y="729" on="0"/>
        <pt x="144" y="748" on="1"/>
        <pt x="276" y="869" on="1"/>
        <pt x="309" y="877" on="0"/>
        <pt x="337" y="869" on="1"/>
        <pt x="468" y="748" on="1"/>
        <pt x="457" y="729" on="0"/>
        <pt x="440" y="720" on="1"/>
      </contour>
    </TTGlyph>
    <TTGlyph name="Ydieresis" xMin="5" yMin="0" xMax="587" yMax="855">
      <contour>
        <pt x="431" y="679" on="1"/>
        <pt x="587" y="679" on="1"/>
        <pt x="587" y="679" on="0"/>
        <pt x="587" y="671" on="1"/>
        <pt x="587" y="636" on="0"/>
        <pt x="556" y="633" on="1"/>
        <pt x="535" y="630" on="1"/>
        <pt x="336" y="276" on="1"/>
        <pt x="336" y="50" on="1"/>
        <pt x="409" y="44" on="1"/>
        <pt x="413" y="0" on="0"/>
        <pt x="382" y="0" on="1"/>
        <pt x="185" y="0" on="1"/>
        <pt x="185" y="8" on="1"/>
        <pt x="185" y="34" on="0"/>
        <pt x="200" y="42" on="1"/>
        <pt x="207" y="45" on="0"/>
        <pt x="217" y="46" on="1"/>
        <pt x="262" y="48" on="1"/>
        <pt x="262" y="274" on="1"/>
        <pt x="62" y="628" on="1"/>
        <pt x="61" y="628" on="1"/>
        <pt x="5" y="634" on="1"/>
        <pt x="0" y="679" on="0"/>
        <pt x="33" y="679" on="1"/>
        <pt x="220" y="679" on="1"/>
        <pt x="220" y="671" on="1"/>
        <pt x="220" y="644" on="0"/>
        <pt x="206" y="638" on="1"/>
        <pt x="199" y="634" on="0"/>
        <pt x="189" y="633" on="1"/>
        <pt x="144" y="630" on="1"/>
        <pt x="312" y="329" on="1"/>
        <pt x="474" y="628" on="1"/>
        <pt x="403" y="634" on="1"/>
        <pt x="398" y="679" on="0"/>
      </contour>
      <contour>
        <pt x="275" y="781" on="0"/>
        <pt x="245" y="751" on="0"/>
        <pt x="202" y="751" on="0"/>
        <pt x="171" y="781" on="0"/>
        <pt x="171" y="824" on="0"/>
        <pt x="202" y="855" on="0"/>
        <pt x="245" y="855" on="0"/>
        <pt x="275" y="824" on="0"/>
      </contour>
      <contour>
        <pt x="440" y="781" on="0"/>
        <pt x="409" y="751" on="0"/>
        <pt x="366" y="751" on="0"/>
        <pt x="336" y="781" on="0"/>
        <pt x="336" y="824" on="0"/>
        <pt x="366" y="855" on="0"/>
        <pt x="409" y="855" on="0"/>
        <pt x="440" y="824" on="0"/>
      </contour>
    </TTGlyph>
    <TTGlyph name="Ygrave" xMin="5" yMin="0" xMax="587" yMax="878">
      <contour>
        <pt x="431" y="679" on="1"/>
        <pt x="587" y="679" on="1"/>
        <pt x="587" y="679" on="0"/>
        <pt x="587" y="671" on="1"/>
        <pt x="587" y="636" on="0"/>
        <pt x="556" y="633" on="1"/>
        <pt x="535" y="630" on="1"/>
        <pt x="336" y="276" on="1"/>
        <pt x="336" y="50" on="1"/>
        <pt x="409" y="44" on="1"/>
        <pt x="413" y="0" on="0"/>
        <pt x="382" y="0" on="1"/>
        <pt x="185" y="0" on="1"/>
        <pt x="185" y="8" on="1"/>
        <pt x="185" y="34" on="0"/>
        <pt x="200" y="42" on="1"/>
        <pt x="207" y="45" on="0"/>
        <pt x="217" y="46" on="1"/>
        <pt x="262" y="48" on="1"/>
        <pt x="262" y="274" on="1"/>
        <pt x="62" y="628" on="1"/>
        <pt x="61" y="628" on="1"/>
        <pt x="5" y="634" on="1"/>
        <pt x="0" y="679" on="0"/>
        <pt x="33" y="679" on="1"/>
        <pt x="220" y="679" on="1"/>
        <pt x="220" y="671" on="1"/>
        <pt x="220" y="644" on="0"/>
        <pt x="206" y="638" on="1"/>
        <pt x="199" y="634" on="0"/>
        <pt x="189" y="633" on="1"/>
        <pt x="144" y="630" on="1"/>
        <pt x="312" y="329" on="1"/>
        <pt x="474" y="628" on="1"/>
        <pt x="403" y="634" on="1"/>
        <pt x="398" y="679" on="0"/>
      </contour>
      <contour>
        <pt x="238" y="878" on="1"/>
        <pt x="403" y="751" on="1"/>
        <pt x="392" y="731" on="0"/>
        <pt x="374" y="722" on="1"/>
        <pt x="175" y="829" on="1"/>
        <pt x="184" y="846" on="0"/>
        <pt x="220" y="876" on="0"/>
      </contour>
    </TTGlyph>
    <TTGlyph name="Z" xMin="21" yMin="0" xMax="505" yMax="685">
      <contour>
        <pt x="504" y="0" on="1"/>
        <pt x="33" y="0" on="1"/>
        <pt x="26" y="10" on="0"/>
        <pt x="21" y="28" on="1"/>
        <pt x="407" y="633" on="1"/>
        <pt x="126" y="624" on="1"/>
        <pt x="114" y="534" on="1"/>
        <pt x="111" y="511" on="0"/>
        <pt x="83" y="494" on="0"/>
        <pt x="67" y="498" on="1"/>
        <pt x="67" y="685" on="1"/>
        <pt x="491" y="685" on="1"/>
        <pt x="500" y="674" on="0"/>
        <pt x="505" y="658" on="1"/>
        <pt x="119" y="50" on="1"/>
        <pt x="444" y="61" on="1"/>
        <pt x="457" y="157" on="1"/>
        <pt x="462" y="200" on="0"/>
        <pt x="504" y="192" on="1"/>
      </contour>
    </TTGlyph>
    <TTGlyph name="Zacute" xMin="21" yMin="0" xMax="505" yMax="886">
      <contour>
        <pt x="504" y="0" on="1"/>
        <pt x="33" y="0" on="1"/>
        <pt x="26" y="10" on="0"/>
        <pt x="21" y="28" on="1"/>
        <pt x="407" y="633" on="1"/>
        <pt x="126" y="624" on="1"/>
        <pt x="114" y="534" on="1"/>
        <pt x="111" y="511" on="0"/>
        <pt x="83" y="494" on="0"/>
        <pt x="67" y="498" on="1"/>
        <pt x="67" y="685" on="1"/>
        <pt x="491" y="685" on="1"/>
        <pt x="500" y="674" on="0"/>
        <pt x="505" y="658" on="1"/>
        <pt x="119" y="50" on="1"/>
        <pt x="444" y="61" on="1"/>
        <pt x="457" y="157" on="1"/>
        <pt x="462" y="200" on="0"/>
        <pt x="504" y="192" on="1"/>
      </contour>
      <contour>
        <pt x="439" y="836" on="1"/>
        <pt x="241" y="730" on="1"/>
        <pt x="222" y="739" on="0"/>
        <pt x="211" y="759" on="1"/>
        <pt x="376" y="886" on="1"/>
        <pt x="394" y="884" on="0"/>
        <pt x="430" y="854" on="0"/>
      </contour>
    </TTGlyph>
    <TTGlyph name="Zcaron" xMin="21" yMin="0" xMax="505" yMax="884">
      <contour>
        <pt x="504" y="0" on="1"/>
        <pt x="33" y="0" on="1"/>
        <pt x="26" y="10" on="0"/>
        <pt x="21" y="28" on="1"/>
        <pt x="407" y="633" on="1"/>
        <pt x="126" y="624" on="1"/>
        <pt x="114" y="534" on="1"/>
        <pt x="111" y="511" on="0"/>
        <pt x="83" y="494" on="0"/>
        <pt x="67" y="498" on="1"/>
        <pt x="67" y="685" on="1"/>
        <pt x="491" y="685" on="1"/>
        <pt x="500" y="674" on="0"/>
        <pt x="505" y="658" on="1"/>
        <pt x="119" y="50" on="1"/>
        <pt x="444" y="61" on="1"/>
        <pt x="457" y="157" on="1"/>
        <pt x="462" y="200" on="0"/>
        <pt x="504" y="192" on="1"/>
      </contour>
      <contour>
        <pt x="452" y="856" on="1"/>
        <pt x="321" y="735" on="1"/>
        <pt x="293" y="727" on="0"/>
        <pt x="260" y="735" on="1"/>
        <pt x="128" y="856" on="1"/>
        <pt x="138" y="875" on="0"/>
        <pt x="156" y="884" on="1"/>
        <pt x="290" y="796" on="1"/>
        <pt x="424" y="884" on="1"/>
        <pt x="441" y="875" on="0"/>
      </contour>
    </TTGlyph>
    <TTGlyph name="Zdotaccent" xMin="21" yMin="0" xMax="505" yMax="885">
      <contour>
        <pt x="504" y="0" on="1"/>
        <pt x="33" y="0" on="1"/>
        <pt x="26" y="10" on="0"/>
        <pt x="21" y="28" on="1"/>
        <pt x="407" y="633" on="1"/>
        <pt x="126" y="624" on="1"/>
        <pt x="114" y="534" on="1"/>
        <pt x="111" y="511" on="0"/>
        <pt x="83" y="494" on="0"/>
        <pt x="67" y="498" on="1"/>
        <pt x="67" y="685" on="1"/>
        <pt x="491" y="685" on="1"/>
        <pt x="500" y="674" on="0"/>
        <pt x="505" y="658" on="1"/>
        <pt x="119" y="50" on="1"/>
        <pt x="444" y="61" on="1"/>
        <pt x="457" y="157" on="1"/>
        <pt x="462" y="200" on="0"/>
        <pt x="504" y="192" on="1"/>
      </contour>
      <contour>
        <pt x="340" y="814" on="0"/>
        <pt x="313" y="786" on="0"/>
        <pt x="268" y="786" on="0"/>
        <pt x="241" y="814" on="0"/>
        <pt x="241" y="858" on="0"/>
        <pt x="269" y="885" on="0"/>
        <pt x="313" y="885" on="0"/>
        <pt x="340" y="858" on="0"/>
      </contour>
    </TTGlyph>
    <TTGlyph name="a" xMin="46" yMin="-16" xMax="484" yMax="504">
      <contour>
        <pt x="484" y="31" on="1"/>
        <pt x="484" y="-16" on="0"/>
        <pt x="360" y="-16" on="0"/>
        <pt x="350" y="47" on="1"/>
        <pt x="286" y="-15" on="0"/>
        <pt x="196" y="-15" on="1"/>
        <pt x="127" y="-15" on="0"/>
        <pt x="46" y="56" on="0"/>
        <pt x="46" y="178" on="0"/>
        <pt x="136" y="262" on="0"/>
        <pt x="240" y="262" on="1"/>
        <pt x="301" y="262" on="0"/>
        <pt x="348" y="248" on="1"/>
        <pt x="348" y="327" on="1"/>
        <pt x="348" y="384" on="0"/>
        <pt x="291" y="453" on="0"/>
        <pt x="181" y="453" on="0"/>
        <pt x="134" y="394" on="0"/>
        <pt x="131" y="355" on="1"/>
        <pt x="107" y="353" on="0"/>
        <pt x="75" y="377" on="0"/>
        <pt x="75" y="404" on="1"/>
        <pt x="75" y="447" on="0"/>
        <pt x="163" y="504" on="0"/>
        <pt x="233" y="504" on="1"/>
        <pt x="294" y="504" on="0"/>
        <pt x="349" y="474" on="1"/>
        <pt x="380" y="458" on="0"/>
        <pt x="418" y="384" on="0"/>
        <pt x="418" y="331" on="1"/>
        <pt x="418" y="39" on="1"/>
      </contour>
      <contour>
        <pt x="348" y="188" on="1"/>
        <pt x="302" y="213" on="0"/>
        <pt x="180" y="213" on="0"/>
        <pt x="123" y="167" on="0"/>
        <pt x="123" y="87" on="0"/>
        <pt x="173" y="40" on="0"/>
        <pt x="217" y="40" on="1"/>
        <pt x="287" y="40" on="0"/>
        <pt x="348" y="94" on="1"/>
      </contour>
    </TTGlyph>
    <TTGlyph name="aacute" xMin="46" yMin="-16" xMax="484" yMax="690">
      <contour>
        <pt x="484" y="31" on="1"/>
        <pt x="484" y="-16" on="0"/>
        <pt x="360" y="-16" on="0"/>
        <pt x="350" y="47" on="1"/>
        <pt x="286" y="-15" on="0"/>
        <pt x="196" y="-15" on="1"/>
        <pt x="127" y="-15" on="0"/>
        <pt x="46" y="56" on="0"/>
        <pt x="46" y="178" on="0"/>
        <pt x="136" y="262" on="0"/>
        <pt x="240" y="262" on="1"/>
        <pt x="301" y="262" on="0"/>
        <pt x="348" y="248" on="1"/>
        <pt x="348" y="327" on="1"/>
        <pt x="348" y="384" on="0"/>
        <pt x="291" y="453" on="0"/>
        <pt x="181" y="453" on="0"/>
        <pt x="134" y="394" on="0"/>
        <pt x="131" y="355" on="1"/>
        <pt x="107" y="353" on="0"/>
        <pt x="75" y="377" on="0"/>
        <pt x="75" y="404" on="1"/>
        <pt x="75" y="447" on="0"/>
        <pt x="163" y="504" on="0"/>
        <pt x="233" y="504" on="1"/>
        <pt x="294" y="504" on="0"/>
        <pt x="349" y="474" on="1"/>
        <pt x="380" y="458" on="0"/>
        <pt x="418" y="384" on="0"/>
        <pt x="418" y="331" on="1"/>
        <pt x="418" y="39" on="1"/>
      </contour>
      <contour>
        <pt x="348" y="188" on="1"/>
        <pt x="302" y="213" on="0"/>
        <pt x="180" y="213" on="0"/>
        <pt x="123" y="167" on="0"/>
        <pt x="123" y="87" on="0"/>
        <pt x="173" y="40" on="0"/>
        <pt x="217" y="40" on="1"/>
        <pt x="287" y="40" on="0"/>
        <pt x="348" y="94" on="1"/>
      </contour>
      <contour>
        <pt x="381" y="641" on="1"/>
        <pt x="182" y="534" on="1"/>
        <pt x="164" y="543" on="0"/>
        <pt x="153" y="563" on="1"/>
        <pt x="318" y="690" on="1"/>
        <pt x="336" y="688" on="0"/>
        <pt x="372" y="658" on="0"/>
      </contour>
    </TTGlyph>
    <TTGlyph name="abreve" xMin="46" yMin="-16" xMax="484" yMax="679">
      <contour>
        <pt x="484" y="31" on="1"/>
        <pt x="484" y="-16" on="0"/>
        <pt x="360" y="-16" on="0"/>
        <pt x="350" y="47" on="1"/>
        <pt x="286" y="-15" on="0"/>
        <pt x="196" y="-15" on="1"/>
        <pt x="127" y="-15" on="0"/>
        <pt x="46" y="56" on="0"/>
        <pt x="46" y="178" on="0"/>
        <pt x="136" y="262" on="0"/>
        <pt x="240" y="262" on="1"/>
        <pt x="301" y="262" on="0"/>
        <pt x="348" y="248" on="1"/>
        <pt x="348" y="327" on="1"/>
        <pt x="348" y="384" on="0"/>
        <pt x="291" y="453" on="0"/>
        <pt x="181" y="453" on="0"/>
        <pt x="134" y="394" on="0"/>
        <pt x="131" y="355" on="1"/>
        <pt x="107" y="353" on="0"/>
        <pt x="75" y="377" on="0"/>
        <pt x="75" y="404" on="1"/>
        <pt x="75" y="447" on="0"/>
        <pt x="163" y="504" on="0"/>
        <pt x="233" y="504" on="1"/>
        <pt x="294" y="504" on="0"/>
        <pt x="349" y="474" on="1"/>
        <pt x="380" y="458" on="0"/>
        <pt x="418" y="384" on="0"/>
        <pt x="418" y="331" on="1"/>
        <pt x="418" y="39" on="1"/>
      </contour>
      <contour>
        <pt x="348" y="188" on="1"/>
        <pt x="302" y="213" on="0"/>
        <pt x="180" y="213" on="0"/>
        <pt x="123" y="167" on="0"/>
        <pt x="123" y="87" on="0"/>
        <pt x="173" y="40" on="0"/>
        <pt x="217" y="40" on="1"/>
        <pt x="287" y="40" on="0"/>
        <pt x="348" y="94" on="1"/>
      </contour>
      <contour>
        <pt x="381" y="614" on="0"/>
        <pt x="301" y="535" on="0"/>
        <pt x="166" y="535" on="0"/>
        <pt x="86" y="613" on="0"/>
        <pt x="78" y="663" on="1"/>
        <pt x="112" y="679" on="1"/>
        <pt x="123" y="650" on="0"/>
        <pt x="184" y="600" on="0"/>
        <pt x="234" y="600" on="1"/>
        <pt x="324" y="600" on="0"/>
        <pt x="354" y="678" on="1"/>
        <pt x="388" y="663" on="1"/>
      </contour>
    </TTGlyph>
    <TTGlyph name="acircumflex" xMin="46" yMin="-16" xMax="484" yMax="681">
      <contour>
        <pt x="484" y="31" on="1"/>
        <pt x="484" y="-16" on="0"/>
        <pt x="360" y="-16" on="0"/>
        <pt x="350" y="47" on="1"/>
        <pt x="286" y="-15" on="0"/>
        <pt x="196" y="-15" on="1"/>
        <pt x="127" y="-15" on="0"/>
        <pt x="46" y="56" on="0"/>
        <pt x="46" y="178" on="0"/>
        <pt x="136" y="262" on="0"/>
        <pt x="240" y="262" on="1"/>
        <pt x="301" y="262" on="0"/>
        <pt x="348" y="248" on="1"/>
        <pt x="348" y="327" on="1"/>
        <pt x="348" y="384" on="0"/>
        <pt x="291" y="453" on="0"/>
        <pt x="181" y="453" on="0"/>
        <pt x="134" y="394" on="0"/>
        <pt x="131" y="355" on="1"/>
        <pt x="107" y="353" on="0"/>
        <pt x="75" y="377" on="0"/>
        <pt x="75" y="404" on="1"/>
        <pt x="75" y="447" on="0"/>
        <pt x="163" y="504" on="0"/>
        <pt x="233" y="504" on="1"/>
        <pt x="294" y="504" on="0"/>
        <pt x="349" y="474" on="1"/>
        <pt x="380" y="458" on="0"/>
        <pt x="418" y="384" on="0"/>
        <pt x="418" y="331" on="1"/>
        <pt x="418" y="39" on="1"/>
      </contour>
      <contour>
        <pt x="348" y="188" on="1"/>
        <pt x="302" y="213" on="0"/>
        <pt x="180" y="213" on="0"/>
        <pt x="123" y="167" on="0"/>
        <pt x="123" y="87" on="0"/>
        <pt x="173" y="40" on="0"/>
        <pt x="217" y="40" on="1"/>
        <pt x="287" y="40" on="0"/>
        <pt x="348" y="94" on="1"/>
      </contour>
      <contour>
        <pt x="233" y="620" on="1"/>
        <pt x="99" y="532" on="1"/>
        <pt x="82" y="541" on="0"/>
        <pt x="71" y="560" on="1"/>
        <pt x="203" y="681" on="1"/>
        <pt x="236" y="689" on="0"/>
        <pt x="264" y="681" on="1"/>
        <pt x="395" y="560" on="1"/>
        <pt x="384" y="541" on="0"/>
        <pt x="367" y="532" on="1"/>
      </contour>
    </TTGlyph>
    <TTGlyph name="acute" xMin="180" yMin="534" xMax="408" yMax="690">
      <contour>
        <pt x="408" y="641" on="1"/>
        <pt x="209" y="534" on="1"/>
        <pt x="191" y="543" on="0"/>
        <pt x="180" y="563" on="1"/>
        <pt x="345" y="690" on="1"/>
        <pt x="363" y="688" on="0"/>
        <pt x="399" y="658" on="0"/>
      </contour>
    </TTGlyph>
    <TTGlyph name="acute.cap" xMin="180" yMin="542" xMax="408" yMax="698">
      <contour>
        <pt x="408" y="649" on="1"/>
        <pt x="209" y="542" on="1"/>
        <pt x="191" y="551" on="0"/>
        <pt x="180" y="571" on="1"/>
        <pt x="345" y="698" on="1"/>
        <pt x="363" y="696" on="0"/>
        <pt x="399" y="666" on="0"/>
      </contour>
    </TTGlyph>
    <TTGlyph name="adieresis" xMin="46" yMin="-16" xMax="484" yMax="667">
      <contour>
        <pt x="484" y="31" on="1"/>
        <pt x="484" y="-16" on="0"/>
        <pt x="360" y="-16" on="0"/>
        <pt x="350" y="47" on="1"/>
        <pt x="286" y="-15" on="0"/>
        <pt x="196" y="-15" on="1"/>
        <pt x="127" y="-15" on="0"/>
        <pt x="46" y="56" on="0"/>
        <pt x="46" y="178" on="0"/>
        <pt x="136" y="262" on="0"/>
        <pt x="240" y="262" on="1"/>
        <pt x="301" y="262" on="0"/>
        <pt x="348" y="248" on="1"/>
        <pt x="348" y="327" on="1"/>
        <pt x="348" y="384" on="0"/>
        <pt x="291" y="453" on="0"/>
        <pt x="181" y="453" on="0"/>
        <pt x="134" y="394" on="0"/>
        <pt x="131" y="355" on="1"/>
        <pt x="107" y="353" on="0"/>
        <pt x="75" y="377" on="0"/>
        <pt x="75" y="404" on="1"/>
        <pt x="75" y="447" on="0"/>
        <pt x="163" y="504" on="0"/>
        <pt x="233" y="504" on="1"/>
        <pt x="294" y="504" on="0"/>
        <pt x="349" y="474" on="1"/>
        <pt x="380" y="458" on="0"/>
        <pt x="418" y="384" on="0"/>
        <pt x="418" y="331" on="1"/>
        <pt x="418" y="39" on="1"/>
      </contour>
      <contour>
        <pt x="348" y="188" on="1"/>
        <pt x="302" y="213" on="0"/>
        <pt x="180" y="213" on="0"/>
        <pt x="123" y="167" on="0"/>
        <pt x="123" y="87" on="0"/>
        <pt x="173" y="40" on="0"/>
        <pt x="217" y="40" on="1"/>
        <pt x="287" y="40" on="0"/>
        <pt x="348" y="94" on="1"/>
      </contour>
      <contour>
        <pt x="172" y="563" on="0"/>
        <pt x="128" y="563" on="0"/>
        <pt x="98" y="593" on="0"/>
        <pt x="98" y="636" on="0"/>
        <pt x="128" y="667" on="0"/>
        <pt x="171" y="667" on="0"/>
        <pt x="201" y="636" on="0"/>
        <pt x="201" y="593" on="0"/>
      </contour>
      <contour>
        <pt x="366" y="593" on="0"/>
        <pt x="336" y="563" on="0"/>
        <pt x="293" y="563" on="0"/>
        <pt x="263" y="593" on="0"/>
        <pt x="263" y="636" on="0"/>
        <pt x="293" y="667" on="0"/>
        <pt x="336" y="667" on="0"/>
        <pt x="366" y="636" on="0"/>
      </contour>
    </TTGlyph>
    <TTGlyph name="ae" xMin="46" yMin="-15" xMax="740" yMax="504">
      <contour>
        <pt x="667" y="374" on="0"/>
        <pt x="614" y="454" on="0"/>
        <pt x="515" y="454" on="0"/>
        <pt x="445" y="375" on="0"/>
        <pt x="432" y="308" on="1"/>
        <pt x="666" y="308" on="1"/>
      </contour>
      <contour>
        <pt x="348" y="187" on="1"/>
        <pt x="303" y="213" on="0"/>
        <pt x="181" y="213" on="0"/>
        <pt x="123" y="168" on="0"/>
        <pt x="123" y="86" on="0"/>
        <pt x="174" y="40" on="0"/>
        <pt x="219" y="40" on="1"/>
        <pt x="291" y="40" on="0"/>
        <pt x="348" y="94" on="1"/>
      </contour>
      <contour>
        <pt x="576" y="504" on="1"/>
        <pt x="661" y="504" on="0"/>
        <pt x="740" y="390" on="0"/>
        <pt x="740" y="311" on="1"/>
        <pt x="740" y="263" on="1"/>
        <pt x="426" y="263" on="1"/>
        <pt x="424" y="243" on="0"/>
        <pt x="424" y="230" on="1"/>
        <pt x="424" y="147" on="0"/>
        <pt x="497" y="42" on="0"/>
        <pt x="650" y="42" on="0"/>
        <pt x="717" y="96" on="1"/>
        <pt x="729" y="87" on="0"/>
        <pt x="729" y="71" on="1"/>
        <pt x="729" y="43" on="0"/>
        <pt x="621" y="-15" on="0"/>
        <pt x="553" y="-15" on="1"/>
        <pt x="438" y="-15" on="0"/>
        <pt x="386" y="71" on="1"/>
        <pt x="356" y="36" on="0"/>
        <pt x="259" y="-15" on="0"/>
        <pt x="127" y="-15" on="0"/>
        <pt x="46" y="55" on="0"/>
        <pt x="46" y="179" on="0"/>
        <pt x="136" y="262" on="0"/>
        <pt x="241" y="262" on="1"/>
        <pt x="297" y="262" on="0"/>
        <pt x="348" y="248" on="1"/>
        <pt x="348" y="327" on="1"/>
        <pt x="348" y="383" on="0"/>
        <pt x="291" y="453" on="0"/>
        <pt x="180" y="453" on="0"/>
        <pt x="133" y="391" on="0"/>
        <pt x="131" y="355" on="1"/>
        <pt x="108" y="352" on="0"/>
        <pt x="75" y="376" on="0"/>
        <pt x="75" y="403" on="1"/>
        <pt x="75" y="446" on="0"/>
        <pt x="164" y="505" on="0"/>
        <pt x="233" y="504" on="1"/>
        <pt x="267" y="504" on="0"/>
        <pt x="305" y="492" on="1"/>
        <pt x="381" y="469" on="0"/>
        <pt x="401" y="410" on="1"/>
        <pt x="432" y="456" on="0"/>
        <pt x="525" y="504" on="0"/>
      </contour>
    </TTGlyph>
    <TTGlyph name="agrave" xMin="46" yMin="-16" xMax="484" yMax="690">
      <contour>
        <pt x="484" y="31" on="1"/>
        <pt x="484" y="-16" on="0"/>
        <pt x="360" y="-16" on="0"/>
        <pt x="350" y="47" on="1"/>
        <pt x="286" y="-15" on="0"/>
        <pt x="196" y="-15" on="1"/>
        <pt x="127" y="-15" on="0"/>
        <pt x="46" y="56" on="0"/>
        <pt x="46" y="178" on="0"/>
        <pt x="136" y="262" on="0"/>
        <pt x="240" y="262" on="1"/>
        <pt x="301" y="262" on="0"/>
        <pt x="348" y="248" on="1"/>
        <pt x="348" y="327" on="1"/>
        <pt x="348" y="384" on="0"/>
        <pt x="291" y="453" on="0"/>
        <pt x="181" y="453" on="0"/>
        <pt x="134" y="394" on="0"/>
        <pt x="131" y="355" on="1"/>
        <pt x="107" y="353" on="0"/>
        <pt x="75" y="377" on="0"/>
        <pt x="75" y="404" on="1"/>
        <pt x="75" y="447" on="0"/>
        <pt x="163" y="504" on="0"/>
        <pt x="233" y="504" on="1"/>
        <pt x="294" y="504" on="0"/>
        <pt x="349" y="474" on="1"/>
        <pt x="380" y="458" on="0"/>
        <pt x="418" y="384" on="0"/>
        <pt x="418" y="331" on="1"/>
        <pt x="418" y="39" on="1"/>
      </contour>
      <contour>
        <pt x="348" y="188" on="1"/>
        <pt x="302" y="213" on="0"/>
        <pt x="180" y="213" on="0"/>
        <pt x="123" y="167" on="0"/>
        <pt x="123" y="87" on="0"/>
        <pt x="173" y="40" on="0"/>
        <pt x="217" y="40" on="1"/>
        <pt x="287" y="40" on="0"/>
        <pt x="348" y="94" on="1"/>
      </contour>
      <contour>
        <pt x="164" y="690" on="1"/>
        <pt x="329" y="563" on="1"/>
        <pt x="318" y="543" on="0"/>
        <pt x="300" y="534" on="1"/>
        <pt x="101" y="641" on="1"/>
        <pt x="110" y="658" on="0"/>
        <pt x="146" y="688" on="0"/>
      </contour>
    </TTGlyph>
    <TTGlyph name="amacron" xMin="46" yMin="-16" xMax="484" yMax="635">
      <contour>
        <pt x="484" y="31" on="1"/>
        <pt x="484" y="-16" on="0"/>
        <pt x="360" y="-16" on="0"/>
        <pt x="350" y="47" on="1"/>
        <pt x="286" y="-15" on="0"/>
        <pt x="196" y="-15" on="1"/>
        <pt x="127" y="-15" on="0"/>
        <pt x="46" y="56" on="0"/>
        <pt x="46" y="178" on="0"/>
        <pt x="136" y="262" on="0"/>
        <pt x="240" y="262" on="1"/>
        <pt x="301" y="262" on="0"/>
        <pt x="348" y="248" on="1"/>
        <pt x="348" y="327" on="1"/>
        <pt x="348" y="384" on="0"/>
        <pt x="291" y="453" on="0"/>
        <pt x="181" y="453" on="0"/>
        <pt x="134" y="394" on="0"/>
        <pt x="131" y="355" on="1"/>
        <pt x="107" y="353" on="0"/>
        <pt x="75" y="377" on="0"/>
        <pt x="75" y="404" on="1"/>
        <pt x="75" y="447" on="0"/>
        <pt x="163" y="504" on="0"/>
        <pt x="233" y="504" on="1"/>
        <pt x="294" y="504" on="0"/>
        <pt x="349" y="474" on="1"/>
        <pt x="380" y="458" on="0"/>
        <pt x="418" y="384" on="0"/>
        <pt x="418" y="331" on="1"/>
        <pt x="418" y="39" on="1"/>
      </contour>
      <contour>
        <pt x="348" y="188" on="1"/>
        <pt x="302" y="213" on="0"/>
        <pt x="180" y="213" on="0"/>
        <pt x="123" y="167" on="0"/>
        <pt x="123" y="87" on="0"/>
        <pt x="173" y="40" on="0"/>
        <pt x="217" y="40" on="1"/>
        <pt x="287" y="40" on="0"/>
        <pt x="348" y="94" on="1"/>
      </contour>
      <contour>
        <pt x="364" y="635" on="1"/>
        <pt x="364" y="578" on="1"/>
        <pt x="101" y="578" on="1"/>
        <pt x="101" y="635" on="1"/>
      </contour>
    </TTGlyph>
</ttFont>
